M48
;Layer_Color=9474304
;FILE_FORMAT=2:4
INCH,TZ
;TYPE=PLATED
T1F00S00C0.0039
;TYPE=NON_PLATED
%
T01
X3610Y3330
X4180Y3650
X7550Y1510
X9183Y1530
X10350Y3500
X10370Y4280
X10910Y4850
X11312Y6402
X10389Y7119
X9880Y7230
X10200Y7810
X9590Y8120
X10120Y8890
X10730Y8960
X11780Y7600
X12570Y7740
X12610Y6800
X14410Y7450
X15390Y7800
X15530Y7940
X15118Y9158
X14550Y9010
X18160Y8830
X18318Y9192
X18890Y9340
X18123Y6147
X17980Y5600
X17480Y5410
X17640Y5210
X17330Y5810
X16870Y5950
X16400Y5220
X16140Y4180
X15560Y4160
X16840Y4200
X17540Y4170
X18310
X18745Y3975
X8970Y7250
X20600Y6510
X21290Y7590
X20880Y8370
X22940Y6780
X23500Y6460
X23860Y7060
X24180Y7595
X24290Y7770
X24740Y7950
X24880Y7360
X24710Y6760
X24650Y6510
X27090Y7260
X26970Y7650
X27130Y7760
X27650Y7900
X27597Y7457
X27700Y7030
X28290
X28440Y6220
X28671Y6220
X28600Y8640
X30400Y7750
X30370Y7437
X31220Y8030
X32085Y7595
X32600Y7540
X32630Y7740
X32660Y7260
X33210Y7070
X33170Y7910
X33850Y7780
X34045Y7126
X34500Y7270
X34650Y7130
X34961Y7441
X35118Y7598
X34803Y7785
X35187Y8346
X35226Y8829
X34840Y8850
X34560Y9130
X34280Y9280
X35374Y6890
X35433Y5856
X30943Y4937
X30007Y5057
X26053Y9006
X22460Y4170
X21520
X20510Y4140
X19950Y4170
X35630Y4790
X35830Y4650
X36063Y5276
X36025Y5668
X38209Y5965
X38169Y5295
X38160Y4910
X38340Y5050
X38650Y4630
X38840Y4770
X39301Y4902
X39144Y5197
X39026Y5364
X39469Y4599
X41270Y4891
X41457Y4744
X41191Y7283
X41791Y7392
X41914Y8179
X41196
X41432Y8770
X42151
X42387Y9360
X41668
X43553Y9321
X43632Y9144
X43553Y8967
X43632Y8789
X43553Y8612
X43632Y8435
X43553Y8258
X43671Y8130
X44134Y8100
Y8258
X43026Y7913
X42736Y7667
Y6870
X44154Y6299
X44488Y5512
X45384
X45640Y5581
X45866Y5866
X45856Y6348
X46329Y6339
X46398Y6122
X46368Y5807
X46919Y5217
X39774Y6919
X39921Y7283
X39409Y7913
X39528Y8219
X39390Y8366
X39675Y8524
X38770Y8967
X39113Y9530
X39251Y9800
X38711Y9941
X38346Y10492
X39813Y10797
X39961Y10945
X40561Y11949
X41368Y12569
X41228Y12709
X41594Y12884
X41811Y13533
X41063Y13533
X40918Y13678
X40541Y14341
X40401Y14486
X41390Y15250
X41400Y16100
X41510Y17020
X41120Y17440
X41160Y18480
X41530Y18860
X41520Y19560
X41890Y19240
X42290Y19070
X42320Y19470
X42040Y18620
X42250Y18400
X42050Y16590
X42540Y14860
X44100Y14780
X44210Y14916
X44597Y14877
Y15035
Y14563
Y14405
Y14248
Y14090
Y13933
Y13775
Y13618
X44755
X44912
X45070Y13618
X45227
X45385Y13618
X45542Y13618
X45700Y13618
X45857Y13618
X46015
X46172Y13618
X46330Y13618
X46487Y13618
X46645
X46802Y13618
X47240Y12380
X47528Y11724
X46830Y11250
Y11060
Y10870
X45950Y11630
X45949Y11829
X45650Y12180
X45463Y12028
X44793Y12244
X44941Y12451
X44380Y12700
X43032Y12707
X43553Y9931
X43866Y9931
Y9744
Y9557
X43632Y9498
X44203Y9931
X40207Y9397
X39626Y13287
X38376Y13435
X38375Y14325
X36625
Y13475
X35790Y13480
X35760Y13650
X36575Y10492
X36970Y23060
X40600Y20562
X40797Y20709
X44210Y19360
X44140Y18740
X44130Y18140
X44700Y18080
X45679Y18652
X45700Y18980
X46073Y18484
X46270Y17940
X46480Y17480
X46966Y17470
X46790Y17740
X46330Y15822
X46172Y15822
X46015
X45857
X45700
X45542Y15822
X45779Y15980
X47785Y14341
X48312Y12466
X45150Y21530
X34800Y20840
X34660Y20700
X34500Y20560
X34360Y20420
X34220Y20280
X34080Y20140
X33940Y20000
X33800Y19860
X33240Y19980
X33250Y20460
X33240Y20670
X32695Y20460
X32685Y19980
X32130
X32140Y20460
X31470Y20050
X31030Y20440
X30475
X29920
X29430Y19450
X29390Y18910
X29250Y19050
X28480Y19310
X28340Y19190
X28000Y19050
X27420Y18910
X27560Y19880
X28140Y20280
X27780Y17570
X28300Y16535
X28520
Y16080
X28300
X29000Y14050
X30250Y14100
X31260Y14040
X31506Y12884
X30000Y12940
X29500Y12800
X29240Y12860
X28800Y12850
X27710Y12880
X27340Y12870
X27540Y13330
X27320Y10800
X27170Y10940
X25972Y10690
X25650Y10520
X25440Y10240
X25890Y9680
X24070Y10380
X22950Y11220
X22500Y11250
X22640Y11390
X22780Y11620
X21890Y9990
X21650Y10130
X21420Y10270
X21180Y10410
X22520Y14750
X21890Y18200
X21750Y18340
X21610Y18480
X21470Y18620
X21330Y18760
X24940Y19590
X24800Y19740
X33503Y22667
X32750Y14180
X33000Y12573
X33500Y12713
X32673Y11770
X32500Y11220
X33000Y10520
X33500Y10660
X33440Y10240
X33580Y10100
X33860Y9940
X34000Y9660
X34140Y10080
X34420Y10220
X35092Y10500
X35252Y10640
X35384Y10364
X34700Y11220
X34660Y14040
X34800Y14180
X32260Y10240
X32110Y10100
X31790Y10380
X31260Y9960
X30690Y10380
X30500Y11220
X30870Y11620
X31400Y11080
X28600Y10660
Y9840
X28590Y9470
X28130Y10098
X19562Y10608
X18652Y10728
X18494
X18337
X18180
X18022
X19020Y11250
X18976Y11436
X19076Y11594
X19119Y11751
X19347Y12597
X18957Y13522
X18180Y12932
X18022
X17865Y12932
X17707Y12932
X17550
X17510Y14510
X17730
X17290
X17070
X17570Y15650
X15530Y16390
X13660Y16430
X14090Y19800
X13150Y19810
X13540Y20330
X14460Y20430
X14960Y19940
X15840Y20080
X15410Y20520
X16310Y20570
X16710Y20220
X17190Y20690
X17560Y20320
X18660Y20490
X12540Y20360
X11550Y20290
X11280Y19810
X12000
X10220
X10630Y20230
X9640Y20240
X9360Y19810
X8850Y20130
X8340Y19920
X7780Y19990
X8090Y20420
X4730Y17910
X5930Y15060
X9530Y12470
X10741Y12291
X10504Y12010
X10000Y11030
X9390Y11200
X9920Y10260
X9940Y9620
X9018Y10022
X11770Y12230
X3440Y11220
X2850Y13270
X2980Y15580
X2650Y15770
X2450Y15570
X3680Y17160
X3860Y17900
X1640Y22000
X1510Y22400
X1690Y22650
X1500Y22890
X1690Y23150
M30
