M48
;Layer_Color=9474304
;FILE_FORMAT=2:4
INCH,TZ
;TYPE=PLATED
T2F00S00C0.0079
T3F00S00C0.0098
T4F00S00C0.0118
T5F00S00C0.0130
T7F00S00C0.0354
T8F00S00C0.0394
;TYPE=NON_PLATED
T9F00S00C0.0390
T10F00S00C0.0701
T11F00S00C0.1260
%
T02
X44173Y7333
X44203Y7648
X47235Y7946
X47500
X47500Y8268
X47766
X47235Y8281
X46988Y9045
X46330Y9127
X49252Y8533
X49370Y8100
T03
X698Y285
X280Y790
X778Y2047
X1192Y1720
X1696Y1470
X2176Y1660
X2636Y1130
X2140Y250
X2566Y2480
X2589Y3193
X1610Y3170
X1233Y4020
X1410Y4790
X1420Y5250
X540Y5060
X490Y6500
X580Y7540
X1010Y7170
X1150Y8380
X460Y8580
X1280Y9290
X3070Y9200
X3380Y8580
X3360Y7980
X2785Y8238
X2451Y7087
X2580Y6170
X2382Y5620
X3290Y6040
X3290Y5091
X3840Y4590
X3465Y4114
X3671Y6654
X1540Y6240
X440Y3630
X330Y2700
X4010Y1290
X4260Y850
X4697Y285
X5748Y276
X6959Y226
X7697Y285
X8698
X9697
X9310Y890
X9450Y1470
X8920Y1450
X8120Y1811
X7776Y1358
X6950Y1400
X6600Y690
X4330Y2140
X4260Y2920
X4640Y4030
X5522Y4232
X6161Y5630
X6340Y6710
X5990Y7550
X5935Y7835
X6340Y7980
X6820
X7490Y7960
X7707Y8711
X8000Y8500
X8320Y8480
X8986Y8573
X9700Y8680
X9252Y7352
X8900Y7530
X8710Y7060
X8350Y7130
X8320Y7430
X8010Y7440
X8090Y6830
X8494Y6152
X8543Y5620
X8277Y4813
X7607Y4833
X7127
X7638Y3553
X8877Y3683
X9137Y3983
X9497Y3913
X8947Y4252
X8652
X8809Y2835
X9690Y2160
X10440Y2180
X10370Y1820
X10500Y1500
Y500
X11520Y270
X11540Y1050
X11490Y1740
Y2590
X11530Y3340
X11510Y3930
X11310Y4350
X12060Y5000
X12550Y5100
X12470Y5570
X12028Y5571
X11690Y5900
X11160Y5670
X10758Y6161
X9793Y6109
X9532Y6957
X10960Y7860
X11520Y8070
X12180Y8000
X12150Y8420
X12400Y8290
X12830Y8490
X12770Y8920
X13330Y9200
X13370Y8530
X13050Y8160
X14010Y7920
X13750Y7270
X14040Y6990
X14540Y7110
X15520Y7120
X15430Y6270
X15098Y5925
X14510Y5990
X13600Y6010
X13690Y5480
X13799Y4980
X13061Y4970
X14520Y4890
X15157Y4705
X15430Y4830
Y5550
X15760Y5610
X15820Y5160
X16500Y4690
X16470Y3520
X16520Y2920
X17480
X18000Y3000
X18580Y2900
X18550Y3570
X19490
X19510Y2510
X19050Y2570
X19390Y1740
X18550Y1700
X18600Y910
X18698Y285
X19350Y480
X17510Y250
X17540Y970
X17500Y1770
X16500Y1790
Y1010
X16480Y270
X15500Y260
X15540Y990
X15480Y1780
X14500Y1790
Y1000
Y270
X13490
X13530Y1000
X13490Y1780
X12490Y1770
Y2540
X12500Y3380
X12490Y3910
X13640Y3910
X13510Y2990
X14000Y3000
X14530Y2900
X15000Y3000
X15540Y2890
X15530Y3530
X14530Y3600
X13000Y3000
X12000
X11000
X10510Y2770
X10630Y5120
X10404Y5463
X12380Y6230
X12159Y6855
X12210Y7290
X13000Y6680
X13700Y6550
X14900Y7880
X14920Y8750
X15760Y8760
X15880Y8210
X16590Y8220
X16610Y8740
X17370Y8770
X17048Y8382
X17802Y8417
X18430Y8390
X19090Y8420
X19510Y8360
Y6920
X19090Y7140
X19130Y6580
X18420Y6550
X18430Y7170
X17730Y7200
X17100Y7220
X16540Y7130
X16310Y6210
X17100Y6190
X17740Y6210
X17700Y4730
X18500Y4690
X18320Y5100
X19040Y5090
X19050Y4630
X17520Y3490
X12530Y1000
X12490Y260
X14110Y8940
X7776Y9301
X7451Y9006
X6752Y9301
X5381Y8840
X4411Y5702
X20010Y5150
X20485Y4690
X21040Y5140
X21280Y5600
X21950Y5130
X21530Y4690
X22470
X22870Y5120
X23484Y4222
X23880Y4260
X24550Y4390
X25030Y4250
X24780Y5190
X24222Y6448
X23820Y6620
X23240Y6630
X22700
X22180Y6650
X21780Y6550
X21720Y7270
X22550Y7250
X23070Y7800
X23527Y7930
X23280Y8590
X22290Y8510
X21710
X24389Y8289
X24670Y8560
X24708Y9012
X25190Y8380
X26102Y8325
X25876Y8830
X26575Y9193
X27401Y8778
X27260Y8290
X27930Y8340
X27972Y9281
X29340Y9200
X29970Y9130
X30390Y8730
X29915Y8245
X29560Y8480
X29090Y8150
X29870Y7680
X29524Y6766
X29040Y6780
X29170Y6220
X28986Y5807
X29409Y5630
X29700Y5320
X30433Y5443
X30400Y5140
X30460Y6270
X31190Y6210
X31784Y6220
X32169Y6491
X32520Y6440
X32640Y5900
X33610Y5890
X34060Y6240
X34480Y6670
X34540Y5780
X34560Y5090
X34430Y3770
X35030Y3830
X34660Y3290
X34197Y3285
X33198
X32197
X31198
X30290Y3010
X29770Y3430
X29610Y3790
X30210Y3900
X28630Y3730
X28960Y3260
X28420Y2840
X28470Y2290
X28330Y1480
X28990Y1850
X29580Y1520
X30320Y1420
X31198Y1285
X31030Y1790
X31697Y2285
X32698
X33698
X34180Y1920
X34197Y1285
X34090Y860
X34660Y890
X34697Y285
X33698
X32698
X31697
X30698
X29697
X28698
X28950Y930
X27698Y285
X26697
X25698
X25570Y1010
X25530Y1760
X25500Y2500
Y2870
X26090Y2880
X26070Y2500
X26860Y2530
X26840Y2880
X26660Y1740
X27040Y1620
X26970Y1020
X24490Y1010
X24510Y260
X23490Y270
X23530Y1020
X23520Y1790
X23510Y2500
X23520Y3100
X24000Y3000
X24520Y2980
Y2510
X24490Y1790
X25000Y3000
X23000
X22530Y3160
X22520Y2510
X22470Y1780
X22480Y1020
X22510Y250
X21520Y330
X21510Y1000
Y1790
X21490Y2530
X21510Y3150
X22000Y3000
X21000
X20560Y3170
X20500Y2540
X20480Y1790
Y1070
X20520Y270
X20000Y3000
X20340Y6390
X24945Y7595
X26590Y6630
X27160
X27270Y5730
X26830Y5880
X27840Y5780
X28450Y5730
X28810Y5320
X27740Y4970
X27250Y4820
X26970Y4200
X27970Y3240
X29510Y2840
X29480Y2310
X32197Y1285
X33198
X35100Y1910
X35350Y860
X33890Y7400
X33830Y8360
X33200Y8600
X33000Y9100
X32030Y9130
X31800Y8440
X31840Y7930
X32264Y8258
X32710Y8240
X32025Y7100
X31320Y6700
X29699Y6421
X35630Y6220
X35839Y6900
X36600Y6840
X37080Y6390
X37770Y6850
X38341Y6703
X38340Y6400
X38652Y6693
X38841Y6220
X39577Y6191
X40022Y6220
X39695Y6644
X39715Y5758
X41063
X41203Y6220
X41427Y6634
X40856Y7539
X43278Y7283
Y7003
Y6722
X43583Y6457
X43986Y6496
X43583Y4740
Y3740
X44030Y2820
X44000Y1460
X45020Y1752
X46024Y1742
X47028Y2274
X47080Y2830
X48120Y2840
X49183Y3130
X49785Y2974
X50235Y3011
Y3507
X49785Y3470
X49777Y3967
X50227Y4004
X50065Y4474
X50311Y4783
X50400Y5100
X50500Y5500
X50177Y5640
X49902Y6014
X50177Y6398
X50500Y6500
Y7500
X49941Y7825
X49921Y8100
X49823Y8366
X49537Y8494
X49235Y8809
X49206Y9259
X48747Y9268
X48750Y8976
X48553Y8770
X48120Y8701
X48051Y8297
X48420
X48740
X48720Y7470
X48420Y7549
X48051
X47682
X47313Y7549
Y7264
X47530Y6988
X47226Y6410
X46934Y6599
X46757Y5802
X47244Y5758
X47343Y5423
X47583Y4740
Y3740
X48583Y4240
X49539Y4403
X49313Y4845
X49775Y4877
X49780Y5337
X49233Y5336
X48819Y5640
X49094Y6014
X48543Y6043
X48819Y6398
X49065Y6762
X49006Y7352
X48553Y6988
X47844Y6211
X48317Y5236
X46772Y4941
X46393Y4808
X45974Y4616
X45866Y4961
X45246Y4980
X44583Y4240
X45583Y3740
X46583Y4240
X47047Y955
X46698Y285
X45697
X44697
X43698
X42698
X41698
X40697
X39697
X38698
X37698
X37800Y1000
X37000
X36697Y285
X35698
X36670Y1810
X37460Y1830
X37890Y1720
X38790Y2080
X39810Y2030
X40490Y2190
X40810Y2610
X40760Y3290
X41070Y3500
X41060Y4080
X41030Y4391
X39850
X39183Y4439
X39130Y4160
X38490Y4150
X37410Y4130
X36720Y4140
X37010Y3630
X36790Y3260
X36150Y3600
X36750Y5435
X37390
X37707Y5266
X38081Y7638
X37992Y8563
X37547
X37102
X36657
X36073
X36102Y7667
X39590Y3560
X41093Y1850
X42047Y1998
X43020Y2270
X42510Y3031
X42583Y4240
Y5240
X43161Y8389
X44598Y8901
X47235Y8773
X49856Y9000
X50500Y8500
X50900Y5100
X50259Y2514
X50311Y2086
X49774Y2175
X49537Y1909
X49764Y1624
X50000Y1437
X50311Y1332
Y783
Y283
X49697Y285
X48900Y490
X48569Y276
X47825
X48071Y974
X48770Y1850
X40530Y1210
X51400Y5100
X51900
X52400
X52500Y5500
X52900Y5100
X53400
X53500Y6000
Y7000
Y8128
Y9000
X52500Y7500
Y6500
X51500Y6000
Y7000
Y8000
X53500Y10000
Y11000
Y12000
Y13000
Y14000
Y15000
Y16000
X53153Y15906
X53211Y16400
Y16897
X53500Y17000
X53211Y17393
Y17890
X53500Y18000
X53211Y18387
Y18884
X53500Y19039
X53211Y19381
Y19878
X53500Y19793
X53484Y20551
X53238Y20374
X52761Y20178
X52531Y20404
X51929
X52110Y21053
X52531
X51690
X51270
X51122Y21402
Y21811
Y22270
Y22728
X51319Y22949
X51859
X52400
X52940
X53480
X53189Y23514
X52571
X51953
X51335
X51474Y24691
X52474
X52943Y24370
X53474Y24691
X53480Y23949
X53491Y21102
X52761Y19682
Y19185
Y18688
Y18191
Y17694
Y17197
Y16700
X52500Y16500
X52755Y16204
X52553Y15750
X52515Y15171
X52033Y15051
X51536Y15051
X51619Y15501
X51122
X51500Y16000
Y17000
X52146Y17441
Y18441
Y19441
X51500Y19000
Y20000
X52116Y15513
X52910Y15473
X52549Y14518
X51545Y14262
X50679Y14518
X50532Y15051
X50046
X49549
X49632Y15501
X50129
X50626
X50610Y15910
X50190Y16670
X49830Y17140
X48660
X48730Y16840
X49180Y16450
X49190Y16070
X49213Y15778
X48963Y15502
X48514Y15492
X48287Y15335
X48270Y15660
X47964Y15724
X47880Y15420
X47847Y16039
X47531
X47344Y15694
X47284Y14917
X47550Y14494
X47930Y14670
X48238Y14872
X48268Y14321
X48747Y14260
Y13905
Y13551
Y13197
Y12842
Y12488
Y12134
X49206Y12124
Y12478
Y12833
Y13187
Y13541
Y13896
Y14250
X49176Y14603
X49008Y15020
X49856Y14000
Y13000
Y12274
X49675Y11791
X49380Y11407
X49705Y11043
X49206Y10676
Y10322
Y9967
Y9613
X48747Y9623
Y9977
Y10331
Y10686
X48287Y11014
X48583Y11398
X47953Y11358
X48287Y11791
X48032Y12466
Y12746
X47751
Y13026
X47471
X47274Y13346
X46822Y12893
X46615Y12486
X46044Y12893
X45592
X45121
X44636
X44282
X43803Y12888
X43381Y13155
X42874Y13189
X42040Y13200
X42589Y12618
X42539Y14213
X43100Y14203
X43600Y14910
X43560Y16040
X43258Y15896
X42885Y15388
X42592Y16838
X43564Y16838
X43564Y17712
X44007
X44520Y17530
X44360Y16980
X45099Y17063
X45365Y16482
X45516Y15429
Y14956
Y14484
Y14011
X44991
Y14484
Y14956
Y15429
X46041
Y14956
Y14484
Y14011
X46566
Y14484
Y14956
Y15429
X46861Y16413
X46615Y16708
X47550Y16679
X47830Y16850
X47954Y16511
X47786Y17643
X47220Y17670
X47451Y18032
X46742Y18061
X46320Y18360
X45984Y18228
X45718Y18406
X46069Y17693
X46202Y17446
X46211Y19124
X46280Y19902
X45690Y19720
X45480Y19540
X45270Y19360
X45060Y19180
X44850Y19000
X44540Y18470
X44220Y19930
X43260Y19913
X42180Y19920
X42260Y20190
X41860Y20040
X41476Y19941
X41230Y19720
Y19360
Y19000
X41010Y19180
Y19540
X41014Y19951
X41211Y20148
X41093Y20965
X40980Y21370
X40659Y21831
X40295Y22057
X40236Y21575
X40280Y22730
X41150Y22650
X41420Y21840
X41864Y21170
X42970Y21034
X43824Y20674
X44242Y21024
X44510Y20790
X45157Y21053
X44867Y21837
X44460Y21770
X43684Y22199
X43860Y23090
X44000Y24100
X44800Y24030
X45820Y24140
X46474Y24691
X47474
X48474
X49474
X50474
X50717Y23514
X50718Y22943
X50541Y22018
X50246Y22264
X50236Y21732
X50522Y20620
X49176Y20562
X48406Y21161
X47756Y21181
X46990Y21190
X46440Y21220
X46350Y20720
X46120Y22570
X45570Y22310
X44870Y22670
X46970Y23080
X47047Y22254
X47355Y22263
X47392Y22569
X47770Y23480
X48435Y23297
X48415Y22254
X48159Y22028
X48159Y19872
X49862Y19852
X49163Y19065
X48820Y17840
X48180Y17940
X51039Y15051
X49856Y10000
X47992Y9498
X47539Y9783
X47756Y10266
X47047Y10276
X46722Y9872
X46457Y9774
X46171
X45640Y10108
X45315Y10128
X44951Y10138
X44961Y9744
X44567Y10098
X44550Y12200
X44154Y12486
X43937Y12293
X45435Y12486
X47490Y10837
X41447Y11280
X41289Y11575
X41683
X40817Y11447
X40748Y11762
X39262Y11998
X39069Y11329
X38569
X38069
X37569
X37215
X36988Y11516
X36781Y11329
X36575Y11516
X36358Y11319
X36004
X36624Y12352
X37500Y11998
X38376Y12352
X38040Y13480
X36950Y13470
X37200Y14520
X37740
X37500Y15530
X37480Y16510
X38610
X38750Y15520
X38820Y17480
X37913
X37007
X36100
X35570Y18010
X35610Y16880
X36190Y16510
X35700Y15881
X35960Y15510
X36030Y14500
X36112Y9606
X36657
X37102
X37547
X37992
X38829Y10463
X39213
X41821Y14341
X41800Y14690
X41390Y14880
X41170Y16480
X40980Y16690
X41184Y17876
X40364Y18071
X39902Y17441
Y17156
X39075Y18474
X41630Y18470
X42380Y18120
Y17740
X41999Y17508
X42420Y23070
X42050Y24110
X41170Y23960
X40890
X40550Y24110
X40270Y23870
X39420Y24010
X39620Y23430
X39340Y22580
X38990Y21880
X38986Y21496
X39350Y20896
X37980Y21880
X37460Y21910
X36830Y21530
X36410Y22730
X36440Y23110
X35850Y23120
X35709Y23720
X36400Y23730
X36110Y24180
X36500Y24760
X35530Y24600
X37970Y24730
X38490Y24710
X39960Y24760
X50098Y23514
X35069Y23730
X34500Y22910
X34390Y22430
X34000Y22000
X34420Y21500
X33000Y22000
X32480Y22050
X32000Y22000
X31520Y22090
X31000Y22000
X30480Y22200
X30000Y22000
X29510Y22180
X29000Y22000
X28450Y22170
X28000Y22000
X27550Y22300
X27500Y23000
X28500
X29500
X30500
X31500
X32500
X33490Y23010
X33450Y24730
X32490
X31490Y24750
X30460Y24730
X29490
X28490Y24720
X27470Y24740
X26390Y24680
X24480Y24750
X23490Y24730
X22490Y24750
X21480Y24740
X20490Y24720
X20500Y23000
X21500
X22500
X23500
X24500
X24520Y22000
X25000
X24000
X23550Y21800
X23000Y22000
X22570Y21780
X22000Y22000
X21570Y21750
X21000Y22000
X20570Y21790
X20390Y21310
X19900Y20800
X20910
X21890
X22870
X23920
X24910
X25830
X26750
X27120
X27750
X28200
X28880
X29310
X29930
X30930
X31680
X32120
X32590
X32618Y17884
X33071Y17530
Y16821
X33000Y15620
X32500
X31500
X31040Y15730
X30990Y16620
X30470
X29950
Y17343
X30463
X30977
X30470Y18067
X29950
Y18790
X28790Y18530
X28780Y17450
X28890Y16640
X29000Y15620
X29500
X30000
X29990Y14170
X29510Y14180
X31000Y14230
X31510
X32000Y14250
X32480
X33000Y14420
X33500Y14360
X33258Y11949
X33248Y11467
X33080Y9580
X31860Y9550
X30390Y9540
X30140Y11430
X29490Y11440
X28920Y11430
X28900Y12560
X29680Y12550
X29793Y12126
X26930Y12520
X26490Y12480
X26040Y12550
X25000Y12530
X24160Y12520
X23630Y12510
Y13040
Y13570
X23020
Y13040
Y12510
X22200Y12800
X22190Y13610
X22170Y14460
X22190Y15080
X22850Y15440
X22350Y15990
X22520Y16520
X22600Y17160
X22180Y17930
X22260Y18650
X22700Y18390
X23540Y18210
X23480Y18640
X24270Y18660
X24490Y18370
X25190Y18650
X25903
X26617
X27330
Y17850
X26617
X25903
X25190
X24540Y17370
X24075
X24030Y17000
X24530Y16760
X24560Y16120
X24530Y15290
X24050Y14750
X24250Y14500
X24800Y14470
X25690Y14600
X26677Y14634
X27570Y14620
X27590Y15270
X27030Y15370
X27190Y16490
X27370Y13930
X26662Y13502
X26290Y13480
X25890Y13500
X25260
X24675Y13395
X24270Y13490
X24110Y11480
X24675Y11575
X25120Y11420
X24940Y10630
X24520Y10580
X24080Y10710
X23770Y10340
X24340Y10130
X25180Y10140
X25400Y10610
X26150Y9990
X27220Y9970
X27766Y10049
X26900Y10900
X26990Y11420
X26160
X23230Y11510
X23180Y10580
X22680Y10920
X22150Y10770
X22240Y10070
X21600Y9740
X20830Y9480
X20020Y9580
X20190Y10590
X20210Y10920
X20820Y10910
X20980Y11920
X20960Y12640
X20500Y12270
X20130Y12670
X20130Y14220
X19999Y14475
X20689Y14240
X20580Y13930
X21090Y13920
X21060Y14520
X21020Y15300
X20120Y15350
X21110Y16880
X21120Y17880
X20640Y17610
X20180Y17870
X20000Y22000
X26470Y22100
X27000Y22000
X26470Y22730
X23750Y16500
Y16000
X22150Y11940
X22953Y9498
X31510Y16620
X35295Y19872
X19060Y20800
X19420Y21230
X19560Y21810
X19000Y22000
X18540Y21830
X18000Y22000
X17580Y22010
X16870Y22020
X16400Y22000
X15960Y21820
X15400Y22000
X14970Y21820
X14400Y22000
X13940Y21860
X13400Y22000
X12920Y21830
X12400Y22000
X11990Y21830
X11400Y22000
X10400Y22004
X9920Y21820
X9400Y22000
X8970Y21810
X8400Y22000
X7920Y21880
X7400Y22000
X6970Y21230
X6760Y20860
X6733Y20327
X7400Y20450
X7340Y20790
X7900Y21000
X8900
X9900
X10900
X11900
X12900
X13900
X14900
X15900
X16800Y21200
X17500
X18120Y20800
X18500Y21140
Y23000
X19500
X19480Y24740
X18520Y24730
X17210Y24580
X15860Y24750
X14900Y24730
X13890
X12890Y24720
X11890Y24710
X10890
X9900Y24730
X8890Y24740
X7910Y24710
X6810Y24700
X6290Y23740
X6910Y23000
X7900
X8900
X9900
X10900
X11900Y23000
X12900Y23000
X13900
X14900
X15900
X17210Y22760
X17400Y18000
X16920Y18010
X16400Y18000
X15400
X14400
X13880Y18000
X13400Y18000
X12900Y18050
X12400Y18000
X11890Y18130
X11400Y18000
X10930Y18140
X10400Y18000
X9400
X8400
X7900Y18500
X7400Y18000
X6930Y18300
X6900Y18940
X5990Y18950
X4724Y19065
X4242Y19016
X4790Y21450
X5070Y21320
X4580Y21870
X4810Y22120
X4590Y22930
X5210Y22960
X4760Y23590
X4658Y24032
X5030Y24700
X5940Y20810
X6410Y17740
X6660Y16360
X5680Y16340
X5250Y15470
X5300Y14940
X5280Y14180
X5870Y14290
X6140Y14700
X6191Y13789
X5246Y13238
X5531Y12037
X5269Y11487
X4560Y11470
X4326Y11795
X4216Y11080
X4925Y10493
X4774Y9616
X6683Y10010
X7382Y9715
X8850Y9490
X9134Y10758
X9650Y10560
X10500Y10460
X10540Y11020
X11390Y11180
X11570Y10750
X12726Y10930
X12750Y10100
X13290Y10470
X13580Y10700
X14040Y10850
X14110Y9910
X13500Y9680
X12180Y9520
X10330Y9390
X10300Y12150
X9940Y12160
X9580
X8330Y12290
X7250Y12310
X7421Y11713
X6929Y11772
X6339Y11890
X6300Y12360
X7264Y14803
X7220Y15560
X7520Y16762
X8002
X7880Y17160
X8950Y17440
X9910Y17400
X10230Y16740
X9880Y16410
X9587Y15896
X10530Y16220
X11320Y16680
X11880Y17190
X10910Y17480
X10896Y18996
X11900Y18986
X12904
X13927
X13910Y16710
X14610
X13050Y16490
X12589Y15394
X13652Y15404
X13810Y14770
X13290Y14810
X13000Y14470
X11900Y14600
X11410Y14350
X12500Y13530
X12320Y12460
X12800
X12900Y11870
X12210Y11950
X12230Y11620
X11140Y11737
X11250Y12460
X13610Y11480
X14120Y11850
X14438Y12627
X14410Y13260
X15280Y12972
X15433Y12608
X15748Y12411
X16093Y12539
X15857Y13026
X15857Y11958
X15580Y11960
X15000Y12230
X14850Y11210
X15090Y10690
X15860Y10630
X15640Y10380
X16180Y10250
X16525Y10052
X16870
X17343
X17344Y9776
X17350Y9420
X16550Y9480
X15830Y9450
X15190Y9630
X15640Y11060
X15876Y11369
X16841Y11594
Y11121
X17366
Y11594
Y12066
Y12539
X17891
Y12066
Y11594
Y11121
X18416
Y11594
Y12066
Y12539
X18465Y13543
X18672Y14113
X19189Y14240
X19430Y13671
X19666Y13867
X19715Y13513
X19347Y12983
X19340Y11790
X19770Y11910
X19800Y12210
X19500Y11050
X19020Y10800
X18563Y10043
X18540Y9650
X19140Y9450
X17796Y10043
X16841Y12066
Y12539
X17097Y13523
X16703Y14123
X16162Y13917
X16428Y14655
X16290Y15070
X15860Y14830
X15420Y14780
X15000Y14620
X14620Y14690
X15532Y15394
X16902Y14882
X17290Y15050
X17510Y15240
X17730Y15430
X18270Y15280
X18330Y14610
X17950Y14297
X17953Y14015
X19040Y14910
X19640Y15110
X18830Y16090
X17431Y16102
X16490Y16410
X16790Y16760
X18400Y18000
X18960Y17870
X19400Y18000
X19780Y17880
X9870Y18760
X8820Y18870
X9134Y13819
X4242Y14803
X4350Y15492
X3830Y15310
X3350Y15030
X3290Y14530
X3820Y14370
X3790Y13400
X3270Y13610
X4160Y13040
X3140Y11780
X2430Y11740
X2540Y10630
X2900Y10880
X3640Y10890
X1710Y10600
X1720Y10280
X1960Y9960
X1610Y9650
X430Y9460
X1980Y13240
X1970Y14490
X2450Y14390
X1240Y14410
X1132Y15128
X570Y15430
X500Y16500
X1080Y17010
X890Y17720
X1300Y17830
X1050Y18430
X2930Y18610
X3810Y18580
X3850Y19570
X3319Y19630
X3630Y20530
X3590Y20980
X2830Y21720
X2900Y22640
X2940Y23240
X2990Y23920
X3880Y24176
X4160Y24740
X2550Y24710
X1570Y24630
X1380Y24140
X1620Y23670
X1380Y23140
Y22640
Y22140
X400Y21720
X350Y24720
X3750Y22850
X3310Y17720
X2320Y17350
X2610Y16190
X2136Y15817
X1260Y15970
X3570Y16450
T04
X49220Y7046
X49771
X49495Y7834
X6581Y11335
T05
X45070Y7011
X45542
X46015
X46487
Y7484
X46015
X45542
X45070
Y7956
X45542
X46015
X46487
Y8429
X46015
X45542
X45070
T07
X11000Y500
X12000
X13000
Y1500
X12000
X11000
X14000
X15000
Y500
X14000
X16000
Y1500
X17000
X18000
Y500
X17000
X12000Y9000
X20000Y1500
Y500
X21000
Y1500
X22000
X23000
Y500
X22000
X24000
X25000
Y1500
X24000
Y23500
X23000
Y24500
X24000
X25000
Y23500
X27000
Y24500
X28000
X29000
X30000
Y23500
X31000
X32000
Y24500
X33000
Y23500
X34000
Y24500
X31000
X29000Y23500
X28000
X22000
X21000
Y24500
X22000
X20000
Y23500
X19000
X18000
Y24500
X19000
X16400
Y23500
X15400
Y24500
X14400
X13400
Y23500
X14400
X12400
X11400
X10400
Y24500
X11400
X12400
X9400
X8400
X7400
Y23500
X8400
X9400
X12000Y11000
Y10000
T08
X38580Y1270
X49250Y24000
T09
X23500Y15500
X23900Y18500
X23100
T10
X2954Y7590
Y16929
Y20157
T11
X5500Y3000
X26000Y5000
X38000Y3000
X35500Y22000
X50500Y18250
X26000Y16000
X6000Y22000
M30
