M48
;Layer_Color=9474304
;FILE_FORMAT=2:4
INCH,TZ
;TYPE=PLATED
T1F00S00C0.0039
;TYPE=NON_PLATED
%
T01
X3610Y3330
X4180Y3650
X3930Y5510
X3880Y8100
X4620Y7610
X4600Y6640
X4240Y6650
X4470Y6190
X4820Y5790
X4600Y5158
X4390Y5360
X4880Y4710
X5550Y6020
X7890Y6110
X8281Y6211
X8390Y5720
X7885Y5550
X7650Y5530
X7660Y4930
X7940Y4940
X8420Y4790
X8996Y4474
X8950Y4020
Y3730
X9394Y3416
X9900Y3430
X10350Y3500
X10370Y4280
X9906Y4004
X9640Y4410
X9770Y4890
X10410Y5070
X10260Y5270
X10496Y5494
X10480Y5750
X9720
X9810Y6211
X10840Y6220
X11110Y6020
X11150Y5480
X10910Y4850
X11312Y6402
X10389Y7119
X9880Y7230
X10200Y7810
X9590Y8120
X10120Y8890
X10730Y8960
X11780Y7600
X12570Y7740
X12610Y6800
X14410Y7450
X15390Y7800
X15530Y7940
X15118Y9158
X14550Y9010
X18160Y8830
X18318Y9192
X18890Y9340
X18123Y6147
X17980Y5600
X17480Y5410
X17640Y5210
X17330Y5810
X16870Y5950
X16400Y5220
X16140Y4180
X15560Y4160
X16840Y4200
X17540Y4170
X18310
X18745Y3975
X7820Y3730
X7780Y3310
X7150Y3990
X7310Y4850
X7550Y1510
X9183Y1530
X9400Y1820
X8970Y7250
X7830Y8990
X7100Y9120
X4740Y8930
X20880Y8370
X21290Y7590
X20600Y6510
X20510Y4140
X19950Y4170
X21520
X22460
X23510Y4180
X23500Y6460
X22940Y6780
X23860Y7060
X24180Y7595
X24290Y7770
X24740Y7950
X24880Y7360
X24710Y6760
X24650Y6510
X25830Y8400
X26970Y7650
X27130Y7760
X27090Y7260
X27597Y7457
X27650Y7900
X27700Y7030
X28290
X28440Y6220
X28600Y8640
X27810Y8700
X27390Y8840
X27520Y9250
X30400Y7750
X30370Y7437
X31220Y8030
X32085Y7595
X32020Y7440
X32600Y7540
X32630Y7740
X32660Y7260
X33210Y7070
X33170Y7910
X33850Y7780
X34930
X34650Y7130
X34500Y7270
X35140Y6920
Y5330
X35280Y5190
X35230Y8710
X34840Y8850
X34560Y9130
X34280Y9280
X30943Y4937
X30007Y5057
X35630Y4790
X35830Y4650
X38160Y4910
X38340Y5050
X38020Y5350
X38650Y4630
X38840Y4770
X39300Y4940
X39160Y5640
X39020Y5787
X39440Y6400
X39730Y7410
X41002Y7402
X39950Y8570
X42620
X42890Y8320
Y8820
X42760Y9080
X42900Y9320
X43450Y8820
Y8320
X47940
X47920Y7820
X47990Y9350
X47810Y9330
X47983Y5787
X48130Y5640
X48270Y5490
X45630Y5010
X41520Y5080
X41390Y4940
X35450Y7410
X35510Y10360
X35920Y11630
X35790Y13480
X35760Y13650
X36625Y13475
Y14325
X38375
X38375Y13535
X39350Y13290
X40625Y13535
X40480Y13680
X40340Y14325
X40200Y14470
X41390Y15250
X41400Y16100
X41510Y17020
X41120Y17440
X41160Y18480
X41530Y18860
X41520Y19560
X41890Y19240
X42290Y19070
X42320Y19470
X42040Y18620
X42250Y18400
X42050Y16590
X42540Y14860
X44100Y14780
X44210Y14916
X44597Y14877
Y15035
Y14563
Y14405
Y14248
Y14090
Y13933
Y13775
Y13618
X44755
X44912
X45070Y13618
X45227
X45385Y13618
X45542Y13618
X45700Y13618
X45857Y13618
X46015
X46172Y13618
X46330Y13618
X46487Y13618
X46645
X46802Y13618
X46950Y11517
X46830Y11250
Y11060
Y10870
X46930Y9810
X48120
X45950Y11630
X45949Y11829
X45650Y12180
X45320Y12020
X44830Y12112
X44790Y12350
X44650Y12260
X44380Y12700
X43980Y12120
X43320Y11680
X43180Y11540
X43040Y11400
X41190Y12120
X40880Y12110
X40740Y12250
X41050Y12390
X41190Y13110
X41330Y13540
X40630Y12836
X40230Y11820
X39670Y10940
X39530Y10800
X39670Y9800
X39490Y9530
X40600Y20070
X40797Y20217
X44210Y19360
X44140Y18740
X44130Y18140
X44700Y18080
X45630Y18220
X45740Y18000
X45880Y17900
X46270Y17940
X46480Y17480
X46966Y17470
X46790Y17740
X46550Y19500
X45700Y18980
X45630Y18620
X45779Y15980
X45857Y15822
X45700
X45542Y15822
X46015Y15822
X46172
X46330Y15822
X45150Y21530
X36970Y23060
X33503Y22667
X33240Y20670
X33250Y20460
X33240Y19980
X32685
X32695Y20460
X32140
X32130Y19980
X31470Y20050
X31030Y20440
X30475
X29920
X29430Y19450
X29390Y18910
X29250Y19050
X28480Y19310
X28340Y19190
X28000Y19050
X27420Y18910
X27560Y19880
X28140Y20280
X27780Y17570
X28300Y16535
X28520
Y16080
X28300
X29000Y14050
X30250Y14100
X31260Y14040
X32750Y14180
X33300Y12840
X33500Y12250
X32860Y11770
X33000Y11360
X32500Y11220
X33000Y10520
X33500Y10660
X33440Y10240
X33580Y10100
X33860Y9940
X34000Y9660
X34140Y10080
X34420Y10220
X35230Y10500
X35370Y10640
X34700Y11220
X34660Y14040
X34800Y14180
X31580Y12390
X30870Y11620
X30500Y11220
X30690Y10380
X31260Y9960
X31790Y10380
X32110Y10100
X32260Y10240
X31400Y11080
X28600Y10660
Y9840
X28590Y9470
X28310Y10100
X28130Y9990
X27770Y9700
X27480Y9690
X27320Y10800
X27170Y10940
X25972Y10690
X25650Y10520
X25440Y10240
X25890Y9680
X24070Y10380
X23400Y9390
X21890Y9990
X21650Y10130
X21420Y10270
X21180Y10410
X22500Y11250
X22640Y11390
X22780Y11620
X22950Y11220
X22520Y14750
X21890Y18200
X21750Y18340
X21610Y18480
X21470Y18620
X21330Y18760
X24940Y19590
X24800Y19740
X33800Y19860
X33940Y20000
X34080Y20140
X34220Y20280
X34360Y20420
X34500Y20560
X34660Y20700
X34800Y20840
X33830Y18820
X30000Y12940
X29500Y12800
X29240Y12860
X28800Y12850
X27710Y12880
X27340Y12870
X27540Y13330
X27960Y12090
X19347Y12597
X19119Y11751
X19076Y11594
X18976Y11436
X19020Y11250
X18652Y10728
X18494
X18337
X18180
X18022
X19562Y10608
X18957Y13522
X18180Y12932
X18022
X17865Y12932
X17707Y12932
X17550
X17510Y14510
X17730
X17290
X17070
X17570Y15650
X15530Y16390
X13660Y16430
X14090Y19800
X13150Y19810
X13540Y20330
X14460Y20430
X14960Y19940
X15840Y20080
X15410Y20520
X16310Y20570
X16710Y20220
X17190Y20690
X17560Y20320
X18660Y20490
X12540Y20360
X11550Y20290
X11280Y19810
X12000
X10220
X10630Y20230
X9640Y20240
X9360Y19810
X8850Y20130
X8340Y19920
X7780Y19990
X8090Y20420
X8170Y15090
Y14800
Y14340
X8920Y14330
X8950Y14910
X9410Y14880
X9690Y14370
X9530Y12470
X10741Y12291
X10504Y12010
X10000Y11030
X9390Y11200
X9920Y10260
X9940Y9620
X9018Y10022
X5547Y9887
X5930Y15060
X4730Y17910
X11770Y12230
X4140Y10800
X3440Y11220
X2850Y13270
X2980Y15580
X2650Y15770
X2450Y15570
X3680Y17160
X3860Y17900
X1640Y22000
X1510Y22400
X1690Y22650
X1500Y22890
X1690Y23150
M30
