M48
;Layer_Color=9474304
;FILE_FORMAT=2:4
INCH,TZ
;TYPE=PLATED
T2F00S00C0.0098
T3F00S00C0.0120
T5F00S00C0.0354
T6F00S00C0.0394
;TYPE=NON_PLATED
T7F00S00C0.0390
T8F00S00C0.0701
T9F00S00C0.1260
%
T02
X698Y285
X728Y1035
X280Y790
X1648Y1035
X1696Y1470
X2176Y1660
X2446Y2050
X2566Y2480
X2589Y3193
X1610Y3170
X1430Y4020
X1410Y4790
X1420Y5250
X1990Y5590
X2600Y5200
X3270Y5020
X3840Y4590
X3600Y3980
X3697Y2255
X4010Y1290
X3697Y255
X2697
X2140Y250
X1698Y255
X2636Y1130
X1192Y1720
X1510Y2090
X698Y2255
X330Y2700
X440Y3630
X540Y5060
X490Y6500
X580Y7540
X1010Y7170
X2198Y7255
X2120Y7890
X2000Y8600
X2198Y9255
X3070Y9200
X3950Y9280
X3580Y8540
X3360Y7980
X3290Y6420
Y6040
X2580Y6170
X1540Y6240
X1150Y8380
X460Y8580
X1280Y9290
X4360Y9280
X6090Y9200
X5800Y8840
X5640Y8080
X6340Y7980
X6820
X7490Y7960
X7700Y8700
X8000Y8500
X8320Y8480
X8880Y8650
X9700Y8680
X9252Y7352
X8900Y7530
X8710Y7060
X8350Y7130
X8320Y7430
X8010Y7440
X8090Y6830
X8850Y6710
X9570Y6970
X9506Y5964
X9230Y4890
X8318Y5428
X6970Y5374
X7070Y5070
X6180Y5400
X6240Y5890
X5920Y6000
X5300Y5930
X5260Y5480
X4970Y5430
X5100Y4410
X5370Y4310
X5840Y4510
X4640Y4030
X4260Y2920
X4330Y2140
X4260Y850
X4697Y285
X5698
X6697
X6600Y690
X6950Y880
Y1400
X6198Y1255
X6697Y2255
X7020Y2460
X7430Y2770
X7220Y3310
X8340
X9050
X9690Y2160
X10440Y2180
X10370Y1820
X10500Y1500
X10197Y1255
X9450Y1470
X8920Y1450
X8120Y1350
X7800Y1460
X7697Y285
X8698
X9697
X9310Y890
X10500Y500
X11520Y270
X11540Y1050
X11490Y1740
Y2590
X11530Y3340
X11510Y3930
X11310Y4350
X11780Y5070
X12060Y5000
X12550Y5100
X12470Y5570
X12380Y6230
X12159Y6855
X12210Y7290
X12180Y8000
X12150Y8420
X12400Y8290
X12830Y8490
X12770Y8920
X13330Y9200
X13370Y8530
X13050Y8160
X14010Y7920
X13750Y7270
X14040Y6990
X14540Y7110
X15520Y7120
X15430Y6270
Y5550
X15760Y5610
X15820Y5160
X15430Y4830
X15000Y4820
X14520Y4890
X13660Y4720
X13690Y5480
X13600Y6010
X13700Y6550
X13000Y6680
X11690Y5900
X11600Y5540
X11160Y5670
X10630Y5120
X10510Y2770
X11000Y3000
X12000
X12500Y3380
X12490Y3910
X12820Y4690
X13640Y3910
X13510Y2990
X14000Y3000
X14530Y2900
X15000Y3000
X15540Y2890
X15530Y3530
X16470Y3520
X16520Y2920
X17480
X18000Y3000
X18580Y2900
X18550Y3570
X19490
X19510Y2510
X19050Y2570
X19390Y1740
X19197Y1255
X19350Y480
X18698Y285
X18600Y910
X18550Y1700
X17500Y1770
X17540Y970
X17510Y250
X16480Y270
X16500Y1010
Y1790
X15480Y1780
X15540Y990
X15500Y260
X14500Y270
Y1000
Y1790
X13490Y1780
X13530Y1000
X13490Y270
X12490Y260
X12530Y1000
X12490Y1770
Y2540
X13000Y3000
X14530Y3600
X15000Y5540
X14510Y5990
X16310Y6210
X17100Y6190
X17740Y6210
X17730Y7200
X17100Y7220
X16540Y7130
X16590Y8220
X16610Y8740
X17370Y8770
X17048Y8382
X17802Y8417
X18430Y8390
X19090Y8420
X19510Y8360
Y6920
X19090Y7140
X19130Y6580
X18420Y6550
X18430Y7170
X18320Y5100
X18500Y4690
X19050Y4630
X19040Y5090
X17700Y4730
X17198Y5255
X16500Y4690
X17520Y3490
X15880Y8210
X15760Y8760
X14920Y8750
X14900Y7880
X14110Y8940
X11520Y8070
X10960Y7860
X7450Y9010
X7040Y6640
X6340Y6710
X5990Y7550
X20340Y6390
X20010Y5150
X20485Y4690
X21040Y5140
X21280Y5600
X21950Y5130
X21530Y4690
X22470
X22870Y5120
X23300Y4770
X23880Y4260
X24550Y4390
X25030Y4250
X24780Y5190
X24222Y6448
X23820Y6620
X23240Y6630
X22700
X22180Y6650
X21780Y6550
X21720Y7270
X22550Y7250
X23070Y7800
X23527Y7930
X23280Y8590
X22290Y8510
X21710
X24389Y8289
X24670Y8560
X24708Y9012
X25190Y8380
X24945Y7595
X26500Y8300
X26270Y8830
X27260Y8290
X27930Y8340
X28100Y9260
X29340Y9200
X29970Y9130
X30390Y8730
X29915Y8245
X29560Y8480
X29090Y8150
X29870Y7680
X29524Y6766
X29040Y6780
X28650Y6750
X28698Y6255
X29170Y6220
X29080Y5910
X29650Y5770
X29700Y5320
X30400Y5140
X30380Y5650
X30460Y6270
X31190Y6210
X31784Y6220
X32169Y6491
X32520Y6440
X32640Y5900
X33610Y5890
X34060Y6240
X34480Y6670
X34540Y5780
X34560Y5090
X34430Y3770
X35030Y3830
X34660Y3290
X34697Y2255
X35100Y1910
X34180Y1920
X33698Y2255
X33890Y1360
X33520Y1260
X33510Y680
X33698Y255
X34090Y860
X34660Y890
X34697Y255
X35350Y860
X32960Y1410
X32860Y1910
X32490Y2270
X32120Y1280
X31710Y1610
X31690Y820
X31697Y255
X30698
X29697Y285
X28698
X28950Y930
X28990Y1850
X29580Y1520
X30320Y1420
X31198Y1255
X31030Y1790
X30290Y3010
X29770Y3430
X29610Y3790
X30210Y3900
X28630Y3730
X28960Y3260
X28420Y2840
X28470Y2290
X28330Y1480
X27040Y1620
X26660Y1740
X26198Y1255
X25570Y1010
X25530Y1760
X25500Y2500
Y2870
X26090Y2880
X26070Y2500
X26860Y2530
X26840Y2880
X26970Y4200
X27250Y4820
X27740Y4970
X27840Y5780
X27270Y5730
X26830Y5880
X26590Y6630
X27160
X28450Y5730
X28810Y5320
X29699Y6421
X31320Y6700
X32025Y7100
X31840Y7930
X31800Y8440
X32030Y9130
X33000Y9100
X33200Y8600
X32770Y8560
X32710Y8240
X33830Y8360
X33890Y7400
X32650Y340
X27770Y280
X26697Y285
X25698
X24510Y260
X24490Y1010
Y1790
X24520Y2510
Y2980
X25000Y3000
X24000
X23520Y3100
X23510Y2500
X23520Y1790
X23530Y1020
X23490Y270
X22510Y250
X22480Y1020
X22470Y1780
X22520Y2510
X22530Y3160
X23000Y3000
X22000
X21510Y3150
X21490Y2530
X21510Y1790
Y1000
X21520Y330
X20520Y270
X20480Y1070
Y1790
X20500Y2540
X20560Y3170
X21000Y3000
X20000
X27970Y3240
X29510Y2840
X29480Y2310
X26970Y1020
X35698Y255
X36697
X37698
X37800Y1000
X37000
X36670Y1810
X36697Y2255
X36790Y3260
X37010Y3630
X36720Y4140
X37410Y4130
X38490Y4150
X39130Y4160
X39100Y4760
X39870Y4480
X41050Y4470
X41060Y4080
X41070Y3500
X40760Y3290
X40198Y3255
X39590Y3560
X39197Y3255
X38790Y2080
X39810Y2030
X40490Y2190
X40810Y2610
X41420Y2710
X41200Y1860
X41198Y1255
X40530Y1210
X40198Y1255
X39197
X38698Y285
X39697Y255
X40697
X41698Y285
X42698Y255
X43698
X44697
X45697Y285
X46698Y255
X47698Y285
X48900Y490
X49697Y285
X50697Y255
X50198Y1255
X51020Y1640
X50697Y2255
X49697
X49890Y2890
X50198Y3255
X49198
X49320Y4120
X49860Y4340
X50697Y4255
X51000Y3840
Y5790
X50697Y6255
X49960Y6520
X48870Y6710
X49110Y7400
X49040Y8040
X49930Y7940
X50970Y7510
X50940Y9320
X49250Y9110
X47230Y9140
X47110Y7490
X47270Y6760
X46780Y6920
X47030Y6060
X47698Y6255
X47720Y4960
X47698Y4255
X48320Y4130
X48197Y3255
X48120Y2840
X47710
X47698Y2255
X47470Y1820
X47170Y1840
X47197Y1255
X46430Y1810
X45630
X44620Y1780
X44000Y1460
X43197Y1255
X43020Y2270
Y2810
X43197Y3255
X44198
X44030Y2820
X43698Y2255
X42360Y1870
X42197Y3255
X41680Y4150
X41810Y5130
X42950Y5090
X43570Y4900
X44110Y5080
X44200Y4100
X43698Y4255
X42790Y4110
X42960Y6200
X43110Y6710
X42600
X42583Y7370
X43083Y7377
X43583
X44060Y7440
X43810Y6950
X43698Y6255
X44950Y6940
X45490Y7120
X45630Y6780
X45680Y7550
X48030Y7270
X48520Y5740
X48350Y5180
X49198Y5255
X49290Y5740
X50198Y5255
X47197
X46198
X45200Y5130
X45570Y4100
X46600Y4140
X46198Y3255
X47197
X47080Y2830
X45198Y3255
X48770Y1850
X37890Y1720
X37460Y1830
X36055Y3275
X36150Y3600
X36760Y5730
X37400Y5770
X37080Y6390
X36600Y6840
X37770Y6850
X38340Y6400
X38841Y6220
X39540Y6030
X39670Y6520
X39750Y6830
X40022Y6220
X40810Y6570
X41203Y6220
X41450Y6690
X41910Y6780
X41550Y7180
X41230Y7030
X41270Y7610
X41820Y7620
Y8010
X41800Y8380
X42000Y9160
X41300Y9130
X40590Y8340
X40310Y8070
X40030Y7800
X38650Y7520
X38379Y7451
X38140Y7860
X38580Y8480
X37340
X36250
X36180Y7900
X35839Y7451
X35630Y6220
X37050Y7680
X51698Y18255
X52400Y18250
Y19250
X51198Y19255
X51460Y23250
X52400
Y24250
X51698Y24255
X50697
X49697
X48698
X47698
X47770Y23480
X48360Y23090
X49198Y23255
X50198
X47343Y22823
Y22263
X47110Y22030
X46990Y21190
X46440Y21220
X46080Y21249
X45880Y21050
X46350Y20720
X47060Y20640
X47730Y20681
X47420Y19930
X46740Y19940
X46660Y20240
X46290Y19920
X45690Y19720
X45480Y19540
X45270Y19360
X45060Y19180
X44850Y19000
X44540Y18470
X44520Y17530
X44007Y17712
X43564
X43564Y16838
X43560Y16040
X43260Y15940
X42740Y15850
X42885Y15388
X43600Y14910
X43033Y14169
X42620Y14170
X41750Y14210
X41800Y14690
X41390Y14880
X41170Y16480
X40980Y16690
X41184Y17876
X41630Y18470
X41230Y19000
Y19360
Y19720
X41010Y19540
Y19180
Y18820
X41040Y19980
X41170Y20290
X41130Y20620
X40540Y20640
X39860Y20950
X39680Y21160
X39500Y21560
X39290Y21380
X38990Y21880
X39740Y21830
X40520Y21880
X40697Y22255
X41150Y22650
X41198Y23255
X41170Y23960
X40890
X40550Y24110
X40270Y23870
X40198Y23255
X40280Y22730
X39340Y22580
X39620Y23430
X39420Y24010
X39960Y24760
X38490Y24710
X37970Y24730
X36500Y24760
X36110Y24180
X36400Y23730
X36440Y23110
X36410Y22730
X35850Y23120
X35530Y24600
X36830Y21530
X37460Y21910
X37980Y21880
X41420Y21840
X40980Y21370
X41864Y21170
X41860Y20040
X41470Y20030
X42180Y19920
X42260Y20190
X43260Y19913
X44220Y19930
X44040Y20380
X43824Y20674
X44510Y20790
X44697Y20255
X45697
X45240Y20860
X44867Y21837
X44460Y21770
X43684Y22199
X43860Y23090
X44000Y24100
X44800Y24030
X45820Y24140
X46698Y24255
X46970Y23080
X46198Y23255
X46120Y22570
X45570Y22310
X44870Y22670
X45198Y23255
X42420Y23070
X42050Y24110
X42970Y21034
X42380Y18120
Y17740
X41999Y17508
X42592Y16838
X44360Y16980
X45099Y17063
X45365Y16482
X46615Y16708
X46861Y16413
X47550Y16679
X47830Y16850
X47954Y16511
X47847Y16039
X47531
X47344Y15694
X47964Y15724
X48270Y15660
X48410Y15420
X48830
X49410
X49430Y14810
X48814
X48780Y14430
X48690Y14090
X49010Y13820
X49510Y13360
X50198Y13255
X50920Y13120
Y14120
X49750
X50166Y14810
X50156Y15420
X50610Y15910
X50697Y16255
X51020Y16040
X50900Y17000
X50190Y16670
X49830Y17140
X49198Y17255
X48660Y17140
X48730Y16840
X49180Y16450
X49190Y16070
X49697Y16255
X48820Y17840
X48698Y18255
X48180Y17940
X47786Y17643
X47220Y17670
X47100Y18100
X46740Y18370
X46320Y18360
X46290Y18820
X46720Y19020
X47420Y18970
X47698Y18255
X48197Y19255
X49198
X48197Y17255
X47880Y15420
X47930Y14670
X48280Y14810
X48347Y14366
X47550Y14494
X47324Y14917
X47570Y13653
X47890Y13450
X48190Y13160
X48290Y12650
X48300Y12060
X48390Y11790
X48670
Y11510
X48950
Y11230
X49230
X49720Y11000
X50198Y11255
X50930Y11320
X50697Y12255
X49720Y12230
X49480Y10430
X48540Y10560
X48220Y10120
X47750Y10100
Y10480
X47340Y10520
X46920Y10680
X46470Y9910
X46790Y9580
X45320Y9600
X44200
X42000Y9610
X40670Y11040
Y11320
X41050Y11440
X40290Y11620
X40270Y11020
X41770Y12350
X41590Y13190
X42040Y13200
X42940Y13210
X43381Y13155
X43803Y12888
X44282Y12893
X44636
X45121
X45592
X46044
X46822
X46615Y12486
X47370Y12690
X47390Y12160
X47340Y11820
X48020Y11810
X47830Y12390
X47510Y13140
X45435Y12486
X44154
X43330Y12350
X42840
X38040Y13480
X36950Y13470
X37200Y14520
X37740
X37500Y15530
X37480Y16510
X38610
X38750Y15520
X38820Y17480
X37913
X37007
X36100
X35570Y18010
X35610Y16880
X36190Y16510
X35700Y15920
X35960Y15510
X36030Y14500
X36705Y9600
X37470
X38380Y9620
X39320Y17900
X46069Y17693
X46202Y17446
X49940Y9660
X50697Y10255
X33080Y9580
X31860Y9550
X30390Y9540
X30140Y11430
X29490Y11440
X28920Y11430
X27990Y11410
X26990Y11420
X26900Y10900
X27220Y9970
X27070Y9506
X26150Y9990
X25180Y10140
X25400Y10610
X24940Y10630
X24520Y10580
X24080Y10710
X23770Y10340
X24340Y10130
X24110Y11480
X24675Y11575
X25120Y11420
X26160
X26040Y12550
X26490Y12480
X26930Y12520
X26662Y13502
X26290Y13480
X25890Y13500
X25260
X24675Y13395
X24270Y13490
X23630Y13570
Y13040
Y12510
X24160Y12520
X25000Y12530
X23020Y12510
Y13040
Y13570
X22190Y13610
X22200Y12800
X22150Y11940
Y10770
X22680Y10920
X23180Y10580
X22990Y9850
X22240Y10070
X21600Y9740
X20830Y9480
X20020Y9580
X20190Y10590
X20210Y10920
X20820Y10910
X20980Y11920
X20960Y12640
X20500Y12270
X20130Y12670
X20130Y14220
X19999Y14475
X20689Y14240
X20580Y13930
X21090Y13920
X21060Y14520
X21020Y15300
X20770Y15970
X20780Y16300
X20490Y16400
X21110Y16880
X21120Y17880
X20640Y17610
X20180Y17870
X22180Y17930
X22260Y18650
X22700Y18390
X23540Y18210
X23480Y18640
X24270Y18660
X24490Y18370
X25190Y18650
X25903
X26617
X27330
Y17850
X26617
X25903
X25190
X25198Y17255
X24540Y17370
X24075
X24030Y17000
X24530Y16760
X24560Y16120
X24530Y15290
X24050Y14750
X24250Y14500
X24800Y14470
X25690Y14600
X26677Y14634
X27570Y14620
X27590Y15270
X27030Y15370
X27190Y16490
X27197Y17255
X26198
X28780Y17450
X28890Y16640
X29950Y16620
X30470
X30990
X31510
X32120Y16580
X32560Y16750
X32698Y16255
X33020Y16250
X33000Y15620
X32500
X31500
X31040Y15730
X30000Y15620
X29500
X29000
X29510Y14180
X29990Y14170
X31000Y14230
X31510
X32000Y14250
X32480
X33000Y14420
X33500Y14360
X32040Y12580
X30240Y12430
X29680Y12550
X28900Y12560
X27370Y13930
X23698Y14255
X22170Y14460
X22190Y15080
X22850Y15440
X22350Y15990
X22520Y16520
X22600Y17160
X23750Y16500
Y16000
X20120Y15350
X19900Y20800
X20390Y21310
X20570Y21790
X21000Y22000
X21570Y21750
X22000Y22000
X22570Y21780
X23000Y22000
X23550Y21800
X24000Y22000
X24520
X25000
X25698Y22255
X26470Y22100
X27000Y22000
X27550Y22300
X28000Y22000
X28450Y22170
X29000Y22000
X29510Y22180
X30000Y22000
X30480Y22200
X31000Y22000
X31520Y22090
X32000Y22000
X32480Y22050
X33000Y22000
X34000
X34390Y22430
X34500Y22910
X34790Y23480
X35190Y23720
X34697Y24255
X33450Y24730
X32490
X31490Y24750
X30460Y24730
X29490
X28490Y24720
X27470Y24740
X26390Y24680
X25698Y24255
X26198Y23255
X26470Y22730
X27500Y23000
X28500
X29500
X30500
X31500
X32500
X33490Y23010
X34420Y21500
X32590Y20800
X32120
X31680
X30930
X29930
X29310
X28880
X28200
X27750
X27120
X26750
X25830
X24910
X23920
X22870
X21890
X20910
X20000Y22000
X20500Y23000
X21500
X22500
X23500
X24500
X24480Y24750
X23490Y24730
X22490Y24750
X21480Y24740
X20490Y24720
X28790Y18530
X29950Y18790
X30470Y18790
X30990
X31510
Y18067
X30990
X30470
X29950
Y17343
X30463
X30977
X31490
X32090Y17480
X32610Y17470
X32140Y18360
X33187Y18813
X23230Y11510
X19770Y11910
X19800Y12210
X19340Y11790
X19500Y11050
X19020Y10800
X18563Y10043
X18540Y9650
X19140Y9450
X17350Y9420
X17344Y9776
X17343Y10052
X17796Y10043
X16870Y10052
X16525
X16180Y10250
X15640Y10380
X15860Y10630
X15640Y11060
X15876Y11369
X15857Y11958
X15580Y11960
X15748Y12411
X16093Y12539
X15857Y13026
X15280Y13070
X15433Y12608
X15000Y12230
X14438Y12627
X14410Y13260
X14620Y14690
X15000Y14620
X15420Y14780
X15860Y14830
X16290Y15070
X16428Y14655
X16902Y14882
X17290Y15050
X17510Y15240
X17730Y15430
X18030Y15670
X18270Y15280
X18330Y14610
X17950Y14297
X17953Y14015
X18672Y14113
X19189Y14240
X19430Y13671
X19666Y13867
X19715Y13513
X19347Y12983
X18465Y13543
X17097Y13523
X16703Y14123
X16162Y13917
X15530Y15440
X13720Y15470
X13810Y14770
X13290Y14810
X13000Y14470
X12820Y15470
X12210Y15170
X11900Y14600
X11440Y14680
X11410Y14350
X12500Y13530
X12320Y12460
X12800
X12900Y11870
X12210Y11950
X12230Y11620
X12726Y10930
X12750Y10100
X13290Y10470
X13580Y10700
X14040Y10850
X14110Y9910
X13500Y9680
X12180Y9520
X11570Y10750
X11390Y11180
X11140Y11737
X11250Y12460
X10300Y12150
X9940Y12160
X9580
X8856Y11884
X8730Y11220
X8790Y10780
X9650Y10560
X10500Y10460
X10540Y11020
X10330Y9390
X8850Y9490
X7960Y9460
X7170Y9820
X6970Y10070
X6540Y11210
X6130Y11190
X6340Y11790
X6300Y12360
X6697Y12255
X7250Y12310
X7220Y11800
X8350Y11570
X8330Y12290
X9190Y14600
X7750Y15170
X7250Y14870
X7230Y14410
X6610Y14480
X6140Y14700
X5870Y14290
X5280Y14180
X5300Y14940
X5250Y15470
X4560Y15480
X4500Y14500
X4780Y13590
X4326Y11795
X4560Y11470
X4650Y10990
X5060
X5360Y11150
X5296Y11670
X4216Y11080
X4670Y9660
X5020
X5680Y16340
X6660Y16360
X7180Y15890
X7220Y15560
X7840Y16290
X7880Y17160
X7960Y18010
X8400Y18000
X7900Y18500
X7400Y18000
X6930Y18300
X6900Y18940
X5990Y18950
X4800Y19000
X4790Y21450
X5070Y21320
X4580Y21870
X4810Y22120
X4590Y22930
X5210Y22960
X5197Y23255
X4760Y23590
X4658Y24032
X5030Y24700
X5698Y24255
X6697
X6810Y24700
X7910Y24710
X8890Y24740
X9900Y24730
X10890Y24710
X11890
X12890Y24720
X13890Y24730
X14900
X15860Y24750
X17210Y24580
X17198Y23255
X17210Y22760
X16870Y22020
X16400Y22000
X15960Y21820
X15400Y22000
X14970Y21820
X14400Y22000
X13940Y21860
X13400Y22000
X12920Y21830
X12400Y22000
X11990Y21830
X11400Y22000
X10400Y22004
X9920Y21820
X9400Y22000
X8970Y21810
X8400Y22000
X7920Y21880
X7400Y22000
X6970Y21230
X6760Y20860
X6733Y20327
X7400Y20450
X7340Y20790
X7900Y21000
X8900
X9900
X10900
X11900
X12900
X13900
X14900
X15900
X16800Y21200
X17500
X17580Y22010
X18000Y22000
X18540Y21830
X19000Y22000
X19560Y21810
X19420Y21230
X19060Y20800
X18500Y21140
X18120Y20800
X18500Y23000
X19500
X19480Y24740
X18520Y24730
X15900Y23000
X14900
X13900
X12900
X11900Y23000
X10900Y23000
X9900
X8900
X7900
X6910
X6198Y23255
X6290Y23740
X5940Y20810
X6410Y17740
X8950Y17440
X9910Y17400
X10230Y16740
X9880Y16410
X10530Y16220
X11320Y16680
X11880Y17190
X11890Y18130
X11400Y18000
X10930Y18140
X10400Y18000
X9400
X9870Y18760
X8820Y18870
X10910Y17480
X12400Y18000
X12900Y18050
X13400Y18000
X13880Y18000
X14400Y18000
X15400
X16400
X16920Y18010
X17400Y18000
X18400Y18000
X18960Y17870
X19400Y18000
X19780Y17880
X18830Y16090
X19040Y14910
X19640Y15110
X17430Y16210
X16490Y16410
X16790Y16760
X14610Y16710
X13910
X13050Y16490
X11920Y16190
X13610Y11480
X14120Y11850
X14850Y11210
X15090Y10690
X15190Y9630
X15830Y9450
X16550Y9480
X3640Y10890
X2900Y10880
X2540Y10630
X1710Y10600
X1720Y10280
X1960Y9960
X1610Y9650
X430Y9460
X2430Y11740
X3140Y11780
X3270Y13610
X3790Y13400
X4160Y13040
X3820Y14370
X3290Y14530
X3350Y15030
X3830Y15310
X3570Y16450
X2610Y16190
X1698Y16255
X1260Y15970
X1198Y15255
X570Y15430
X500Y16500
X1080Y17010
X890Y17720
X1300Y17830
X1698Y18255
X1050Y18430
X1198Y19255
X1804
X1698Y20255
X698
X1198Y21255
X2198
X2830Y21720
X2900Y22640
X2940Y23240
X2990Y23920
X3820Y23700
X3960Y24260
X3880Y24570
X4160Y24740
X2550Y24710
X1570Y24630
X1380Y24140
X1620Y23670
X1380Y23140
Y22640
Y22140
X400Y21720
X350Y24720
X3750Y22850
X3590Y20980
X3630Y20530
X3850Y19570
X3319Y19630
X2930Y18610
X3810Y18580
X3310Y17720
X2320Y17350
X1960Y15120
X1970Y14490
X2450Y14390
X1240Y14410
X1980Y13240
T03
X45299Y7979
X45693
X46087
Y8373
Y8767
X45693
Y8373
X45299
Y8767
Y9161
X45693
X46087
X46041Y14011
Y14484
Y14956
Y15429
X45516
Y14956
Y14484
Y14011
X44991
Y14484
Y14956
Y15429
X46566
Y14956
Y14484
Y14011
X18416Y12539
Y12066
Y11594
Y11121
X17891
Y11594
Y12066
Y12539
X17366
Y12066
Y11594
Y11121
X16841
Y11594
Y12066
Y12539
T05
X3220Y4490
Y5490
X11000Y1500
X12000
X13000
Y500
X12000
X11000
X14000
X15000
Y1500
X14000
X16000
Y500
X17000
X18000
Y1500
X17000
X12000Y9000
X20000Y1500
Y500
X21000
Y1500
X22000
X23000
Y500
X22000
X24000
X25000
Y1500
X24000
Y23500
X23000
Y24500
X24000
X25000
Y23500
X27000
Y24500
X28000
X29000
X30000
Y23500
X31000
X32000
Y24500
X33000
Y23500
X34000
Y24500
X31000
X29000Y23500
X28000
X22000
X21000
Y24500
X22000
X20000
Y23500
X19000
X18000
Y24500
X19000
X16400
Y23500
X15400
Y24500
X14400
X13400
Y23500
X14400
X12400
X11400
X10400
Y24500
X11400
X12400
X9400
X8400
X7400
Y23500
X8400
X9400
X12000Y11000
Y10000
T06
X38580Y1270
X49250Y24000
T07
X23500Y15500
X23900Y18500
X23100
T08
X2954Y7590
Y16929
Y20157
T09
X5500Y3000
X26000Y5000
X38000Y3000
X35500Y22000
X50500Y18250
X26000Y16000
X6000Y22000
M30
