G04*
G04 #@! TF.GenerationSoftware,Altium Limited,Altium Designer,21.3.2 (30)*
G04*
G04 Layer_Color=8421504*
%FSLAX24Y24*%
%MOIN*%
G70*
G04*
G04 #@! TF.SameCoordinates,6AA30765-9C08-4FBD-BEF0-21A24CA35A80*
G04*
G04*
G04 #@! TF.FilePolarity,Positive*
G04*
G01*
G75*
%ADD33O,0.0787X0.0591*%
G04:AMPARAMS|DCode=34|XSize=43.3mil|YSize=39.4mil|CornerRadius=3mil|HoleSize=0mil|Usage=FLASHONLY|Rotation=180.000|XOffset=0mil|YOffset=0mil|HoleType=Round|Shape=RoundedRectangle|*
%AMROUNDEDRECTD34*
21,1,0.0433,0.0335,0,0,180.0*
21,1,0.0374,0.0394,0,0,180.0*
1,1,0.0059,-0.0187,0.0167*
1,1,0.0059,0.0187,0.0167*
1,1,0.0059,0.0187,-0.0167*
1,1,0.0059,-0.0187,-0.0167*
%
%ADD34ROUNDEDRECTD34*%
%ADD35O,0.0591X0.0787*%
%ADD36R,0.0138X0.0118*%
%ADD37R,0.0138X0.0098*%
%ADD38R,0.0551X0.0197*%
%ADD39R,0.0366X0.0445*%
%ADD40R,0.0315X0.0118*%
%ADD41R,0.0197X0.0148*%
%ADD42R,0.0138X0.0138*%
%ADD43R,0.0138X0.0098*%
%ADD44R,0.0138X0.0059*%
%ADD45R,0.0108X0.0118*%
%ADD46R,0.0500X0.0300*%
%ADD47R,0.1000X0.1051*%
%ADD48R,0.0394X0.0630*%
%ADD49O,0.0551X0.0157*%
%ADD50C,0.0093*%
%ADD51O,0.0071X0.0240*%
%ADD52O,0.0240X0.0071*%
%ADD53R,0.0453X0.0177*%
%ADD54R,0.1083X0.0551*%
%ADD55R,0.0106X0.0118*%
%ADD56R,0.0118X0.0106*%
%ADD57R,0.1252X0.0500*%
%ADD58R,0.0236X0.1024*%
%ADD59R,0.0118X0.0315*%
%ADD60R,0.0256X0.0197*%
%ADD61R,0.0335X0.0394*%
%ADD62R,0.0335X0.0236*%
%ADD63R,0.0315X0.0295*%
%ADD64R,0.0472X0.0630*%
%ADD65R,0.0299X0.0945*%
%ADD66R,0.1500X0.0500*%
%ADD67R,0.0402X0.0862*%
%ADD68R,0.0394X0.0591*%
%ADD69R,0.0394X0.0335*%
%ADD70R,0.0236X0.0335*%
%ADD71R,0.0551X0.0630*%
%ADD72R,0.0610X0.0748*%
%ADD73R,0.0531X0.0157*%
%ADD74C,0.0394*%
%ADD75R,0.0295X0.0315*%
%ADD76R,0.0709X0.0472*%
%ADD77R,0.0610X0.0236*%
%ADD78R,0.0098X0.0157*%
%ADD79R,0.0276X0.0157*%
%ADD80R,0.0138X0.0354*%
%ADD81R,0.1063X0.0315*%
%ADD82R,0.0177X0.0165*%
%ADD83R,0.0362X0.0280*%
%ADD84R,0.0217X0.0236*%
%ADD85R,0.0138X0.0098*%
%ADD86R,0.0138X0.0059*%
%ADD87R,0.0551X0.0236*%
%ADD88R,0.0669X0.0236*%
%ADD89R,0.0098X0.0142*%
%ADD90R,0.0300X0.0320*%
%ADD91R,0.0197X0.0236*%
%ADD92R,0.0283X0.0413*%
%ADD93R,0.0315X0.0295*%
%ADD94R,0.0228X0.0197*%
%ADD95R,0.0320X0.0300*%
%ADD96R,0.0157X0.0098*%
%ADD97R,0.0157X0.0276*%
%ADD98C,0.0167*%
%ADD99C,0.0098*%
%ADD100R,0.0295X0.0551*%
%ADD101R,0.0236X0.0197*%
%ADD102R,0.0335X0.0374*%
%ADD103R,0.0413X0.0283*%
%ADD104R,0.0118X0.0138*%
%ADD105R,0.0157X0.0531*%
%ADD106R,0.0748X0.0610*%
%ADD107R,0.0630X0.0551*%
%ADD108R,0.0354X0.0138*%
%ADD109R,0.0945X0.0299*%
%ADD110R,0.0197X0.0256*%
G36*
X11334Y8518D02*
Y8282D01*
X11078Y8026D01*
X10291D01*
X10035Y8282D01*
Y8518D01*
X10291Y8774D01*
X11078D01*
X11334Y8518D01*
D02*
G37*
D33*
X1400Y11201D02*
D03*
Y13799D02*
D03*
D34*
X46546Y14011D02*
D03*
X46034D02*
D03*
X45523D02*
D03*
X45011D02*
D03*
Y14484D02*
D03*
X45523D02*
D03*
X46034D02*
D03*
X46546D02*
D03*
X45011Y14956D02*
D03*
X45523D02*
D03*
X46034D02*
D03*
X46546D02*
D03*
X45011Y15429D02*
D03*
X45523D02*
D03*
X46034D02*
D03*
X46546D02*
D03*
X18396Y11121D02*
D03*
X17884D02*
D03*
X17372D02*
D03*
X16861D02*
D03*
Y11594D02*
D03*
X17372D02*
D03*
X17884D02*
D03*
X18396D02*
D03*
X16861Y12066D02*
D03*
X17372D02*
D03*
X17884D02*
D03*
X18396D02*
D03*
X16861Y12539D02*
D03*
X17372D02*
D03*
X17884D02*
D03*
X18396D02*
D03*
D35*
X44303Y23600D02*
D03*
X41704D02*
D03*
D36*
X4360Y9887D02*
D03*
Y10143D02*
D03*
X5360D02*
D03*
Y9887D02*
D03*
X9292Y5308D02*
D03*
X9036D02*
D03*
X8780D02*
D03*
Y5997D02*
D03*
X9036D02*
D03*
X9292D02*
D03*
D37*
X5360Y10399D02*
D03*
Y10596D02*
D03*
Y10793D02*
D03*
X4360D02*
D03*
Y10596D02*
D03*
Y10399D02*
D03*
D38*
X4860Y10025D02*
D03*
Y10655D02*
D03*
D39*
X46138Y8046D02*
D03*
Y8570D02*
D03*
Y9094D02*
D03*
X45693Y8046D02*
D03*
Y8570D02*
D03*
Y9094D02*
D03*
X45248Y8046D02*
D03*
Y8570D02*
D03*
Y9094D02*
D03*
D40*
X8160Y8137D02*
D03*
X8160Y7783D02*
D03*
D41*
X8160Y8162D02*
D03*
Y7758D02*
D03*
D42*
X7776Y8177D02*
D03*
D43*
Y7960D02*
D03*
Y7763D02*
D03*
X8544D02*
D03*
Y7960D02*
D03*
Y8157D02*
D03*
D44*
X4360Y10793D02*
D03*
Y10596D02*
D03*
Y10399D02*
D03*
X5360D02*
D03*
Y10596D02*
D03*
Y10793D02*
D03*
D45*
X4360Y10143D02*
D03*
Y9887D02*
D03*
X5360D02*
D03*
Y10143D02*
D03*
D46*
X7680Y9810D02*
D03*
D47*
Y10736D02*
D03*
D48*
X8809Y2328D02*
D03*
X8120D02*
D03*
X7431D02*
D03*
Y872D02*
D03*
X8120D02*
D03*
X8809D02*
D03*
X34677Y1354D02*
D03*
X35366D02*
D03*
X36055D02*
D03*
Y2811D02*
D03*
X35366D02*
D03*
X34677D02*
D03*
X19910Y6913D02*
D03*
X20599D02*
D03*
X21288D02*
D03*
Y8370D02*
D03*
X20599D02*
D03*
X19910D02*
D03*
D49*
X10981Y9766D02*
D03*
Y10022D02*
D03*
Y10278D02*
D03*
Y10534D02*
D03*
X8659Y9766D02*
D03*
Y10022D02*
D03*
Y10278D02*
D03*
Y10534D02*
D03*
D50*
X11779Y6845D02*
D03*
X11937D02*
D03*
X11779Y6687D02*
D03*
X11937D02*
D03*
X20921Y16031D02*
D03*
Y16189D02*
D03*
X21079Y16031D02*
D03*
Y16189D02*
D03*
X10741Y11871D02*
D03*
Y12029D02*
D03*
X10899Y11871D02*
D03*
Y12029D02*
D03*
X42111Y17851D02*
D03*
Y18009D02*
D03*
X42269Y17851D02*
D03*
Y18009D02*
D03*
X7991Y5259D02*
D03*
X8149D02*
D03*
X7991Y5101D02*
D03*
X8149D02*
D03*
X7991Y5814D02*
D03*
X8149D02*
D03*
X7991Y5656D02*
D03*
X8149D02*
D03*
X9259Y6961D02*
D03*
X9101D02*
D03*
X9259Y7119D02*
D03*
X9101D02*
D03*
X7991Y6369D02*
D03*
X8149D02*
D03*
X7991Y6211D02*
D03*
X8149D02*
D03*
X10149Y6961D02*
D03*
X9991D02*
D03*
X10149Y7119D02*
D03*
X9991D02*
D03*
X46929Y20351D02*
D03*
X46771D02*
D03*
X46929Y20509D02*
D03*
X46771D02*
D03*
D51*
X27310Y7034D02*
D03*
X27152D02*
D03*
X26995D02*
D03*
X26837D02*
D03*
Y7999D02*
D03*
X26995D02*
D03*
X27152D02*
D03*
X27310D02*
D03*
X32836Y7034D02*
D03*
X32679D02*
D03*
X32521D02*
D03*
X32364D02*
D03*
Y7999D02*
D03*
X32521D02*
D03*
X32679D02*
D03*
X32836D02*
D03*
X30073Y7034D02*
D03*
X29915D02*
D03*
X29758D02*
D03*
X29600D02*
D03*
Y7999D02*
D03*
X29758D02*
D03*
X29915D02*
D03*
X30073D02*
D03*
X24546Y7034D02*
D03*
X24389D02*
D03*
X24231D02*
D03*
X24074D02*
D03*
Y7999D02*
D03*
X24231D02*
D03*
X24389D02*
D03*
X24546D02*
D03*
D52*
X26749Y7280D02*
D03*
Y7437D02*
D03*
Y7595D02*
D03*
Y7752D02*
D03*
X27398D02*
D03*
Y7595D02*
D03*
Y7437D02*
D03*
Y7280D02*
D03*
X32275D02*
D03*
Y7437D02*
D03*
Y7595D02*
D03*
Y7752D02*
D03*
X32925D02*
D03*
Y7595D02*
D03*
Y7437D02*
D03*
Y7280D02*
D03*
X29512D02*
D03*
Y7437D02*
D03*
Y7595D02*
D03*
Y7752D02*
D03*
X30161D02*
D03*
Y7595D02*
D03*
Y7437D02*
D03*
Y7280D02*
D03*
X23985D02*
D03*
Y7437D02*
D03*
Y7595D02*
D03*
Y7752D02*
D03*
X24635D02*
D03*
Y7595D02*
D03*
Y7437D02*
D03*
Y7280D02*
D03*
D53*
X46784Y7820D02*
D03*
Y8320D02*
D03*
Y8820D02*
D03*
Y9320D02*
D03*
X44602Y7820D02*
D03*
Y8320D02*
D03*
Y8820D02*
D03*
Y9320D02*
D03*
D54*
X30309Y985D02*
D03*
Y2560D02*
D03*
X27651Y985D02*
D03*
Y2560D02*
D03*
X48904Y985D02*
D03*
Y2560D02*
D03*
X46247Y985D02*
D03*
Y2560D02*
D03*
X44864Y985D02*
D03*
Y2560D02*
D03*
X42207Y985D02*
D03*
Y2560D02*
D03*
X46247Y6232D02*
D03*
Y4657D02*
D03*
X48904Y6232D02*
D03*
Y4657D02*
D03*
X42207Y6232D02*
D03*
Y4657D02*
D03*
X44864Y6232D02*
D03*
Y4657D02*
D03*
D55*
X39728Y7530D02*
D03*
X39952D02*
D03*
X47478Y14670D02*
D03*
X47702D02*
D03*
X19648Y11150D02*
D03*
X19872D02*
D03*
X47839Y15117D02*
D03*
X47615D02*
D03*
X19347Y12800D02*
D03*
X19571D02*
D03*
X12474Y7486D02*
D03*
X12699D02*
D03*
X19347Y12220D02*
D03*
X19571D02*
D03*
X47722Y16462D02*
D03*
X47497D02*
D03*
X19571Y11958D02*
D03*
X19347D02*
D03*
X19493Y13451D02*
D03*
X19268D02*
D03*
X15861Y11781D02*
D03*
X15636D02*
D03*
X15636Y10846D02*
D03*
X15861D02*
D03*
X18260Y13523D02*
D03*
X18035D02*
D03*
X19571Y12470D02*
D03*
X19347D02*
D03*
X43420Y13352D02*
D03*
X43196D02*
D03*
X40778Y7530D02*
D03*
X41002D02*
D03*
X32298Y6620D02*
D03*
X32522D02*
D03*
X42422Y16840D02*
D03*
X42198D02*
D03*
X8102Y7120D02*
D03*
X7878D02*
D03*
X7612Y7120D02*
D03*
X7388D02*
D03*
X8528Y3310D02*
D03*
X8752D02*
D03*
X10028Y5070D02*
D03*
X10252D02*
D03*
X9408Y4890D02*
D03*
X9632D02*
D03*
X7408Y3310D02*
D03*
X7632D02*
D03*
X10952Y11100D02*
D03*
X10728D02*
D03*
X5958Y10910D02*
D03*
X6182D02*
D03*
X7398Y6900D02*
D03*
X7622D02*
D03*
X1246Y10310D02*
D03*
X1471D02*
D03*
X3664Y11840D02*
D03*
X3888D02*
D03*
X2852Y15560D02*
D03*
X2628D02*
D03*
X3082Y14520D02*
D03*
X2858D02*
D03*
X29749Y6600D02*
D03*
X29524D02*
D03*
X24222Y6620D02*
D03*
X23998D02*
D03*
X26996D02*
D03*
X26771D02*
D03*
X46607Y16413D02*
D03*
X46383D02*
D03*
X10092Y1820D02*
D03*
X9868D02*
D03*
X11312Y6540D02*
D03*
X11088D02*
D03*
X5842Y5610D02*
D03*
X5618D02*
D03*
X1246Y10590D02*
D03*
X1471D02*
D03*
X52051Y21087D02*
D03*
X51826D02*
D03*
X50051D02*
D03*
X49826D02*
D03*
X52051Y22447D02*
D03*
X51826D02*
D03*
X50051D02*
D03*
X49826D02*
D03*
X5872Y14540D02*
D03*
X5648D02*
D03*
X9022Y5060D02*
D03*
X8798D02*
D03*
D56*
X40166Y7533D02*
D03*
Y7308D02*
D03*
X28300Y16862D02*
D03*
Y16638D02*
D03*
X17802Y8818D02*
D03*
Y8594D02*
D03*
X48070Y15410D02*
D03*
Y15186D02*
D03*
X13060Y15028D02*
D03*
Y15252D02*
D03*
X11910Y15932D02*
D03*
Y15708D02*
D03*
X15000Y14198D02*
D03*
Y14422D02*
D03*
X18406Y9799D02*
D03*
Y10023D02*
D03*
X13050Y7728D02*
D03*
Y7952D02*
D03*
X14800Y6482D02*
D03*
Y6258D02*
D03*
X14100Y6432D02*
D03*
Y6208D02*
D03*
X12700Y7728D02*
D03*
Y7952D02*
D03*
X15857Y12604D02*
D03*
Y12828D02*
D03*
X17186Y9799D02*
D03*
Y10023D02*
D03*
X17048Y8559D02*
D03*
Y8784D02*
D03*
X45435Y12913D02*
D03*
Y12688D02*
D03*
X44115Y12913D02*
D03*
Y12688D02*
D03*
X46615D02*
D03*
Y12913D02*
D03*
X28520Y16432D02*
D03*
Y16208D02*
D03*
X28300Y16432D02*
D03*
Y16208D02*
D03*
X4630Y4408D02*
D03*
Y4632D02*
D03*
X7650Y5902D02*
D03*
Y5678D02*
D03*
X3929Y5158D02*
D03*
Y5382D02*
D03*
X4149D02*
D03*
Y5158D02*
D03*
X3090Y10222D02*
D03*
Y9998D02*
D03*
X2800Y9892D02*
D03*
Y9668D02*
D03*
X25400Y11002D02*
D03*
Y10778D02*
D03*
X41157Y23791D02*
D03*
Y23567D02*
D03*
X43010Y16888D02*
D03*
Y17112D02*
D03*
X43230Y16888D02*
D03*
Y17112D02*
D03*
X36950Y1358D02*
D03*
Y1582D02*
D03*
X29090Y7982D02*
D03*
Y7758D02*
D03*
X40564Y7308D02*
D03*
Y7533D02*
D03*
X35370Y3562D02*
D03*
Y3338D02*
D03*
X21890Y10598D02*
D03*
Y10822D02*
D03*
X21653Y10598D02*
D03*
Y10822D02*
D03*
X21417Y10598D02*
D03*
Y10822D02*
D03*
X28520Y16862D02*
D03*
Y16638D02*
D03*
X21180Y10598D02*
D03*
Y10822D02*
D03*
X17730Y14658D02*
D03*
Y14882D02*
D03*
X17510Y14658D02*
D03*
Y14882D02*
D03*
X17290Y14658D02*
D03*
Y14882D02*
D03*
X17070Y14658D02*
D03*
Y14882D02*
D03*
X22520Y15442D02*
D03*
Y15218D02*
D03*
X2520Y9678D02*
D03*
Y9902D02*
D03*
X40887Y23567D02*
D03*
Y23791D02*
D03*
X42254Y20572D02*
D03*
Y20347D02*
D03*
X45570Y21918D02*
D03*
Y22142D02*
D03*
X44867Y22222D02*
D03*
Y21997D02*
D03*
X44063Y7842D02*
D03*
Y7618D02*
D03*
X47531Y15651D02*
D03*
Y15876D02*
D03*
X43731Y16053D02*
D03*
Y15828D02*
D03*
X47393Y15120D02*
D03*
Y15344D02*
D03*
X47747Y15876D02*
D03*
Y15651D02*
D03*
X20200Y17428D02*
D03*
Y17652D02*
D03*
X14850Y10798D02*
D03*
Y11022D02*
D03*
X29310Y6612D02*
D03*
Y6388D02*
D03*
X12830Y15252D02*
D03*
Y15028D02*
D03*
X30470Y4042D02*
D03*
Y3818D02*
D03*
X6740Y15342D02*
D03*
Y15118D02*
D03*
D57*
X4724Y17429D02*
D03*
Y16429D02*
D03*
Y8090D02*
D03*
Y7090D02*
D03*
Y20657D02*
D03*
Y19657D02*
D03*
D58*
X41112Y2767D02*
D03*
X39616D02*
D03*
D59*
X40560Y3673D02*
D03*
X40364D02*
D03*
X40167D02*
D03*
X39970D02*
D03*
X40757D02*
D03*
D60*
X1613Y9967D02*
D03*
X1239D02*
D03*
D61*
X43526Y20634D02*
D03*
D62*
Y21303D02*
D03*
X42719D02*
D03*
Y20555D02*
D03*
D63*
X41864Y20825D02*
D03*
Y20294D02*
D03*
X43338Y14858D02*
D03*
Y14326D02*
D03*
X15414Y14480D02*
D03*
Y13948D02*
D03*
X15857Y14480D02*
D03*
Y13948D02*
D03*
X44007Y16838D02*
D03*
Y17370D02*
D03*
X42875Y14484D02*
D03*
Y15015D02*
D03*
X43564Y17370D02*
D03*
Y16838D02*
D03*
X3970Y9724D02*
D03*
Y10256D02*
D03*
X3500Y9724D02*
D03*
Y10256D02*
D03*
D64*
X7775Y15711D02*
D03*
X8563Y14609D02*
D03*
X7775D02*
D03*
X10137D02*
D03*
X10925D02*
D03*
X8563Y15711D02*
D03*
X10137D02*
D03*
X10925D02*
D03*
D65*
X29000Y15018D02*
D03*
X29500D02*
D03*
X30000D02*
D03*
X30500D02*
D03*
X31000D02*
D03*
X29000Y13482D02*
D03*
X29500D02*
D03*
X30000D02*
D03*
X30500D02*
D03*
X31000D02*
D03*
X33500D02*
D03*
X33000D02*
D03*
X32500D02*
D03*
X32000D02*
D03*
X31500D02*
D03*
X33500Y15018D02*
D03*
X33000D02*
D03*
X32500D02*
D03*
X32000D02*
D03*
X31500D02*
D03*
X38970Y22502D02*
D03*
X38470D02*
D03*
X37970D02*
D03*
X37470D02*
D03*
X36970D02*
D03*
X38970Y24038D02*
D03*
X38470D02*
D03*
X37970D02*
D03*
X37470D02*
D03*
X36970D02*
D03*
D66*
X38375Y12000D02*
D03*
X36625D02*
D03*
X38375Y14000D02*
D03*
X36625D02*
D03*
X38375Y16000D02*
D03*
X36625D02*
D03*
X38375Y17000D02*
D03*
X36625D02*
D03*
X38375Y18000D02*
D03*
X36625D02*
D03*
X38375Y19000D02*
D03*
X36625D02*
D03*
X38375Y20000D02*
D03*
X36625D02*
D03*
X38375Y21000D02*
D03*
X36625D02*
D03*
Y15000D02*
D03*
X38375D02*
D03*
X36625Y13000D02*
D03*
X38375D02*
D03*
X26425Y12000D02*
D03*
X24675D02*
D03*
X26425Y13000D02*
D03*
X24675D02*
D03*
X26425Y14000D02*
D03*
X24675D02*
D03*
D67*
X31000Y21423D02*
D03*
Y22577D02*
D03*
X27000Y21423D02*
D03*
X30000D02*
D03*
X29000Y21423D02*
D03*
X34000Y21423D02*
D03*
X33000D02*
D03*
X27000Y22577D02*
D03*
X30000D02*
D03*
X29000D02*
D03*
X34000D02*
D03*
X33000D02*
D03*
X28000Y21423D02*
D03*
X32000D02*
D03*
X28000Y22577D02*
D03*
X32000D02*
D03*
X7400Y21423D02*
D03*
X13400D02*
D03*
X7400Y22577D02*
D03*
X13400D02*
D03*
X8400Y21423D02*
D03*
X9400Y21423D02*
D03*
X11400D02*
D03*
X12400D02*
D03*
X15400D02*
D03*
X16400D02*
D03*
X8400Y22577D02*
D03*
X9400D02*
D03*
X11400D02*
D03*
X12400D02*
D03*
X15400D02*
D03*
X16400D02*
D03*
X10400Y21423D02*
D03*
X14400Y21423D02*
D03*
X10400Y22577D02*
D03*
X14400D02*
D03*
X14000Y3577D02*
D03*
Y2423D02*
D03*
X18000Y3577D02*
D03*
X15000D02*
D03*
X16000Y3577D02*
D03*
X11000Y3577D02*
D03*
X12000D02*
D03*
X18000Y2423D02*
D03*
X15000D02*
D03*
X16000D02*
D03*
X11000D02*
D03*
X12000D02*
D03*
X17000Y3577D02*
D03*
X13000D02*
D03*
X17000Y2423D02*
D03*
X13000D02*
D03*
X23000Y3577D02*
D03*
X23000Y2423D02*
D03*
X25000Y3577D02*
D03*
X24000D02*
D03*
X21000D02*
D03*
X20000D02*
D03*
X25000Y2423D02*
D03*
X24000D02*
D03*
X21000D02*
D03*
X20000D02*
D03*
X22000Y3577D02*
D03*
Y2423D02*
D03*
X15400Y18577D02*
D03*
Y17423D02*
D03*
X16400Y18577D02*
D03*
Y17423D02*
D03*
X7400D02*
D03*
Y18577D02*
D03*
X11400D02*
D03*
Y17423D02*
D03*
X12400Y18577D02*
D03*
Y17423D02*
D03*
X10400Y18577D02*
D03*
Y17423D02*
D03*
X9400Y18577D02*
D03*
Y17423D02*
D03*
X8400D02*
D03*
Y18577D02*
D03*
X14400Y17423D02*
D03*
Y18577D02*
D03*
X13400Y17423D02*
D03*
Y18577D02*
D03*
X17400Y17423D02*
D03*
Y18577D02*
D03*
X18400Y17423D02*
D03*
Y18577D02*
D03*
X19400Y17423D02*
D03*
Y18577D02*
D03*
X22000Y21423D02*
D03*
Y22577D02*
D03*
X18000Y21423D02*
D03*
X21000D02*
D03*
X20000Y21423D02*
D03*
X25000Y21423D02*
D03*
X24000D02*
D03*
X18000Y22577D02*
D03*
X21000D02*
D03*
X20000D02*
D03*
X25000D02*
D03*
X24000D02*
D03*
X19000Y21423D02*
D03*
X23000D02*
D03*
X19000Y22577D02*
D03*
X23000D02*
D03*
D68*
X3160Y732D02*
D03*
X1192D02*
D03*
X2176D02*
D03*
Y3488D02*
D03*
X1192D02*
D03*
X3160D02*
D03*
D69*
X3791Y13034D02*
D03*
D70*
X3122D02*
D03*
Y12226D02*
D03*
X3870D02*
D03*
D71*
X2365Y13760D02*
D03*
Y11240D02*
D03*
D72*
X1400Y12028D02*
D03*
Y12972D02*
D03*
D73*
X2454Y11988D02*
D03*
Y12244D02*
D03*
Y13012D02*
D03*
Y12756D02*
D03*
Y12500D02*
D03*
D74*
X50973Y23600D02*
D03*
X5411Y1120D02*
D03*
D75*
X3660Y11440D02*
D03*
X4192D02*
D03*
X43229Y15468D02*
D03*
X43761D02*
D03*
X47137Y17112D02*
D03*
X46605D02*
D03*
X45513Y17466D02*
D03*
X44981D02*
D03*
X41626Y18140D02*
D03*
X41094D02*
D03*
X5226Y9280D02*
D03*
X4694D02*
D03*
X6886Y7070D02*
D03*
X6354D02*
D03*
D76*
X484Y4203D02*
D03*
Y5857D02*
D03*
D77*
X2010Y4833D02*
D03*
Y5227D02*
D03*
D78*
X12521Y7238D02*
D03*
X12699D02*
D03*
X13139Y6962D02*
D03*
X12961D02*
D03*
X14509Y6212D02*
D03*
X14331D02*
D03*
X19686Y10880D02*
D03*
X19863D02*
D03*
D79*
X12610Y6962D02*
D03*
X13050Y7238D02*
D03*
X14420Y6488D02*
D03*
X19775Y10605D02*
D03*
D80*
X9394Y4474D02*
D03*
X9906D02*
D03*
Y3726D02*
D03*
X9650D02*
D03*
X9394D02*
D03*
X8786Y3726D02*
D03*
X8530D02*
D03*
X8274D02*
D03*
Y4474D02*
D03*
X8530D02*
D03*
X8786D02*
D03*
X7666Y3726D02*
D03*
X7410D02*
D03*
X7154D02*
D03*
Y4474D02*
D03*
X7410D02*
D03*
X7666D02*
D03*
D81*
X6850Y8413D02*
D03*
Y7547D02*
D03*
X6340Y9687D02*
D03*
Y10553D02*
D03*
D82*
X5124Y5226D02*
D03*
Y4970D02*
D03*
Y4714D02*
D03*
X5836D02*
D03*
Y4970D02*
D03*
Y5226D02*
D03*
D83*
X5480Y5157D02*
D03*
Y4783D02*
D03*
D84*
X6430Y20327D02*
D03*
Y19933D02*
D03*
Y16742D02*
D03*
Y17136D02*
D03*
D85*
X7776Y8177D02*
D03*
D86*
Y7960D02*
D03*
Y7763D02*
D03*
X8544D02*
D03*
Y7960D02*
D03*
Y8157D02*
D03*
D87*
X9641Y8991D02*
D03*
Y7809D02*
D03*
D88*
X9700Y8400D02*
D03*
D89*
X10260Y11553D02*
D03*
Y11884D02*
D03*
X9940Y11553D02*
D03*
Y11884D02*
D03*
X9300Y11553D02*
D03*
Y11884D02*
D03*
X9620Y11553D02*
D03*
Y11884D02*
D03*
D90*
X51313Y21087D02*
D03*
X50763D02*
D03*
X49313D02*
D03*
X48763D02*
D03*
X51313Y22447D02*
D03*
X50763D02*
D03*
X49313D02*
D03*
X48763D02*
D03*
D91*
X20490Y15703D02*
D03*
Y16097D02*
D03*
X51050Y15637D02*
D03*
Y15243D02*
D03*
X16428Y13926D02*
D03*
Y14320D02*
D03*
X44578Y16816D02*
D03*
Y17210D02*
D03*
X46202Y16836D02*
D03*
Y17230D02*
D03*
D92*
X9229Y5652D02*
D03*
X8843D02*
D03*
D93*
X49793Y14711D02*
D03*
Y15518D02*
D03*
X50541D02*
D03*
Y14711D02*
D03*
D94*
X49710Y15115D02*
D03*
X50623D02*
D03*
D95*
X14850Y10335D02*
D03*
Y9785D02*
D03*
D96*
X15118Y9439D02*
D03*
Y9261D02*
D03*
D97*
X14842Y9350D02*
D03*
D98*
X44440Y15980D02*
D03*
Y13460D02*
D03*
X46960D02*
D03*
Y15980D02*
D03*
X16290Y13090D02*
D03*
Y10570D02*
D03*
X18809D02*
D03*
Y13090D02*
D03*
D99*
X46566Y15980D02*
D03*
X46723Y13460D02*
D03*
X46566D02*
D03*
X46802Y13618D02*
D03*
Y15822D02*
D03*
X44440Y13696D02*
D03*
X46409Y13460D02*
D03*
X46251D02*
D03*
X46094D02*
D03*
X45936D02*
D03*
X45779D02*
D03*
X45621D02*
D03*
X45464D02*
D03*
X45306D02*
D03*
X45149D02*
D03*
X44991D02*
D03*
X44834D02*
D03*
X44676D02*
D03*
X46645Y13618D02*
D03*
X46487D02*
D03*
X46330D02*
D03*
X46172D02*
D03*
X46015D02*
D03*
X45857D02*
D03*
X45700D02*
D03*
X45542D02*
D03*
X45385D02*
D03*
X45227D02*
D03*
X45070D02*
D03*
X44912D02*
D03*
X44755D02*
D03*
X44597D02*
D03*
Y13775D02*
D03*
Y13933D02*
D03*
X44440Y13854D02*
D03*
Y14011D02*
D03*
X44597Y14090D02*
D03*
X46960Y14169D02*
D03*
X44440D02*
D03*
X44597Y14248D02*
D03*
X46960Y14326D02*
D03*
X44440D02*
D03*
X44597Y14405D02*
D03*
X46960Y14484D02*
D03*
X44440D02*
D03*
X44597Y14563D02*
D03*
X46960Y14641D02*
D03*
X44440D02*
D03*
X44597Y14720D02*
D03*
X46960Y14799D02*
D03*
X44440D02*
D03*
X44597Y14877D02*
D03*
X46960Y14956D02*
D03*
X44440D02*
D03*
X44597Y15035D02*
D03*
X46960Y15114D02*
D03*
X44440D02*
D03*
X44597Y15192D02*
D03*
X46960Y15271D02*
D03*
X44440D02*
D03*
X44597Y15350D02*
D03*
X46960Y15429D02*
D03*
X44440D02*
D03*
X44597Y15507D02*
D03*
X46960Y15586D02*
D03*
X44440D02*
D03*
X44597Y15665D02*
D03*
X46960Y15744D02*
D03*
X44440D02*
D03*
X46172Y15822D02*
D03*
X46015D02*
D03*
X45857D02*
D03*
X45700D02*
D03*
X45542D02*
D03*
X45385D02*
D03*
X45227D02*
D03*
X45070D02*
D03*
X44912D02*
D03*
X44755D02*
D03*
X44597D02*
D03*
X46409Y15980D02*
D03*
X46251D02*
D03*
X46094D02*
D03*
X45936D02*
D03*
X45779D02*
D03*
X45621D02*
D03*
X45464D02*
D03*
X44834D02*
D03*
X46330Y15822D02*
D03*
X46487D02*
D03*
X46645D02*
D03*
X46960Y14011D02*
D03*
Y13854D02*
D03*
Y13696D02*
D03*
X16447Y12145D02*
D03*
Y10885D02*
D03*
X18416Y13090D02*
D03*
X18573Y10570D02*
D03*
X18416D02*
D03*
X18652Y10728D02*
D03*
Y12932D02*
D03*
X16290Y10806D02*
D03*
X18258Y10570D02*
D03*
X18101D02*
D03*
X17943D02*
D03*
X17786D02*
D03*
X17628D02*
D03*
X17471D02*
D03*
X17313D02*
D03*
X17156D02*
D03*
X16998D02*
D03*
X16841D02*
D03*
X16683D02*
D03*
X16526D02*
D03*
X18494Y10728D02*
D03*
X18337D02*
D03*
X18180D02*
D03*
X18022D02*
D03*
X17865D02*
D03*
X17707D02*
D03*
X17550D02*
D03*
X17392D02*
D03*
X17235D02*
D03*
X17077D02*
D03*
X16920D02*
D03*
X16762D02*
D03*
X16605D02*
D03*
X16447D02*
D03*
Y11043D02*
D03*
X16290Y10964D02*
D03*
Y11121D02*
D03*
X16447Y11200D02*
D03*
X18809Y11279D02*
D03*
X16290D02*
D03*
X16447Y11358D02*
D03*
X18809Y11436D02*
D03*
X16290D02*
D03*
X16447Y11515D02*
D03*
X18809Y11594D02*
D03*
X16290D02*
D03*
X16447Y11673D02*
D03*
X18809Y11751D02*
D03*
X16290D02*
D03*
X16447Y11830D02*
D03*
X18809Y11909D02*
D03*
X16290D02*
D03*
X16447Y11987D02*
D03*
X18809Y12066D02*
D03*
X16290D02*
D03*
X18809Y12224D02*
D03*
X16290D02*
D03*
X16447Y12302D02*
D03*
X18809Y12381D02*
D03*
X16290D02*
D03*
X16447Y12460D02*
D03*
X18809Y12539D02*
D03*
X16290D02*
D03*
X16447Y12617D02*
D03*
X18809Y12696D02*
D03*
X16290D02*
D03*
X16447Y12775D02*
D03*
X18809Y12854D02*
D03*
X16290D02*
D03*
X18022Y12932D02*
D03*
X17865D02*
D03*
X17707D02*
D03*
X17550D02*
D03*
X17392D02*
D03*
X17235D02*
D03*
X17077D02*
D03*
X16920D02*
D03*
X16762D02*
D03*
X16605D02*
D03*
X16447D02*
D03*
X18258Y13090D02*
D03*
X18101D02*
D03*
X17943D02*
D03*
X17786D02*
D03*
X17628D02*
D03*
X17471D02*
D03*
X17313D02*
D03*
X16683D02*
D03*
X18180Y12932D02*
D03*
X18337D02*
D03*
X18494D02*
D03*
X18809Y11121D02*
D03*
Y10964D02*
D03*
Y10806D02*
D03*
D100*
X42836Y13746D02*
D03*
X43407D02*
D03*
D101*
X17451Y14115D02*
D03*
X17057D02*
D03*
X18741Y13808D02*
D03*
X19134D02*
D03*
X16920Y13771D02*
D03*
X17313D02*
D03*
X18357Y13808D02*
D03*
X17963D02*
D03*
X45405Y17064D02*
D03*
X45798D02*
D03*
X40967Y7037D02*
D03*
X40573D02*
D03*
X40167D02*
D03*
X39773D02*
D03*
X46891Y16718D02*
D03*
X47284D02*
D03*
X8507Y8970D02*
D03*
X8113D02*
D03*
X45188Y16730D02*
D03*
X45582D02*
D03*
D102*
X20128Y13062D02*
D03*
X20581D02*
D03*
Y13633D02*
D03*
X20128D02*
D03*
X48279Y15952D02*
D03*
X48731D02*
D03*
Y16523D02*
D03*
X48279D02*
D03*
D103*
X5950Y15057D02*
D03*
Y15443D02*
D03*
D104*
X5606Y15506D02*
D03*
Y15250D02*
D03*
Y14994D02*
D03*
X6294D02*
D03*
Y15250D02*
D03*
Y15506D02*
D03*
D105*
X43004Y22547D02*
D03*
X43259D02*
D03*
X43515D02*
D03*
X42748D02*
D03*
X42492D02*
D03*
D106*
X43476Y23600D02*
D03*
X42531D02*
D03*
D107*
X41744Y22635D02*
D03*
X44263D02*
D03*
D108*
X10026Y5494D02*
D03*
Y6006D02*
D03*
X10774D02*
D03*
Y5750D02*
D03*
Y5494D02*
D03*
D109*
X762Y22140D02*
D03*
Y22640D02*
D03*
Y23140D02*
D03*
Y23640D02*
D03*
Y24140D02*
D03*
X2298Y22140D02*
D03*
Y22640D02*
D03*
Y23140D02*
D03*
Y23640D02*
D03*
Y24140D02*
D03*
D110*
X40557Y23866D02*
D03*
Y23492D02*
D03*
X2900Y11190D02*
D03*
Y11564D02*
D03*
X41474Y20263D02*
D03*
Y20637D02*
D03*
X2860Y15227D02*
D03*
Y14853D02*
D03*
X45217Y21923D02*
D03*
Y22297D02*
D03*
M02*
