G04*
G04 #@! TF.GenerationSoftware,Altium Limited,Altium Designer,22.10.1 (41)*
G04*
G04 Layer_Color=32768*
%FSLAX24Y24*%
%MOIN*%
G70*
G04*
G04 #@! TF.SameCoordinates,909E230D-C440-470E-9760-442CD84647A0*
G04*
G04*
G04 #@! TF.FilePolarity,Positive*
G04*
G01*
G75*
%ADD24C,0.0080*%
%ADD232C,0.0065*%
%ADD239C,0.0065*%
%ADD255C,0.0051*%
%ADD277C,0.0042*%
%ADD278C,0.0051*%
%ADD279C,0.0051*%
%ADD280C,0.0051*%
D24*
X38310Y22817D02*
X38377Y22750D01*
X38510D01*
X38577Y22817D01*
Y23083D01*
X38510Y23150D01*
X38377D01*
X38310Y23083D01*
Y23017D01*
X38377Y22950D01*
X38577D01*
X38710Y23083D02*
X38777Y23150D01*
X38910D01*
X38976Y23083D01*
Y22817D01*
X38910Y22750D01*
X38777D01*
X38710Y22817D01*
Y23083D01*
X39176Y22750D02*
X39310D01*
X39376Y22817D01*
Y22950D01*
X39310Y23017D01*
X39176D01*
X39110Y22950D01*
Y22817D01*
X39176Y22750D01*
X39510Y23150D02*
Y22750D01*
Y22950D01*
X39576Y23017D01*
X39710D01*
X39776Y22950D01*
Y22750D01*
X39909D02*
Y23017D01*
X39976D01*
X40043Y22950D01*
Y22750D01*
Y22950D01*
X40109Y23017D01*
X40176Y22950D01*
Y22750D01*
X40976Y23150D02*
Y22750D01*
X40776D01*
X40709Y22817D01*
Y22950D01*
X40776Y23017D01*
X40976D01*
X41109Y22750D02*
X41242D01*
X41176D01*
Y23017D01*
X41109D01*
X41509Y22750D02*
Y23083D01*
Y22950D01*
X41442D01*
X41576D01*
X41509D01*
Y23083D01*
X41576Y23150D01*
X41842Y22750D02*
Y23083D01*
Y22950D01*
X41776D01*
X41909D01*
X41842D01*
Y23083D01*
X41909Y23150D01*
X42309Y22750D02*
X42175D01*
X42109Y22817D01*
Y22950D01*
X42175Y23017D01*
X42309D01*
X42375Y22950D01*
Y22883D01*
X42109D01*
X42509Y23017D02*
Y22750D01*
Y22883D01*
X42575Y22950D01*
X42642Y23017D01*
X42709D01*
X43108Y22750D02*
X42975D01*
X42909Y22817D01*
Y22950D01*
X42975Y23017D01*
X43108D01*
X43175Y22950D01*
Y22883D01*
X42909D01*
X43308Y22750D02*
Y23017D01*
X43508D01*
X43575Y22950D01*
Y22750D01*
X43708D02*
X43908D01*
X43975Y22817D01*
X43908Y22883D01*
X43775D01*
X43708Y22950D01*
X43775Y23017D01*
X43975D01*
X44108Y22750D02*
X44241D01*
X44175D01*
Y23017D01*
X44108D01*
X44508D02*
X44641D01*
X44708Y22950D01*
Y22750D01*
X44508D01*
X44441Y22817D01*
X44508Y22883D01*
X44708D01*
X44841Y22750D02*
X44975D01*
X44908D01*
Y23150D01*
X44841D01*
X45574Y22750D02*
X45708D01*
X45641D01*
Y23017D01*
X45574D01*
X45908Y22750D02*
Y23017D01*
X45974D01*
X46041Y22950D01*
Y22750D01*
Y22950D01*
X46107Y23017D01*
X46174Y22950D01*
Y22750D01*
X46307Y22617D02*
Y23017D01*
X46507D01*
X46574Y22950D01*
Y22817D01*
X46507Y22750D01*
X46307D01*
X46907D02*
X46774D01*
X46707Y22817D01*
Y22950D01*
X46774Y23017D01*
X46907D01*
X46974Y22950D01*
Y22883D01*
X46707D01*
X47374Y23150D02*
Y22750D01*
X47174D01*
X47107Y22817D01*
Y22950D01*
X47174Y23017D01*
X47374D01*
X47574D02*
X47707D01*
X47774Y22950D01*
Y22750D01*
X47574D01*
X47507Y22817D01*
X47574Y22883D01*
X47774D01*
X47907Y22750D02*
Y23017D01*
X48107D01*
X48173Y22950D01*
Y22750D01*
X48573Y23017D02*
X48373D01*
X48307Y22950D01*
Y22817D01*
X48373Y22750D01*
X48573D01*
X48907D02*
X48773D01*
X48707Y22817D01*
Y22950D01*
X48773Y23017D01*
X48907D01*
X48973Y22950D01*
Y22883D01*
X48707D01*
X6320Y12667D02*
X6387Y12600D01*
X6520D01*
X6587Y12667D01*
Y12933D01*
X6520Y13000D01*
X6387D01*
X6320Y12933D01*
Y12867D01*
X6387Y12800D01*
X6587D01*
X6720Y12933D02*
X6787Y13000D01*
X6920D01*
X6986Y12933D01*
Y12667D01*
X6920Y12600D01*
X6787D01*
X6720Y12667D01*
Y12933D01*
X7186Y12600D02*
X7320D01*
X7386Y12667D01*
Y12800D01*
X7320Y12867D01*
X7186D01*
X7120Y12800D01*
Y12667D01*
X7186Y12600D01*
X7520Y13000D02*
Y12600D01*
Y12800D01*
X7586Y12867D01*
X7720D01*
X7786Y12800D01*
Y12600D01*
X7919D02*
Y12867D01*
X7986D01*
X8053Y12800D01*
Y12600D01*
Y12800D01*
X8119Y12867D01*
X8186Y12800D01*
Y12600D01*
X8986Y13000D02*
Y12600D01*
X8786D01*
X8719Y12667D01*
Y12800D01*
X8786Y12867D01*
X8986D01*
X9119Y12600D02*
X9252D01*
X9186D01*
Y12867D01*
X9119D01*
X9519Y12600D02*
Y12933D01*
Y12800D01*
X9452D01*
X9586D01*
X9519D01*
Y12933D01*
X9586Y13000D01*
X9852Y12600D02*
Y12933D01*
Y12800D01*
X9786D01*
X9919D01*
X9852D01*
Y12933D01*
X9919Y13000D01*
X10319Y12600D02*
X10185D01*
X10119Y12667D01*
Y12800D01*
X10185Y12867D01*
X10319D01*
X10385Y12800D01*
Y12733D01*
X10119D01*
X10519Y12867D02*
Y12600D01*
Y12733D01*
X10585Y12800D01*
X10652Y12867D01*
X10719D01*
X11118Y12600D02*
X10985D01*
X10919Y12667D01*
Y12800D01*
X10985Y12867D01*
X11118D01*
X11185Y12800D01*
Y12733D01*
X10919D01*
X11318Y12600D02*
Y12867D01*
X11518D01*
X11585Y12800D01*
Y12600D01*
X11718D02*
X11918D01*
X11985Y12667D01*
X11918Y12733D01*
X11785D01*
X11718Y12800D01*
X11785Y12867D01*
X11985D01*
X12118Y12600D02*
X12251D01*
X12185D01*
Y12867D01*
X12118D01*
X12518D02*
X12651D01*
X12718Y12800D01*
Y12600D01*
X12518D01*
X12451Y12667D01*
X12518Y12733D01*
X12718D01*
X12851Y12600D02*
X12985D01*
X12918D01*
Y13000D01*
X12851D01*
X13584Y12600D02*
X13718D01*
X13651D01*
Y12867D01*
X13584D01*
X13918Y12600D02*
Y12867D01*
X13984D01*
X14051Y12800D01*
Y12600D01*
Y12800D01*
X14117Y12867D01*
X14184Y12800D01*
Y12600D01*
X14317Y12467D02*
Y12867D01*
X14517D01*
X14584Y12800D01*
Y12667D01*
X14517Y12600D01*
X14317D01*
X14917D02*
X14784D01*
X14717Y12667D01*
Y12800D01*
X14784Y12867D01*
X14917D01*
X14984Y12800D01*
Y12733D01*
X14717D01*
X15384Y13000D02*
Y12600D01*
X15184D01*
X15117Y12667D01*
Y12800D01*
X15184Y12867D01*
X15384D01*
X15584D02*
X15717D01*
X15784Y12800D01*
Y12600D01*
X15584D01*
X15517Y12667D01*
X15584Y12733D01*
X15784D01*
X15917Y12600D02*
Y12867D01*
X16117D01*
X16183Y12800D01*
Y12600D01*
X16583Y12867D02*
X16383D01*
X16317Y12800D01*
Y12667D01*
X16383Y12600D01*
X16583D01*
X16917D02*
X16783D01*
X16717Y12667D01*
Y12800D01*
X16783Y12867D01*
X16917D01*
X16983Y12800D01*
Y12733D01*
X16717D01*
X47097Y16266D02*
X46831D01*
Y16066D01*
X46964Y16133D01*
X47031D01*
X47097Y16066D01*
Y15933D01*
X47031Y15866D01*
X46897D01*
X46831Y15933D01*
X47231Y16199D02*
X47297Y16266D01*
X47431D01*
X47497Y16199D01*
Y15933D01*
X47431Y15866D01*
X47297D01*
X47231Y15933D01*
Y16199D01*
X47697Y15866D02*
X47830D01*
X47897Y15933D01*
Y16066D01*
X47830Y16133D01*
X47697D01*
X47630Y16066D01*
Y15933D01*
X47697Y15866D01*
X48030Y16266D02*
Y15866D01*
Y16066D01*
X48097Y16133D01*
X48230D01*
X48297Y16066D01*
Y15866D01*
X48430D02*
Y16133D01*
X48497D01*
X48563Y16066D01*
Y15866D01*
Y16066D01*
X48630Y16133D01*
X48697Y16066D01*
Y15866D01*
X49230D02*
X49363D01*
X49297D01*
Y16133D01*
X49230D01*
X49563Y15866D02*
Y16133D01*
X49630D01*
X49696Y16066D01*
Y15866D01*
Y16066D01*
X49763Y16133D01*
X49830Y16066D01*
Y15866D01*
X49963Y15733D02*
Y16133D01*
X50163D01*
X50230Y16066D01*
Y15933D01*
X50163Y15866D01*
X49963D01*
X50563D02*
X50430D01*
X50363Y15933D01*
Y16066D01*
X50430Y16133D01*
X50563D01*
X50629Y16066D01*
Y15999D01*
X50363D01*
X51029Y16266D02*
Y15866D01*
X50829D01*
X50763Y15933D01*
Y16066D01*
X50829Y16133D01*
X51029D01*
X51229D02*
X51363D01*
X51429Y16066D01*
Y15866D01*
X51229D01*
X51163Y15933D01*
X51229Y15999D01*
X51429D01*
X51563Y15866D02*
Y16133D01*
X51762D01*
X51829Y16066D01*
Y15866D01*
X52229Y16133D02*
X52029D01*
X51962Y16066D01*
Y15933D01*
X52029Y15866D01*
X52229D01*
X52562D02*
X52429D01*
X52362Y15933D01*
Y16066D01*
X52429Y16133D01*
X52562D01*
X52629Y16066D01*
Y15999D01*
X52362D01*
D232*
X43190Y16710D02*
G03*
X43254Y16556I217J0D01*
G01*
X43254Y16556D02*
G03*
X43752Y16350I498J499D01*
G01*
X43155Y16457D02*
G03*
X43752Y16210I597J597D01*
G01*
X44649Y16189D02*
G03*
X44260Y16350I-389J-389D01*
G01*
X44550Y16090D02*
G03*
X44260Y16210I-290J-290D01*
G01*
X44710Y16042D02*
G03*
X44649Y16189I-208J0D01*
G01*
X44597Y15975D02*
G03*
X44550Y16090I-162J0D01*
G01*
X44710Y15931D02*
G03*
X44755Y15822I154J0D01*
G01*
X43230Y16888D02*
G03*
X43190Y16791I97J-97D01*
G01*
X43050Y16710D02*
G03*
X43155Y16457I357J0D01*
G01*
X43050Y16791D02*
G03*
X43010Y16888I-137J0D01*
G01*
X43752Y16350D02*
X44260D01*
X43752Y16210D02*
X44260D01*
X44710Y15931D02*
Y16042D01*
X44597Y15822D02*
Y15975D01*
Y15822D02*
X44600Y15825D01*
X43190Y16710D02*
Y16791D01*
X43050Y16710D02*
Y16791D01*
D239*
X43230Y17112D02*
X43233Y17115D01*
D255*
X4847Y12712D02*
G03*
X5555Y13005I0J1000D01*
G01*
X3181Y13034D02*
G03*
X3502Y12712I321J0D01*
G01*
X15621Y13463D02*
G03*
X15666Y13445I44J44D01*
G01*
X5749Y13195D02*
G03*
X5683Y13134I760J-888D01*
G01*
X16556Y13130D02*
G03*
X16475Y13325I-276J0D01*
G01*
X6418Y13472D02*
G03*
X5749Y13195I91J-1165D01*
G01*
X16431Y13369D02*
G03*
X16248Y13445I-182J-182D01*
G01*
X15621Y13463D02*
G03*
X15591Y13476I-31J-31D01*
G01*
X6509D02*
G03*
X6418Y13472I0J-1169D01*
G01*
X3496Y12543D02*
G03*
X3181Y12226I2J-317D01*
G01*
X4847Y12543D02*
G03*
X5674Y12886I0J1169D01*
G01*
X16396Y13222D02*
G03*
X16190Y13307I-207J-207D01*
G01*
X16447Y13091D02*
G03*
X16423Y13194I-237J0D01*
G01*
X3498Y12543D02*
G03*
X3496Y12543I0J-317D01*
G01*
X6509Y13307D02*
G03*
X5802Y13014I0J-1000D01*
G01*
X2795Y12756D02*
G03*
X3073Y13034I0J278D01*
G01*
Y12226D02*
G03*
X2799Y12500I-274J0D01*
G01*
X16431Y13369D02*
X16475Y13325D01*
X16556Y13001D02*
X16605Y12952D01*
X16556Y13001D02*
Y13130D01*
X16605Y12932D02*
Y12952D01*
X3502Y12712D02*
X4847D01*
X5555Y13005D02*
X5683Y13134D01*
X6509Y13476D02*
X15591D01*
X15666Y13445D02*
X16248D01*
X14410Y13307D02*
X16190D01*
X16447Y12932D02*
Y13091D01*
X16396Y13222D02*
X16423Y13194D01*
X3498Y12543D02*
X4847D01*
X14410Y13260D02*
Y13307D01*
X5674Y12886D02*
X5802Y13014D01*
X6509Y13307D02*
X14410D01*
X2454Y12756D02*
Y12756D01*
Y12756D02*
X2795D01*
X2454Y12500D02*
X2799D01*
D277*
X51986Y15276D02*
G03*
X52986Y16276I0J1000D01*
G01*
X49504Y5116D02*
G03*
X49764Y4488I887J0D01*
G01*
X50010Y3894D02*
G03*
X49764Y4488I-840J0D01*
G01*
X48976Y14380D02*
G03*
X48954Y14550I-665J0D01*
G01*
D02*
G03*
X48782Y14850I-643J-170D01*
G01*
X49695Y8091D02*
G03*
X49518Y8268I-177J0D01*
G01*
X48799Y7687D02*
G03*
X48609Y7766I-190J-190D01*
G01*
X48799Y7687D02*
G03*
X48968Y7617I169J169D01*
G01*
X52982Y21053D02*
Y21417D01*
Y20841D02*
Y21053D01*
X48671Y15276D02*
X51986D01*
X52982Y20616D02*
X52982D01*
X52982Y20404D02*
Y20616D01*
X52986Y20384D02*
X52986D01*
X52986Y16276D02*
Y20384D01*
X50010Y2327D02*
Y3021D01*
X49504Y5116D02*
Y5551D01*
X50010Y3021D02*
Y3894D01*
X48976Y8425D02*
Y10951D01*
X46960Y7799D02*
X47066D01*
X48976Y8425D02*
X48976Y8425D01*
Y11864D02*
Y14380D01*
X48671Y14961D02*
X48782Y14850D01*
X47840Y15118D02*
X48514D01*
X47839Y15117D02*
X47840Y15118D01*
X48512Y15117D02*
X48514Y15118D01*
X48070Y15117D02*
X48512D01*
X46960Y15114D02*
X47387D01*
X46960Y15114D02*
X47611D01*
X47618Y15120D01*
X46963Y8110D02*
X48976D01*
X47099Y7766D02*
X48609D01*
X47066Y7799D02*
X47099Y7766D01*
X48968Y7617D02*
X49298D01*
X49134Y8268D02*
X49518D01*
X49692Y7617D02*
X49692Y7617D01*
X49695Y7617D02*
Y8091D01*
X49692Y7617D02*
X49695D01*
X49495Y6470D02*
Y7263D01*
X50010Y1709D02*
Y1900D01*
Y1900D02*
Y2102D01*
X52982Y15817D02*
X52982D01*
D278*
X43259Y22547D02*
G03*
X43216Y22503I0J-43D01*
G01*
Y21740D02*
G03*
X43305Y21524I305J0D01*
G01*
X43384Y21421D02*
G03*
X43367Y21463I-59J0D01*
G01*
X43384Y21421D02*
G03*
X43401Y21379I59J0D01*
G01*
X43442Y21338D02*
G03*
X43526Y21303I84J84D01*
G01*
X43383Y21211D02*
G03*
X43207Y21034I0J-176D01*
G01*
Y17142D02*
G03*
X43233Y17115I26J0D01*
G01*
X43047Y22503D02*
G03*
X43004Y22547I-43J0D01*
G01*
X42953Y21520D02*
G03*
X43047Y21748I-228J228D01*
G01*
X42872Y21439D02*
G03*
X42861Y21412I27J-27D01*
G01*
X42849Y21385D02*
G03*
X42861Y21412I-27J27D01*
G01*
X42719Y21303D02*
G03*
X42803Y21338I0J119D01*
G01*
X42980Y17082D02*
G03*
X43038Y17140I0J58D01*
G01*
X43305Y21524D02*
X43367Y21463D01*
X43401Y21379D02*
X43401Y21379D01*
X43442Y21338D01*
X43433Y21211D02*
X43526Y21303D01*
X43383Y21211D02*
X43433D01*
X43232Y19845D02*
Y19887D01*
X43207Y19820D02*
X43232Y19845D01*
X43047Y21748D02*
Y22503D01*
X43216Y21740D02*
Y22503D01*
X42872Y21439D02*
X42953Y21520D01*
X42872Y21439D02*
X42872Y21439D01*
X42803Y21338D02*
X42849Y21385D01*
X42719Y21303D02*
X42812Y21211D01*
X42880D01*
X43038Y21053D01*
X43207Y19820D02*
Y21034D01*
X43038Y17140D02*
Y21053D01*
X43207Y17142D02*
Y19820D01*
D279*
X43305Y21524D02*
D03*
X43401Y21379D02*
D03*
X42872Y21439D02*
D03*
D280*
X5683Y13134D02*
D03*
M02*
