G04*
G04 #@! TF.GenerationSoftware,Altium Limited,Altium Designer,22.10.1 (41)*
G04*
G04 Layer_Color=8421504*
%FSLAX24Y24*%
%MOIN*%
G70*
G04*
G04 #@! TF.SameCoordinates,909E230D-C440-470E-9760-442CD84647A0*
G04*
G04*
G04 #@! TF.FilePolarity,Positive*
G04*
G01*
G75*
%ADD40O,0.0787X0.0591*%
G04:AMPARAMS|DCode=41|XSize=43.3mil|YSize=39.4mil|CornerRadius=3mil|HoleSize=0mil|Usage=FLASHONLY|Rotation=180.000|XOffset=0mil|YOffset=0mil|HoleType=Round|Shape=RoundedRectangle|*
%AMROUNDEDRECTD41*
21,1,0.0433,0.0335,0,0,180.0*
21,1,0.0374,0.0394,0,0,180.0*
1,1,0.0059,-0.0187,0.0167*
1,1,0.0059,0.0187,0.0167*
1,1,0.0059,0.0187,-0.0167*
1,1,0.0059,-0.0187,-0.0167*
%
%ADD41ROUNDEDRECTD41*%
%ADD42O,0.0591X0.0787*%
%ADD43R,0.0315X0.0118*%
%ADD44R,0.0197X0.0148*%
%ADD45R,0.0138X0.0138*%
%ADD46R,0.0138X0.0098*%
%ADD47R,0.0098X0.0138*%
%ADD48R,0.0138X0.0138*%
%ADD49R,0.0118X0.0315*%
%ADD50R,0.0148X0.0197*%
%ADD51R,0.0445X0.0366*%
%ADD52R,0.0075X0.0075*%
%ADD53R,0.0106X0.0118*%
%ADD54O,0.0240X0.0071*%
%ADD55O,0.0071X0.0240*%
%ADD56R,0.0394X0.0630*%
%ADD57R,0.1083X0.0551*%
%ADD58R,0.0118X0.0106*%
%ADD59R,0.0118X0.0138*%
%ADD60R,0.0413X0.0283*%
%ADD61R,0.0236X0.1024*%
%ADD62R,0.0118X0.0315*%
%ADD63R,0.0256X0.0197*%
%ADD64R,0.0335X0.0394*%
%ADD65R,0.0335X0.0236*%
%ADD66R,0.0315X0.0295*%
%ADD67R,0.0299X0.0945*%
%ADD68R,0.1500X0.0500*%
%ADD69R,0.0402X0.0862*%
%ADD70R,0.0236X0.0335*%
%ADD71R,0.0394X0.0335*%
%ADD72R,0.0551X0.0630*%
%ADD73R,0.0610X0.0748*%
%ADD74R,0.0531X0.0157*%
%ADD75C,0.0394*%
%ADD76R,0.0295X0.0315*%
%ADD77R,0.0709X0.0472*%
%ADD78R,0.0610X0.0236*%
%ADD79R,0.0300X0.0320*%
%ADD80R,0.0320X0.0300*%
%ADD81R,0.0157X0.0098*%
%ADD82R,0.0157X0.0276*%
%ADD83C,0.0167*%
%ADD84C,0.0098*%
%ADD85R,0.0295X0.0551*%
%ADD86R,0.0236X0.0197*%
%ADD87R,0.0197X0.0236*%
%ADD88R,0.0335X0.0374*%
%ADD89R,0.0098X0.0197*%
%ADD90R,0.0256X0.0217*%
%ADD91R,0.0484X0.0874*%
%ADD92C,0.0093*%
%ADD93R,0.0138X0.0059*%
%ADD94R,0.0138X0.0098*%
%ADD95R,0.0059X0.0138*%
%ADD96R,0.0098X0.0138*%
%ADD97O,0.0551X0.0157*%
%ADD98R,0.0394X0.0591*%
%ADD99R,0.0669X0.0236*%
%ADD100R,0.0551X0.0236*%
%ADD101R,0.0098X0.0157*%
%ADD102R,0.0276X0.0157*%
%ADD103R,0.1252X0.0500*%
%ADD104R,0.0394X0.1339*%
%ADD105R,0.1063X0.0315*%
%ADD106R,0.0098X0.0142*%
%ADD107R,0.0142X0.0098*%
%ADD108R,0.0236X0.0394*%
%ADD109R,0.0177X0.0453*%
%ADD110R,0.0630X0.0394*%
%ADD111R,0.0197X0.0228*%
%ADD112R,0.0295X0.0315*%
%ADD113O,0.0079X0.0276*%
%ADD114O,0.0276X0.0079*%
%ADD115R,0.1417X0.1417*%
%ADD116R,0.0157X0.0531*%
%ADD117R,0.0748X0.0610*%
%ADD118R,0.0630X0.0551*%
%ADD119R,0.0945X0.0299*%
%ADD120R,0.0197X0.0256*%
G36*
X11334Y8518D02*
Y8282D01*
X11078Y8026D01*
X10291D01*
X10035Y8282D01*
Y8518D01*
X10291Y8774D01*
X11078D01*
X11334Y8518D01*
D02*
G37*
D40*
X1400Y11201D02*
D03*
Y13799D02*
D03*
D41*
X46546Y14011D02*
D03*
X46034D02*
D03*
X45523D02*
D03*
X45011D02*
D03*
Y14484D02*
D03*
X45523D02*
D03*
X46034D02*
D03*
X46546D02*
D03*
X45011Y14956D02*
D03*
X45523D02*
D03*
X46034D02*
D03*
X46546D02*
D03*
X45011Y15429D02*
D03*
X45523D02*
D03*
X46034D02*
D03*
X46546D02*
D03*
X18396Y12539D02*
D03*
X17884D02*
D03*
X17372D02*
D03*
X16861D02*
D03*
X18396Y12066D02*
D03*
X17884D02*
D03*
X17372D02*
D03*
X16861D02*
D03*
X18396Y11594D02*
D03*
X17884D02*
D03*
X17372D02*
D03*
X16861D02*
D03*
Y11121D02*
D03*
X17372D02*
D03*
X17884D02*
D03*
X18396D02*
D03*
D42*
X44303Y23600D02*
D03*
X41704D02*
D03*
D43*
X8160Y8137D02*
D03*
X8160Y7783D02*
D03*
X8947Y4990D02*
D03*
X8947Y4636D02*
D03*
D44*
X8160Y8162D02*
D03*
Y7758D02*
D03*
X8947Y5015D02*
D03*
Y4611D02*
D03*
D45*
X7776Y8177D02*
D03*
X8564Y5030D02*
D03*
D46*
X7776Y7960D02*
D03*
Y7763D02*
D03*
X8544D02*
D03*
Y7960D02*
D03*
Y8157D02*
D03*
X8564Y4813D02*
D03*
Y4616D02*
D03*
X9331D02*
D03*
Y4813D02*
D03*
Y5010D02*
D03*
D47*
X6335Y10566D02*
D03*
X6138Y10566D02*
D03*
X5941Y10566D02*
D03*
Y11333D02*
D03*
X6138Y11333D02*
D03*
D48*
X6355Y11333D02*
D03*
D49*
X5961Y10950D02*
D03*
X6315Y10950D02*
D03*
D50*
X5937Y10949D02*
D03*
X6340Y10949D02*
D03*
D51*
X37846Y9547D02*
D03*
X37323D02*
D03*
X36799D02*
D03*
X37846Y9102D02*
D03*
X37323D02*
D03*
X36799D02*
D03*
X37846Y8657D02*
D03*
X37323D02*
D03*
X36799D02*
D03*
D52*
X48976Y8425D02*
D03*
X49134D02*
D03*
X48976Y8268D02*
D03*
X49134D02*
D03*
X48976Y8110D02*
D03*
X49134D02*
D03*
X48671Y14961D02*
D03*
X48514D02*
D03*
X48671Y15118D02*
D03*
X48514D02*
D03*
X48671Y15276D02*
D03*
X48514D02*
D03*
D53*
X50230Y1693D02*
D03*
X50006D02*
D03*
X52758Y21053D02*
D03*
X52982D02*
D03*
Y20404D02*
D03*
X52758D02*
D03*
X39925Y7136D02*
D03*
X40149D02*
D03*
X47478Y14670D02*
D03*
X47702D02*
D03*
X48756Y8770D02*
D03*
X48980D02*
D03*
X19648Y11150D02*
D03*
X19872D02*
D03*
X47615Y15117D02*
D03*
X47839D02*
D03*
X7388Y6900D02*
D03*
X7612D02*
D03*
X12474Y7486D02*
D03*
X12699D02*
D03*
X49268Y6762D02*
D03*
X49492D02*
D03*
X47309Y6703D02*
D03*
X47533D02*
D03*
X48283Y14606D02*
D03*
X48508D02*
D03*
X36846Y10600D02*
D03*
X37071D02*
D03*
X50004Y2539D02*
D03*
X49780D02*
D03*
X8185Y3976D02*
D03*
X8410D02*
D03*
X43196Y13332D02*
D03*
X43420D02*
D03*
X49780Y1900D02*
D03*
X50004D02*
D03*
X46382Y4616D02*
D03*
X46157D02*
D03*
X43913Y7336D02*
D03*
X43688D02*
D03*
X7612Y7120D02*
D03*
X7388D02*
D03*
X8102Y7120D02*
D03*
X7878D02*
D03*
X8665Y3976D02*
D03*
X8890D02*
D03*
X8185Y3750D02*
D03*
X8410D02*
D03*
X47438Y8773D02*
D03*
X47663D02*
D03*
X47663Y8509D02*
D03*
X47438D02*
D03*
X10728Y11100D02*
D03*
X10952D02*
D03*
X11312Y6540D02*
D03*
X11088D02*
D03*
X19347Y12800D02*
D03*
X19571D02*
D03*
X19347Y12220D02*
D03*
X19571D02*
D03*
X47722Y16462D02*
D03*
X47497D02*
D03*
X19571Y11958D02*
D03*
X19347D02*
D03*
X19493Y13451D02*
D03*
X19268D02*
D03*
X15861Y11781D02*
D03*
X15636D02*
D03*
X15636Y10846D02*
D03*
X15861D02*
D03*
X18260Y13523D02*
D03*
X18035D02*
D03*
X19571Y12470D02*
D03*
X19347D02*
D03*
X40975Y7136D02*
D03*
X41199D02*
D03*
X32298Y6620D02*
D03*
X32522D02*
D03*
X42422Y16840D02*
D03*
X42198D02*
D03*
X1246Y10310D02*
D03*
X1471D02*
D03*
X3664Y11840D02*
D03*
X3888D02*
D03*
X2852Y15560D02*
D03*
X2628D02*
D03*
X3082Y14520D02*
D03*
X2858D02*
D03*
X29749Y6600D02*
D03*
X29524D02*
D03*
X24222Y6620D02*
D03*
X23998D02*
D03*
X26996D02*
D03*
X26771D02*
D03*
X46607Y16413D02*
D03*
X46383D02*
D03*
X1246Y10590D02*
D03*
X1471D02*
D03*
X50543Y21463D02*
D03*
X50318D02*
D03*
X50543Y22546D02*
D03*
X50318D02*
D03*
X5872Y14540D02*
D03*
X5648D02*
D03*
D54*
X27398Y7752D02*
D03*
X26749Y7437D02*
D03*
Y7280D02*
D03*
Y7595D02*
D03*
Y7752D02*
D03*
X27398Y7595D02*
D03*
Y7437D02*
D03*
Y7280D02*
D03*
X32275D02*
D03*
Y7437D02*
D03*
Y7595D02*
D03*
Y7752D02*
D03*
X32925D02*
D03*
Y7595D02*
D03*
Y7437D02*
D03*
Y7280D02*
D03*
X29512D02*
D03*
Y7437D02*
D03*
Y7595D02*
D03*
Y7752D02*
D03*
X30161D02*
D03*
Y7595D02*
D03*
Y7437D02*
D03*
Y7280D02*
D03*
X23985D02*
D03*
Y7437D02*
D03*
Y7595D02*
D03*
Y7752D02*
D03*
X24635D02*
D03*
Y7595D02*
D03*
Y7437D02*
D03*
Y7280D02*
D03*
D55*
X27310Y7034D02*
D03*
X26995Y7999D02*
D03*
X27152Y7034D02*
D03*
X26995D02*
D03*
X26837D02*
D03*
Y7999D02*
D03*
X27152D02*
D03*
X27310D02*
D03*
X32836Y7034D02*
D03*
X32679D02*
D03*
X32521D02*
D03*
X32364D02*
D03*
Y7999D02*
D03*
X32521D02*
D03*
X32679D02*
D03*
X32836D02*
D03*
X30073Y7034D02*
D03*
X29915D02*
D03*
X29758D02*
D03*
X29600D02*
D03*
Y7999D02*
D03*
X29758D02*
D03*
X29915D02*
D03*
X30073D02*
D03*
X24546Y7034D02*
D03*
X24389D02*
D03*
X24231D02*
D03*
X24074D02*
D03*
Y7999D02*
D03*
X24231D02*
D03*
X24389D02*
D03*
X24546D02*
D03*
D56*
X36055Y1354D02*
D03*
X34677D02*
D03*
X35366D02*
D03*
X36055Y2811D02*
D03*
X35366D02*
D03*
X34677D02*
D03*
X19910Y6913D02*
D03*
X20599D02*
D03*
X21288D02*
D03*
Y8370D02*
D03*
X20599D02*
D03*
X19910D02*
D03*
X8120Y872D02*
D03*
X7431Y2328D02*
D03*
X8809D02*
D03*
Y872D02*
D03*
X8120Y2328D02*
D03*
X7431Y872D02*
D03*
D57*
X30309Y985D02*
D03*
Y2560D02*
D03*
X27651Y985D02*
D03*
Y2560D02*
D03*
X48904Y985D02*
D03*
Y2560D02*
D03*
X46247Y985D02*
D03*
Y2560D02*
D03*
X44864Y985D02*
D03*
Y2560D02*
D03*
X42207Y985D02*
D03*
Y2560D02*
D03*
D58*
X40363Y7139D02*
D03*
Y6915D02*
D03*
X44407Y5949D02*
D03*
Y5724D02*
D03*
X17802Y8818D02*
D03*
Y8594D02*
D03*
X48070Y15117D02*
D03*
Y15341D02*
D03*
X15000Y14198D02*
D03*
Y14422D02*
D03*
X18406Y9799D02*
D03*
Y10023D02*
D03*
X46422Y9564D02*
D03*
Y9339D02*
D03*
X13060Y15252D02*
D03*
Y15028D02*
D03*
X14800Y6258D02*
D03*
Y6482D02*
D03*
X12700Y7728D02*
D03*
Y7952D02*
D03*
X45866Y5232D02*
D03*
Y5457D02*
D03*
X52982Y20616D02*
D03*
Y20841D02*
D03*
X36575Y10831D02*
D03*
Y10606D02*
D03*
X47393Y15344D02*
D03*
Y15120D02*
D03*
X50010Y2327D02*
D03*
Y2102D02*
D03*
X44163Y5949D02*
D03*
Y5724D02*
D03*
X44652Y5949D02*
D03*
Y5724D02*
D03*
X44896Y5949D02*
D03*
Y5724D02*
D03*
X45140Y5949D02*
D03*
Y5724D02*
D03*
X45384Y5949D02*
D03*
Y5724D02*
D03*
X37569Y7398D02*
D03*
Y7622D02*
D03*
X46368Y5409D02*
D03*
Y5634D02*
D03*
X45640Y5232D02*
D03*
Y5457D02*
D03*
X46171Y9564D02*
D03*
Y9339D02*
D03*
X46673Y9564D02*
D03*
Y9339D02*
D03*
X44272Y7959D02*
D03*
Y8183D02*
D03*
X43543Y7693D02*
D03*
Y7917D02*
D03*
X36950Y1358D02*
D03*
X14100Y6432D02*
D03*
X12830Y15252D02*
D03*
X13050Y7728D02*
D03*
X14100Y6208D02*
D03*
X13050Y7952D02*
D03*
X12830Y15028D02*
D03*
X28300Y16862D02*
D03*
Y16638D02*
D03*
X15857Y12604D02*
D03*
Y12828D02*
D03*
X17186Y9799D02*
D03*
Y10023D02*
D03*
X17048Y8559D02*
D03*
Y8784D02*
D03*
X45435Y12913D02*
D03*
Y12688D02*
D03*
X44115Y12913D02*
D03*
Y12688D02*
D03*
X46615D02*
D03*
Y12913D02*
D03*
X28520Y16432D02*
D03*
Y16208D02*
D03*
X28300Y16432D02*
D03*
Y16208D02*
D03*
X25400Y11002D02*
D03*
Y10778D02*
D03*
X41157Y23791D02*
D03*
Y23567D02*
D03*
X43010Y16888D02*
D03*
Y17112D02*
D03*
X43230Y16888D02*
D03*
Y17112D02*
D03*
X36950Y1582D02*
D03*
X29090Y7982D02*
D03*
Y7758D02*
D03*
X40761Y6915D02*
D03*
Y7139D02*
D03*
X21890Y10598D02*
D03*
Y10822D02*
D03*
X21653Y10598D02*
D03*
Y10822D02*
D03*
X21417Y10598D02*
D03*
Y10822D02*
D03*
X28520Y16862D02*
D03*
Y16638D02*
D03*
X21180Y10598D02*
D03*
Y10822D02*
D03*
X17730Y14658D02*
D03*
Y14882D02*
D03*
X17510Y14658D02*
D03*
Y14882D02*
D03*
X17290Y14658D02*
D03*
Y14882D02*
D03*
X17070Y14658D02*
D03*
Y14882D02*
D03*
X22520Y15442D02*
D03*
Y15218D02*
D03*
X40887Y23567D02*
D03*
Y23791D02*
D03*
X42254Y20572D02*
D03*
Y20347D02*
D03*
X45570Y21918D02*
D03*
Y22142D02*
D03*
X44867Y22222D02*
D03*
Y21997D02*
D03*
X47531Y15651D02*
D03*
Y15876D02*
D03*
X43731Y16053D02*
D03*
Y15828D02*
D03*
X47747Y15876D02*
D03*
Y15651D02*
D03*
X20200Y17428D02*
D03*
Y17652D02*
D03*
X14850Y10798D02*
D03*
Y11022D02*
D03*
X29310Y6612D02*
D03*
Y6388D02*
D03*
X30470Y4042D02*
D03*
Y3818D02*
D03*
X6740Y15342D02*
D03*
Y15118D02*
D03*
D59*
X5606Y14994D02*
D03*
Y15506D02*
D03*
Y15250D02*
D03*
X6294Y14994D02*
D03*
Y15250D02*
D03*
Y15506D02*
D03*
D60*
X5950Y15057D02*
D03*
Y15443D02*
D03*
D61*
X41112Y2767D02*
D03*
X39616D02*
D03*
D62*
X40560Y3673D02*
D03*
X40364D02*
D03*
X40167D02*
D03*
X39970D02*
D03*
X40757D02*
D03*
D63*
X1613Y9967D02*
D03*
X1239D02*
D03*
D64*
X43526Y20634D02*
D03*
D65*
Y21303D02*
D03*
X42719D02*
D03*
Y20555D02*
D03*
D66*
X41864Y20825D02*
D03*
Y20294D02*
D03*
X43338Y14858D02*
D03*
Y14326D02*
D03*
X43907Y7638D02*
D03*
Y8169D02*
D03*
X5380Y10418D02*
D03*
Y10949D02*
D03*
X7782D02*
D03*
Y10418D02*
D03*
X6886Y10949D02*
D03*
Y10418D02*
D03*
X7334Y10949D02*
D03*
Y10418D02*
D03*
X47028Y9400D02*
D03*
Y9931D02*
D03*
X15414Y14480D02*
D03*
Y13948D02*
D03*
X15857Y14480D02*
D03*
Y13948D02*
D03*
X44007Y16838D02*
D03*
Y17370D02*
D03*
X42875Y14484D02*
D03*
Y15015D02*
D03*
X43564Y17370D02*
D03*
Y16838D02*
D03*
D67*
X29000Y15018D02*
D03*
X29500D02*
D03*
X30000D02*
D03*
X30500D02*
D03*
X31000D02*
D03*
X29000Y13482D02*
D03*
X29500D02*
D03*
X30000D02*
D03*
X30500D02*
D03*
X31000D02*
D03*
X33500D02*
D03*
X33000D02*
D03*
X32500D02*
D03*
X32000D02*
D03*
X31500D02*
D03*
X33500Y15018D02*
D03*
X33000D02*
D03*
X32500D02*
D03*
X32000D02*
D03*
X31500D02*
D03*
X38970Y22502D02*
D03*
X38470D02*
D03*
X37970D02*
D03*
X37470D02*
D03*
X36970D02*
D03*
X38970Y24038D02*
D03*
X38470D02*
D03*
X37970D02*
D03*
X37470D02*
D03*
X36970D02*
D03*
D68*
X38375Y13000D02*
D03*
X36625D02*
D03*
X38375Y15000D02*
D03*
X36625D02*
D03*
Y21000D02*
D03*
X38375D02*
D03*
X36625Y20000D02*
D03*
X38375D02*
D03*
X36625Y19000D02*
D03*
X38375D02*
D03*
X36625Y18000D02*
D03*
X38375D02*
D03*
X36625Y17000D02*
D03*
X38375D02*
D03*
X36625Y16000D02*
D03*
X38375D02*
D03*
X36625Y14000D02*
D03*
X38375D02*
D03*
X36625Y12000D02*
D03*
X38375D02*
D03*
X26425Y12000D02*
D03*
X24675D02*
D03*
X26425Y13000D02*
D03*
X24675D02*
D03*
X26425Y14000D02*
D03*
X24675D02*
D03*
D69*
X31000Y21423D02*
D03*
Y22577D02*
D03*
X27000Y21423D02*
D03*
X30000D02*
D03*
X29000Y21423D02*
D03*
X34000Y21423D02*
D03*
X33000D02*
D03*
X27000Y22577D02*
D03*
X30000D02*
D03*
X29000D02*
D03*
X34000D02*
D03*
X33000D02*
D03*
X28000Y21423D02*
D03*
X32000D02*
D03*
X28000Y22577D02*
D03*
X32000D02*
D03*
X7400Y21423D02*
D03*
X13400D02*
D03*
X7400Y22577D02*
D03*
X13400D02*
D03*
X8400Y21423D02*
D03*
X9400Y21423D02*
D03*
X11400D02*
D03*
X12400D02*
D03*
X15400D02*
D03*
X16400D02*
D03*
X8400Y22577D02*
D03*
X9400D02*
D03*
X11400D02*
D03*
X12400D02*
D03*
X15400D02*
D03*
X16400D02*
D03*
X10400Y21423D02*
D03*
X14400Y21423D02*
D03*
X10400Y22577D02*
D03*
X14400D02*
D03*
X14000Y3577D02*
D03*
Y2423D02*
D03*
X18000Y3577D02*
D03*
X15000D02*
D03*
X16000Y3577D02*
D03*
X11000Y3577D02*
D03*
X12000D02*
D03*
X18000Y2423D02*
D03*
X15000D02*
D03*
X16000D02*
D03*
X11000D02*
D03*
X12000D02*
D03*
X17000Y3577D02*
D03*
X13000D02*
D03*
X17000Y2423D02*
D03*
X13000D02*
D03*
X23000Y3577D02*
D03*
X23000Y2423D02*
D03*
X25000Y3577D02*
D03*
X24000D02*
D03*
X21000D02*
D03*
X20000D02*
D03*
X25000Y2423D02*
D03*
X24000D02*
D03*
X21000D02*
D03*
X20000D02*
D03*
X22000Y3577D02*
D03*
Y2423D02*
D03*
X16400Y17423D02*
D03*
Y18577D02*
D03*
X15400D02*
D03*
Y17423D02*
D03*
X7400D02*
D03*
Y18577D02*
D03*
X11400D02*
D03*
Y17423D02*
D03*
X12400Y18577D02*
D03*
Y17423D02*
D03*
X10400Y18577D02*
D03*
Y17423D02*
D03*
X9400Y18577D02*
D03*
Y17423D02*
D03*
X8400D02*
D03*
Y18577D02*
D03*
X14400Y17423D02*
D03*
Y18577D02*
D03*
X13400Y17423D02*
D03*
Y18577D02*
D03*
X17400Y17423D02*
D03*
Y18577D02*
D03*
X18400Y17423D02*
D03*
Y18577D02*
D03*
X19400Y17423D02*
D03*
Y18577D02*
D03*
X22000Y21423D02*
D03*
Y22577D02*
D03*
X18000Y21423D02*
D03*
X21000D02*
D03*
X20000Y21423D02*
D03*
X25000Y21423D02*
D03*
X24000D02*
D03*
X18000Y22577D02*
D03*
X21000D02*
D03*
X20000D02*
D03*
X25000D02*
D03*
X24000D02*
D03*
X19000Y21423D02*
D03*
X23000D02*
D03*
X19000Y22577D02*
D03*
X23000D02*
D03*
D70*
X3870Y12226D02*
D03*
X3122D02*
D03*
Y13034D02*
D03*
D71*
X3791D02*
D03*
D72*
X2365Y13760D02*
D03*
Y11240D02*
D03*
D73*
X1400Y12028D02*
D03*
Y12972D02*
D03*
D74*
X2454Y11988D02*
D03*
Y12244D02*
D03*
Y13012D02*
D03*
Y12756D02*
D03*
Y12500D02*
D03*
D75*
X50768Y24104D02*
D03*
X5411Y1120D02*
D03*
D76*
X3660Y11440D02*
D03*
X4192D02*
D03*
X43229Y15468D02*
D03*
X43761D02*
D03*
X47137Y17112D02*
D03*
X46605D02*
D03*
X46703Y6112D02*
D03*
X47234D02*
D03*
X44606Y9705D02*
D03*
X43130Y9705D02*
D03*
X43661D02*
D03*
X6354Y7070D02*
D03*
X6886D02*
D03*
X7106Y3917D02*
D03*
X7638D02*
D03*
X44075Y9705D02*
D03*
X47994Y9152D02*
D03*
X47462D02*
D03*
X41094Y18140D02*
D03*
X41626D02*
D03*
X45513Y17466D02*
D03*
X44981D02*
D03*
D77*
X484Y4203D02*
D03*
Y5857D02*
D03*
D78*
X2010Y4833D02*
D03*
Y5227D02*
D03*
D79*
X49805Y21463D02*
D03*
X49255D02*
D03*
X49805Y22546D02*
D03*
X49255D02*
D03*
D80*
X14850Y10335D02*
D03*
Y9785D02*
D03*
D81*
X15118Y9439D02*
D03*
Y9261D02*
D03*
X46112Y5157D02*
D03*
Y4980D02*
D03*
X48406Y22632D02*
D03*
Y22455D02*
D03*
Y21550D02*
D03*
Y21372D02*
D03*
D82*
X14842Y9350D02*
D03*
X46388Y5069D02*
D03*
X48681Y22544D02*
D03*
Y21461D02*
D03*
D83*
X44440Y15980D02*
D03*
Y13460D02*
D03*
X46960D02*
D03*
Y15980D02*
D03*
X18809Y13090D02*
D03*
Y10570D02*
D03*
X16290D02*
D03*
Y13090D02*
D03*
D84*
X46566Y15980D02*
D03*
X46723Y13460D02*
D03*
X46566D02*
D03*
X46802Y13618D02*
D03*
Y15822D02*
D03*
X44440Y13696D02*
D03*
X46409Y13460D02*
D03*
X46251D02*
D03*
X46094D02*
D03*
X45936D02*
D03*
X45779D02*
D03*
X45621D02*
D03*
X45464D02*
D03*
X45306D02*
D03*
X45149D02*
D03*
X44991D02*
D03*
X44834D02*
D03*
X44676D02*
D03*
X46645Y13618D02*
D03*
X46487D02*
D03*
X46330D02*
D03*
X46172D02*
D03*
X46015D02*
D03*
X45857D02*
D03*
X45700D02*
D03*
X45542D02*
D03*
X45385D02*
D03*
X45227D02*
D03*
X45070D02*
D03*
X44912D02*
D03*
X44755D02*
D03*
X44597D02*
D03*
Y13775D02*
D03*
Y13933D02*
D03*
X44440Y13854D02*
D03*
Y14011D02*
D03*
X44597Y14090D02*
D03*
X46960Y14169D02*
D03*
X44440D02*
D03*
X44597Y14248D02*
D03*
X46960Y14326D02*
D03*
X44440D02*
D03*
X44597Y14405D02*
D03*
X46960Y14484D02*
D03*
X44440D02*
D03*
X44597Y14563D02*
D03*
X46960Y14641D02*
D03*
X44440D02*
D03*
X44597Y14720D02*
D03*
X46960Y14799D02*
D03*
X44440D02*
D03*
X44597Y14877D02*
D03*
X46960Y14956D02*
D03*
X44440D02*
D03*
X44597Y15035D02*
D03*
X46960Y15114D02*
D03*
X44440D02*
D03*
X44597Y15192D02*
D03*
X46960Y15271D02*
D03*
X44440D02*
D03*
X44597Y15350D02*
D03*
X46960Y15429D02*
D03*
X44440D02*
D03*
X44597Y15507D02*
D03*
X46960Y15586D02*
D03*
X44440D02*
D03*
X44597Y15665D02*
D03*
X46960Y15744D02*
D03*
X44440D02*
D03*
X46172Y15822D02*
D03*
X46015D02*
D03*
X45857D02*
D03*
X45700D02*
D03*
X45542D02*
D03*
X45385D02*
D03*
X45227D02*
D03*
X45070D02*
D03*
X44912D02*
D03*
X44755D02*
D03*
X44597D02*
D03*
X46409Y15980D02*
D03*
X46251D02*
D03*
X46094D02*
D03*
X45936D02*
D03*
X45779D02*
D03*
X45621D02*
D03*
X45464D02*
D03*
X44834D02*
D03*
X46330Y15822D02*
D03*
X46487D02*
D03*
X46645D02*
D03*
X46960Y14011D02*
D03*
Y13854D02*
D03*
Y13696D02*
D03*
X18809Y10806D02*
D03*
Y10964D02*
D03*
Y11121D02*
D03*
X18494Y12932D02*
D03*
X18337D02*
D03*
X18180D02*
D03*
X16683Y13090D02*
D03*
X17313D02*
D03*
X17471D02*
D03*
X17628D02*
D03*
X17786D02*
D03*
X17943D02*
D03*
X18101D02*
D03*
X18258D02*
D03*
X16447Y12932D02*
D03*
X16605D02*
D03*
X16762D02*
D03*
X16920D02*
D03*
X17077D02*
D03*
X17235D02*
D03*
X17392D02*
D03*
X17550D02*
D03*
X17707D02*
D03*
X17865D02*
D03*
X18022D02*
D03*
X16290Y12854D02*
D03*
X18809D02*
D03*
X16447Y12775D02*
D03*
X16290Y12696D02*
D03*
X18809D02*
D03*
X16447Y12617D02*
D03*
X16290Y12539D02*
D03*
X18809D02*
D03*
X16447Y12460D02*
D03*
X16290Y12381D02*
D03*
X18809D02*
D03*
X16447Y12302D02*
D03*
X16290Y12224D02*
D03*
X18809D02*
D03*
X16290Y12066D02*
D03*
X18809D02*
D03*
X16447Y11987D02*
D03*
X16290Y11909D02*
D03*
X18809D02*
D03*
X16447Y11830D02*
D03*
X16290Y11751D02*
D03*
X18809D02*
D03*
X16447Y11673D02*
D03*
X16290Y11594D02*
D03*
X18809D02*
D03*
X16447Y11515D02*
D03*
X16290Y11436D02*
D03*
X18809D02*
D03*
X16447Y11358D02*
D03*
X16290Y11279D02*
D03*
X18809D02*
D03*
X16447Y11200D02*
D03*
X16290Y11121D02*
D03*
Y10964D02*
D03*
X16447Y11043D02*
D03*
Y10728D02*
D03*
X16605D02*
D03*
X16762D02*
D03*
X16920D02*
D03*
X17077D02*
D03*
X17235D02*
D03*
X17392D02*
D03*
X17550D02*
D03*
X17707D02*
D03*
X17865D02*
D03*
X18022D02*
D03*
X18180D02*
D03*
X18337D02*
D03*
X18494D02*
D03*
X16526Y10570D02*
D03*
X16683D02*
D03*
X16841D02*
D03*
X16998D02*
D03*
X17156D02*
D03*
X17628D02*
D03*
X17786D02*
D03*
X18258D02*
D03*
X16290Y10806D02*
D03*
X18652Y12932D02*
D03*
Y10728D02*
D03*
X18416Y10570D02*
D03*
X18573D02*
D03*
X18416Y13090D02*
D03*
X16447Y10885D02*
D03*
Y12145D02*
D03*
X18101Y10570D02*
D03*
X17943D02*
D03*
X17313D02*
D03*
X17471D02*
D03*
D85*
X42836Y13746D02*
D03*
X43407D02*
D03*
D86*
X17451Y14115D02*
D03*
X17057D02*
D03*
X43594Y7061D02*
D03*
X43987D02*
D03*
X8113Y8842D02*
D03*
X8507D02*
D03*
X8957Y5463D02*
D03*
X9350D02*
D03*
X43987Y6726D02*
D03*
X43594D02*
D03*
X18741Y13808D02*
D03*
X19134D02*
D03*
X16920Y13771D02*
D03*
X17313D02*
D03*
X18357Y13808D02*
D03*
X17963D02*
D03*
X45405Y17064D02*
D03*
X45798D02*
D03*
X41164Y6644D02*
D03*
X40770D02*
D03*
X40364D02*
D03*
X39970D02*
D03*
X46891Y16718D02*
D03*
X47284D02*
D03*
X45188Y16730D02*
D03*
X45582D02*
D03*
D87*
X16428Y13926D02*
D03*
Y14320D02*
D03*
X45218Y9344D02*
D03*
Y9738D02*
D03*
X45552Y9738D02*
D03*
Y9344D02*
D03*
X44578Y16816D02*
D03*
Y17210D02*
D03*
X46202Y16836D02*
D03*
Y17230D02*
D03*
D88*
X20128Y13062D02*
D03*
X20581D02*
D03*
Y13633D02*
D03*
X20128D02*
D03*
X48279Y15952D02*
D03*
X48731D02*
D03*
Y16523D02*
D03*
X48279D02*
D03*
D89*
X49298Y7263D02*
D03*
X49495D02*
D03*
X49692D02*
D03*
X49298Y7617D02*
D03*
X49495D02*
D03*
X49692D02*
D03*
D90*
X46083Y10394D02*
D03*
X46083Y10059D02*
D03*
X46535D02*
D03*
X46535Y10394D02*
D03*
D91*
X44015Y8970D02*
D03*
X43161D02*
D03*
D92*
X42111Y17851D02*
D03*
Y18009D02*
D03*
X42269Y17851D02*
D03*
Y18009D02*
D03*
X11937Y6687D02*
D03*
X11779D02*
D03*
X11937Y6845D02*
D03*
X11779D02*
D03*
X10149Y7119D02*
D03*
X9991D02*
D03*
X10149Y6961D02*
D03*
X9991D02*
D03*
X46762Y5581D02*
D03*
X46919D02*
D03*
X46762Y5423D02*
D03*
X46919D02*
D03*
X9259Y7119D02*
D03*
X10899Y12029D02*
D03*
Y11871D02*
D03*
X10741Y12029D02*
D03*
Y11871D02*
D03*
X9259Y6961D02*
D03*
X9101Y7119D02*
D03*
Y6961D02*
D03*
D93*
X7776Y7960D02*
D03*
X8544D02*
D03*
Y7763D02*
D03*
Y8157D02*
D03*
X7776Y7763D02*
D03*
X8564Y4813D02*
D03*
Y4616D02*
D03*
X9331D02*
D03*
Y4813D02*
D03*
Y5010D02*
D03*
D94*
X7776Y8177D02*
D03*
X8564Y5030D02*
D03*
D95*
X6335Y10566D02*
D03*
X6138D02*
D03*
X5941D02*
D03*
Y11333D02*
D03*
X6138D02*
D03*
D96*
X6355D02*
D03*
D97*
X8659Y9766D02*
D03*
X10981D02*
D03*
Y10022D02*
D03*
Y10278D02*
D03*
Y10534D02*
D03*
X8659D02*
D03*
Y10278D02*
D03*
Y10022D02*
D03*
D98*
X3160Y732D02*
D03*
X2176D02*
D03*
X1192Y3488D02*
D03*
X2176D02*
D03*
X3160D02*
D03*
X1192Y732D02*
D03*
D99*
X9700Y8400D02*
D03*
D100*
X9641Y8991D02*
D03*
Y7809D02*
D03*
D101*
X14509Y6212D02*
D03*
X14331D02*
D03*
X13139Y6962D02*
D03*
X12961D02*
D03*
X12521Y7238D02*
D03*
X12699D02*
D03*
X19686Y10880D02*
D03*
X19863D02*
D03*
D102*
X14420Y6488D02*
D03*
X13050Y7238D02*
D03*
X12610Y6962D02*
D03*
X19775Y10605D02*
D03*
D103*
X4724Y20657D02*
D03*
Y19657D02*
D03*
Y17429D02*
D03*
Y16429D02*
D03*
Y8090D02*
D03*
Y7090D02*
D03*
D104*
X6227Y9571D02*
D03*
X5400D02*
D03*
D105*
X6850Y8413D02*
D03*
Y7547D02*
D03*
X7637Y5266D02*
D03*
Y4400D02*
D03*
D106*
X9620Y11884D02*
D03*
Y11553D02*
D03*
X10260Y11884D02*
D03*
X3002Y4811D02*
D03*
X9940Y11884D02*
D03*
X10260Y11553D02*
D03*
X9940D02*
D03*
X3002Y4480D02*
D03*
D107*
X9756Y5463D02*
D03*
X10087D02*
D03*
X8472Y9301D02*
D03*
X8142D02*
D03*
D108*
X52982Y22598D02*
D03*
X53494D02*
D03*
X52982Y21417D02*
D03*
X53494D02*
D03*
D109*
X38073Y10193D02*
D03*
X37573D02*
D03*
X37073D02*
D03*
X36573D02*
D03*
X38073Y8012D02*
D03*
X37573D02*
D03*
X37073D02*
D03*
X36573D02*
D03*
D110*
X53150Y2933D02*
D03*
Y1673D02*
D03*
D111*
X48976Y10951D02*
D03*
Y11864D02*
D03*
X49498Y5557D02*
D03*
Y6470D02*
D03*
D112*
X48573Y11033D02*
D03*
X49380D02*
D03*
Y11782D02*
D03*
X48573D02*
D03*
X49094Y5640D02*
D03*
X49902D02*
D03*
Y6388D02*
D03*
X49094D02*
D03*
D113*
X45542Y8901D02*
D03*
X46645D02*
D03*
X46645Y6539D02*
D03*
X46487D02*
D03*
X46330D02*
D03*
X46015D02*
D03*
X45857D02*
D03*
X45700D02*
D03*
X45542D02*
D03*
X45385D02*
D03*
X45227D02*
D03*
X45070D02*
D03*
X44913D02*
D03*
Y8901D02*
D03*
X45070D02*
D03*
X45227D02*
D03*
X45385D02*
D03*
X45700D02*
D03*
X45857D02*
D03*
X46015D02*
D03*
X46172D02*
D03*
X46487D02*
D03*
X46330D02*
D03*
X46172Y6539D02*
D03*
D114*
X44598Y8586D02*
D03*
Y7641D02*
D03*
Y7169D02*
D03*
X46960Y6854D02*
D03*
X44598Y7326D02*
D03*
Y7799D02*
D03*
Y7956D02*
D03*
Y8114D02*
D03*
Y8271D02*
D03*
Y8429D02*
D03*
X46960Y8586D02*
D03*
Y8429D02*
D03*
Y8271D02*
D03*
Y7956D02*
D03*
Y7799D02*
D03*
Y7641D02*
D03*
Y7484D02*
D03*
Y7326D02*
D03*
Y7169D02*
D03*
Y7011D02*
D03*
X44598Y7484D02*
D03*
Y6854D02*
D03*
Y7011D02*
D03*
X46960Y8114D02*
D03*
D115*
X45779Y7720D02*
D03*
D116*
X43004Y22547D02*
D03*
X43259D02*
D03*
X43515D02*
D03*
X42748D02*
D03*
X42492D02*
D03*
D117*
X43476Y23600D02*
D03*
X42531D02*
D03*
D118*
X41744Y22635D02*
D03*
X44263D02*
D03*
D119*
X762Y22140D02*
D03*
Y22640D02*
D03*
Y23140D02*
D03*
Y23640D02*
D03*
Y24140D02*
D03*
X2298Y22140D02*
D03*
Y22640D02*
D03*
Y23140D02*
D03*
Y23640D02*
D03*
Y24140D02*
D03*
D120*
X40557Y23866D02*
D03*
Y23492D02*
D03*
X2900Y11190D02*
D03*
Y11564D02*
D03*
X41474Y20263D02*
D03*
Y20637D02*
D03*
X2860Y15227D02*
D03*
Y14853D02*
D03*
X45217Y21923D02*
D03*
Y22297D02*
D03*
M02*
