G04*
G04 #@! TF.GenerationSoftware,Altium Limited,Altium Designer,22.10.1 (41)*
G04*
G04 Layer_Color=8388736*
%FSLAX24Y24*%
%MOIN*%
G70*
G04*
G04 #@! TF.SameCoordinates,909E230D-C440-470E-9760-442CD84647A0*
G04*
G04*
G04 #@! TF.FilePolarity,Negative*
G04*
G01*
G75*
%ADD121C,0.0240*%
%ADD122R,0.0161X0.0161*%
%ADD123R,0.0146X0.0157*%
%ADD124C,0.0118*%
%ADD125O,0.0287X0.0118*%
%ADD126O,0.0118X0.0287*%
%ADD127R,0.0433X0.0669*%
%ADD128R,0.1122X0.0591*%
%ADD129R,0.0157X0.0146*%
%ADD130R,0.0157X0.0177*%
%ADD131R,0.0453X0.0323*%
%ADD132R,0.0276X0.1063*%
%ADD133R,0.0157X0.0354*%
%ADD134R,0.0295X0.0236*%
%ADD135R,0.0374X0.0433*%
%ADD136R,0.0374X0.0276*%
%ADD137R,0.0354X0.0335*%
%ADD138R,0.0339X0.0984*%
%ADD139R,0.1539X0.0539*%
%ADD140R,0.0441X0.0902*%
%ADD141R,0.0276X0.0374*%
%ADD142R,0.0433X0.0374*%
%ADD143R,0.0591X0.0669*%
%ADD144R,0.0650X0.0787*%
%ADD145R,0.0591X0.0217*%
%ADD146C,0.0787*%
%ADD147C,0.0349*%
%ADD148R,0.0335X0.0354*%
%ADD149R,0.0748X0.0512*%
%ADD150R,0.0650X0.0276*%
%ADD151R,0.0339X0.0359*%
%ADD152R,0.0359X0.0339*%
%ADD153R,0.0197X0.0138*%
%ADD154R,0.0209X0.0327*%
%ADD155C,0.0197*%
%ADD156C,0.0120*%
%ADD157R,0.2165X0.2008*%
%ADD158R,0.0335X0.0591*%
%ADD159R,0.0276X0.0236*%
%ADD160R,0.0236X0.0276*%
%ADD161R,0.0374X0.0413*%
%ADD162R,0.0161X0.0260*%
%ADD163R,0.0295X0.0256*%
%ADD164R,0.0524X0.0913*%
%ADD165C,0.0124*%
%ADD166R,0.0236X0.0157*%
%ADD167R,0.0394X0.0748*%
%ADD168R,0.0236X0.0197*%
%ADD169R,0.0748X0.0394*%
%ADD170R,0.0157X0.0236*%
%ADD171R,0.0197X0.0236*%
%ADD172O,0.0591X0.0197*%
%ADD173C,0.0433*%
%ADD174R,0.0433X0.0630*%
%ADD175R,0.0709X0.0276*%
%ADD176R,0.0591X0.0276*%
%ADD177R,0.0138X0.0197*%
%ADD178R,0.0327X0.0209*%
%ADD179R,0.1291X0.0539*%
%ADD180R,0.0433X0.1378*%
%ADD181R,0.1102X0.0354*%
%ADD182R,0.0138X0.0181*%
%ADD183R,0.0181X0.0138*%
%ADD184R,0.0276X0.0434*%
%ADD185R,0.1614X0.1378*%
%ADD186R,0.0217X0.0492*%
%ADD187R,0.0670X0.0434*%
%ADD188R,0.0236X0.0268*%
%ADD189R,0.0335X0.0354*%
%ADD190O,0.0126X0.0323*%
%ADD191O,0.0323X0.0126*%
%ADD192R,0.1850X0.1850*%
%ADD193R,0.0181X0.0169*%
%ADD194R,0.0217X0.0591*%
%ADD195R,0.0787X0.0650*%
%ADD196R,0.0669X0.0591*%
%ADD197R,0.0984X0.0339*%
%ADD198R,0.0236X0.0295*%
%ADD199C,0.0630*%
%ADD200R,0.0630X0.0630*%
%ADD201O,0.0669X0.0394*%
%ADD202C,0.0450*%
%ADD203R,0.0630X0.0630*%
%ADD204C,0.0740*%
%ADD205O,0.0394X0.0669*%
%ADD206C,0.1299*%
G36*
X11080Y8794D02*
X11082Y8793D01*
X11085Y8793D01*
X11086Y8792D01*
X11089Y8790D01*
X11092Y8788D01*
X11348Y8532D01*
X11348Y8532D01*
X11349Y8531D01*
X11351Y8529D01*
X11353Y8526D01*
X11354Y8522D01*
X11354Y8522D01*
X11354Y8518D01*
X11354Y8518D01*
Y8282D01*
X11354Y8282D01*
X11354Y8280D01*
X11354Y8278D01*
X11353Y8275D01*
X11353Y8274D01*
X11351Y8271D01*
X11348Y8268D01*
X11092Y8012D01*
X11092Y8012D01*
X11091Y8011D01*
X11089Y8010D01*
X11086Y8008D01*
X11082Y8007D01*
X11082Y8007D01*
X11078Y8006D01*
X11078Y8006D01*
X10291D01*
X10291Y8006D01*
X10289Y8006D01*
X10287Y8007D01*
X10284Y8007D01*
X10283Y8008D01*
X10280Y8010D01*
X10277Y8012D01*
X10021Y8268D01*
X10019Y8271D01*
X10017Y8274D01*
X10016Y8275D01*
X10016Y8278D01*
X10015Y8280D01*
X10015Y8282D01*
X10015Y8282D01*
Y8518D01*
X10015Y8518D01*
X10015Y8520D01*
X10016Y8522D01*
X10016Y8525D01*
X10017Y8526D01*
X10019Y8529D01*
X10021Y8532D01*
X10277Y8788D01*
X10280Y8790D01*
X10283Y8792D01*
X10284Y8793D01*
X10287Y8793D01*
X10289Y8794D01*
X10291Y8794D01*
X10291Y8794D01*
X11078D01*
X11078Y8794D01*
X11080Y8794D01*
D02*
G37*
D121*
X33495Y17530D02*
G03*
X33495Y17530I-110J0D01*
G01*
X33517D02*
G03*
X33517Y17530I-110J0D01*
G01*
X30951Y7253D02*
G03*
X30951Y7253I-110J0D01*
G01*
X30929D02*
G03*
X30929Y7253I-110J0D01*
G01*
X47858Y22263D02*
G03*
X47858Y22263I-110J0D01*
G01*
X47836D02*
G03*
X47836Y22263I-110J0D01*
G01*
X41241Y16100D02*
G03*
X41241Y16100I-110J0D01*
G01*
X41769D02*
G03*
X41769Y16100I-110J0D01*
G01*
X41791D02*
G03*
X41791Y16100I-110J0D01*
G01*
X30711Y3460D02*
G03*
X30711Y3460I-110J0D01*
G01*
X31786Y7437D02*
G03*
X31786Y7437I-110J0D01*
G01*
X31808D02*
G03*
X31808Y7437I-110J0D01*
G01*
X33648Y7030D02*
G03*
X33648Y7030I-110J0D01*
G01*
X33626D02*
G03*
X33626Y7030I-110J0D01*
G01*
X3501Y23676D02*
G03*
X3501Y23676I-110J0D01*
G01*
X9780Y6571D02*
G03*
X9780Y6571I-110J0D01*
G01*
X19160Y4241D02*
G03*
X19160Y4241I-110J0D01*
G01*
Y4219D02*
G03*
X19160Y4219I-110J0D01*
G01*
X11979Y6296D02*
G03*
X11979Y6296I-110J0D01*
G01*
X43280Y7913D02*
G03*
X43280Y7913I-110J0D01*
G01*
X43258D02*
G03*
X43258Y7913I-110J0D01*
G01*
X36222Y10474D02*
G03*
X36222Y10474I-110J0D01*
G01*
Y10452D02*
G03*
X36222Y10452I-110J0D01*
G01*
X33507Y16821D02*
G03*
X33507Y16821I-110J0D01*
G01*
X42621Y9360D02*
G03*
X42621Y9360I-110J0D01*
G01*
X42385Y8770D02*
G03*
X42385Y8770I-110J0D01*
G01*
X42148Y8179D02*
G03*
X42148Y8179I-110J0D01*
G01*
X41902Y9360D02*
G03*
X41902Y9360I-110J0D01*
G01*
X41430Y8179D02*
G03*
X41430Y8179I-110J0D01*
G01*
X41666Y8770D02*
G03*
X41666Y8770I-110J0D01*
G01*
X36222Y10985D02*
G03*
X36222Y10985I-110J0D01*
G01*
X32857Y16821D02*
G03*
X32857Y16821I-110J0D01*
G01*
X32867Y17530D02*
G03*
X32867Y17530I-110J0D01*
G01*
X32845D02*
G03*
X32845Y17530I-110J0D01*
G01*
X11630Y11861D02*
G03*
X11630Y11861I-110J0D01*
G01*
X41730Y17629D02*
G03*
X41730Y17629I-110J0D01*
G01*
X37570Y1481D02*
G03*
X37570Y1481I-110J0D01*
G01*
X33648Y7750D02*
G03*
X33648Y7750I-110J0D01*
G01*
X33626D02*
G03*
X33626Y7750I-110J0D01*
G01*
X32634Y8628D02*
G03*
X32634Y8628I-110J0D01*
G01*
Y8606D02*
G03*
X32634Y8606I-110J0D01*
G01*
X28121Y7030D02*
G03*
X28121Y7030I-110J0D01*
G01*
X28099D02*
G03*
X28099Y7030I-110J0D01*
G01*
X23421Y7280D02*
G03*
X23421Y7280I-110J0D01*
G01*
X23399D02*
G03*
X23399Y7280I-110J0D01*
G01*
X24180Y8609D02*
G03*
X24180Y8609I-110J0D01*
G01*
Y8631D02*
G03*
X24180Y8631I-110J0D01*
G01*
X25409Y7760D02*
G03*
X25409Y7760I-110J0D01*
G01*
X25431D02*
G03*
X25431Y7760I-110J0D01*
G01*
X25409Y7030D02*
G03*
X25409Y7030I-110J0D01*
G01*
X25431D02*
G03*
X25431Y7030I-110J0D01*
G01*
X27107Y8606D02*
G03*
X27107Y8606I-110J0D01*
G01*
Y8628D02*
G03*
X27107Y8628I-110J0D01*
G01*
X28099Y7750D02*
G03*
X28099Y7750I-110J0D01*
G01*
X28121D02*
G03*
X28121Y7750I-110J0D01*
G01*
X3501Y24176D02*
G03*
X3501Y24176I-110J0D01*
G01*
X30241Y6260D02*
G03*
X30241Y6260I-110J0D01*
G01*
X30929Y8280D02*
G03*
X30929Y8280I-110J0D01*
G01*
Y7767D02*
G03*
X30929Y7767I-110J0D01*
G01*
Y6740D02*
G03*
X30929Y6740I-110J0D01*
G01*
X26090Y10799D02*
G03*
X26090Y10799I-110J0D01*
G01*
Y10821D02*
G03*
X26090Y10821I-110J0D01*
G01*
X26590Y10809D02*
G03*
X26590Y10809I-110J0D01*
G01*
X47858Y21760D02*
G03*
X47858Y21760I-110J0D01*
G01*
X47836D02*
G03*
X47836Y21760I-110J0D01*
G01*
X41241Y15250D02*
G03*
X41241Y15250I-110J0D01*
G01*
X41769D02*
G03*
X41769Y15250I-110J0D01*
G01*
X41791D02*
G03*
X41791Y15250I-110J0D01*
G01*
X26259Y7437D02*
G03*
X26259Y7437I-110J0D01*
G01*
X26281D02*
G03*
X26281Y7437I-110J0D01*
G01*
D122*
X48976Y8425D02*
D03*
X49134D02*
D03*
X48976Y8268D02*
D03*
X49134D02*
D03*
X48976Y8110D02*
D03*
X49134D02*
D03*
X48671Y14961D02*
D03*
X48514D02*
D03*
X48671Y15118D02*
D03*
X48514D02*
D03*
X48671Y15276D02*
D03*
X48514D02*
D03*
D123*
X50230Y1693D02*
D03*
X50006D02*
D03*
X52758Y21053D02*
D03*
X52982D02*
D03*
Y20404D02*
D03*
X52758D02*
D03*
X39925Y7136D02*
D03*
X40149D02*
D03*
X47478Y14670D02*
D03*
X47702D02*
D03*
X48756Y8770D02*
D03*
X48980D02*
D03*
X19648Y11150D02*
D03*
X19872D02*
D03*
X47615Y15117D02*
D03*
X47839D02*
D03*
X7388Y6900D02*
D03*
X7612D02*
D03*
X12474Y7486D02*
D03*
X12699D02*
D03*
X49268Y6762D02*
D03*
X49492D02*
D03*
X47309Y6703D02*
D03*
X47533D02*
D03*
X48283Y14606D02*
D03*
X48508D02*
D03*
X36846Y10600D02*
D03*
X37071D02*
D03*
X50004Y2539D02*
D03*
X49780D02*
D03*
X8185Y3976D02*
D03*
X8410D02*
D03*
X43196Y13332D02*
D03*
X43420D02*
D03*
X49780Y1900D02*
D03*
X50004D02*
D03*
X46382Y4616D02*
D03*
X46157D02*
D03*
X43913Y7336D02*
D03*
X43688D02*
D03*
X7612Y7120D02*
D03*
X7388D02*
D03*
X8102Y7120D02*
D03*
X7878D02*
D03*
X8665Y3976D02*
D03*
X8890D02*
D03*
X8185Y3750D02*
D03*
X8410D02*
D03*
X47438Y8773D02*
D03*
X47663D02*
D03*
X47663Y8509D02*
D03*
X47438D02*
D03*
X10728Y11100D02*
D03*
X10952D02*
D03*
X11312Y6540D02*
D03*
X11088D02*
D03*
X19347Y12800D02*
D03*
X19571D02*
D03*
X19347Y12220D02*
D03*
X19571D02*
D03*
X47722Y16462D02*
D03*
X47497D02*
D03*
X19571Y11958D02*
D03*
X19347D02*
D03*
X19493Y13451D02*
D03*
X19268D02*
D03*
X15861Y11781D02*
D03*
X15636D02*
D03*
X15636Y10846D02*
D03*
X15861D02*
D03*
X18260Y13523D02*
D03*
X18035D02*
D03*
X19571Y12470D02*
D03*
X19347D02*
D03*
X40975Y7136D02*
D03*
X41199D02*
D03*
X32298Y6620D02*
D03*
X32522D02*
D03*
X42422Y16840D02*
D03*
X42198D02*
D03*
X1246Y10310D02*
D03*
X1471D02*
D03*
X3664Y11840D02*
D03*
X3888D02*
D03*
X2852Y15560D02*
D03*
X2628D02*
D03*
X3082Y14520D02*
D03*
X2858D02*
D03*
X29749Y6600D02*
D03*
X29524D02*
D03*
X24222Y6620D02*
D03*
X23998D02*
D03*
X26996D02*
D03*
X26771D02*
D03*
X46607Y16413D02*
D03*
X46383D02*
D03*
X1246Y10590D02*
D03*
X1471D02*
D03*
X50543Y21463D02*
D03*
X50318D02*
D03*
X50543Y22546D02*
D03*
X50318D02*
D03*
X5872Y14540D02*
D03*
X5648D02*
D03*
D124*
X33263Y17530D02*
D03*
X33529D02*
D03*
X30963Y7253D02*
D03*
X30697D02*
D03*
X47870Y22263D02*
D03*
X47604D02*
D03*
X41253Y16100D02*
D03*
X41007D02*
D03*
X41537D02*
D03*
X41803D02*
D03*
X30477Y3460D02*
D03*
X30723D02*
D03*
X31554Y7437D02*
D03*
X31820D02*
D03*
X33660Y7030D02*
D03*
X33394D02*
D03*
X3513Y23676D02*
D03*
X3267D02*
D03*
X9670Y6693D02*
D03*
Y6447D02*
D03*
X19050Y4097D02*
D03*
Y4363D02*
D03*
X11991Y6296D02*
D03*
X11745D02*
D03*
X43292Y7913D02*
D03*
X43026D02*
D03*
X36112Y10596D02*
D03*
Y10330D02*
D03*
X33273Y16821D02*
D03*
X33519D02*
D03*
X42633Y9360D02*
D03*
X42387D02*
D03*
X42397Y8770D02*
D03*
X42151D02*
D03*
X41914Y8179D02*
D03*
X42160D02*
D03*
X41914Y9360D02*
D03*
X41668D02*
D03*
X41196Y8179D02*
D03*
X41442D02*
D03*
X41432Y8770D02*
D03*
X41678D02*
D03*
X36112Y11107D02*
D03*
Y10861D02*
D03*
X32869Y16821D02*
D03*
X32623D02*
D03*
X32879Y17530D02*
D03*
X32613D02*
D03*
X37460Y1357D02*
D03*
X11520Y11983D02*
D03*
Y11737D02*
D03*
X41620Y17507D02*
D03*
Y17753D02*
D03*
X37460Y1603D02*
D03*
X33660Y7750D02*
D03*
X33394D02*
D03*
X32524Y8750D02*
D03*
Y8484D02*
D03*
X28133Y7030D02*
D03*
X27867D02*
D03*
X23433Y7280D02*
D03*
X23167D02*
D03*
X24070Y8487D02*
D03*
Y8753D02*
D03*
X25177Y7760D02*
D03*
X25443D02*
D03*
X25177Y7030D02*
D03*
X25443D02*
D03*
X26997Y8484D02*
D03*
Y8750D02*
D03*
X27867Y7750D02*
D03*
X28133D02*
D03*
X3513Y24176D02*
D03*
X3267D02*
D03*
X30253Y6260D02*
D03*
X30007D02*
D03*
X30697Y8280D02*
D03*
X30943D02*
D03*
X30697Y7767D02*
D03*
X30943D02*
D03*
X30697Y6740D02*
D03*
X30943D02*
D03*
X25980Y10677D02*
D03*
Y10943D02*
D03*
X26480Y10687D02*
D03*
Y10933D02*
D03*
X47870Y21760D02*
D03*
X47604D02*
D03*
X41253Y15250D02*
D03*
X41007D02*
D03*
X41537D02*
D03*
X41803D02*
D03*
X26027Y7437D02*
D03*
X26293D02*
D03*
D125*
X27398Y7752D02*
D03*
X26749Y7437D02*
D03*
Y7280D02*
D03*
Y7595D02*
D03*
Y7752D02*
D03*
X27398Y7595D02*
D03*
Y7437D02*
D03*
Y7280D02*
D03*
X32275D02*
D03*
Y7437D02*
D03*
Y7595D02*
D03*
Y7752D02*
D03*
X32925D02*
D03*
Y7595D02*
D03*
Y7437D02*
D03*
Y7280D02*
D03*
X29512D02*
D03*
Y7437D02*
D03*
Y7595D02*
D03*
Y7752D02*
D03*
X30161D02*
D03*
Y7595D02*
D03*
Y7437D02*
D03*
Y7280D02*
D03*
X23985D02*
D03*
Y7437D02*
D03*
Y7595D02*
D03*
Y7752D02*
D03*
X24635D02*
D03*
Y7595D02*
D03*
Y7437D02*
D03*
Y7280D02*
D03*
D126*
X27310Y7034D02*
D03*
X26995Y7999D02*
D03*
X27152Y7034D02*
D03*
X26995D02*
D03*
X26837D02*
D03*
Y7999D02*
D03*
X27152D02*
D03*
X27310D02*
D03*
X32836Y7034D02*
D03*
X32679D02*
D03*
X32521D02*
D03*
X32364D02*
D03*
Y7999D02*
D03*
X32521D02*
D03*
X32679D02*
D03*
X32836D02*
D03*
X30073Y7034D02*
D03*
X29915D02*
D03*
X29758D02*
D03*
X29600D02*
D03*
Y7999D02*
D03*
X29758D02*
D03*
X29915D02*
D03*
X30073D02*
D03*
X24546Y7034D02*
D03*
X24389D02*
D03*
X24231D02*
D03*
X24074D02*
D03*
Y7999D02*
D03*
X24231D02*
D03*
X24389D02*
D03*
X24546D02*
D03*
D127*
X36055Y1354D02*
D03*
X34677D02*
D03*
X35366D02*
D03*
X36055Y2811D02*
D03*
X35366D02*
D03*
X34677D02*
D03*
X19910Y6913D02*
D03*
X20599D02*
D03*
X21288D02*
D03*
Y8370D02*
D03*
X20599D02*
D03*
X19910D02*
D03*
X8120Y872D02*
D03*
X7431Y2328D02*
D03*
X8809D02*
D03*
Y872D02*
D03*
X8120Y2328D02*
D03*
X7431Y872D02*
D03*
D128*
X30309Y985D02*
D03*
Y2560D02*
D03*
X27651Y985D02*
D03*
Y2560D02*
D03*
X48904Y985D02*
D03*
Y2560D02*
D03*
X46247Y985D02*
D03*
Y2560D02*
D03*
X44864Y985D02*
D03*
Y2560D02*
D03*
X42207Y985D02*
D03*
Y2560D02*
D03*
D129*
X40363Y7139D02*
D03*
Y6915D02*
D03*
X44407Y5949D02*
D03*
Y5724D02*
D03*
X17802Y8818D02*
D03*
Y8594D02*
D03*
X48070Y15117D02*
D03*
Y15341D02*
D03*
X15000Y14198D02*
D03*
Y14422D02*
D03*
X18406Y9799D02*
D03*
Y10023D02*
D03*
X46422Y9564D02*
D03*
Y9339D02*
D03*
X13060Y15252D02*
D03*
Y15028D02*
D03*
X14800Y6258D02*
D03*
Y6482D02*
D03*
X12700Y7728D02*
D03*
Y7952D02*
D03*
X45866Y5232D02*
D03*
Y5457D02*
D03*
X52982Y20616D02*
D03*
Y20841D02*
D03*
X36575Y10831D02*
D03*
Y10606D02*
D03*
X47393Y15344D02*
D03*
Y15120D02*
D03*
X50010Y2327D02*
D03*
Y2102D02*
D03*
X44163Y5949D02*
D03*
Y5724D02*
D03*
X44652Y5949D02*
D03*
Y5724D02*
D03*
X44896Y5949D02*
D03*
Y5724D02*
D03*
X45140Y5949D02*
D03*
Y5724D02*
D03*
X45384Y5949D02*
D03*
Y5724D02*
D03*
X37569Y7398D02*
D03*
Y7622D02*
D03*
X46368Y5409D02*
D03*
Y5634D02*
D03*
X45640Y5232D02*
D03*
Y5457D02*
D03*
X46171Y9564D02*
D03*
Y9339D02*
D03*
X46673Y9564D02*
D03*
Y9339D02*
D03*
X44272Y7959D02*
D03*
Y8183D02*
D03*
X43543Y7693D02*
D03*
Y7917D02*
D03*
X36950Y1358D02*
D03*
X14100Y6432D02*
D03*
X12830Y15252D02*
D03*
X13050Y7728D02*
D03*
X14100Y6208D02*
D03*
X13050Y7952D02*
D03*
X12830Y15028D02*
D03*
X15857Y12604D02*
D03*
Y12828D02*
D03*
X17186Y9799D02*
D03*
Y10023D02*
D03*
X17048Y8559D02*
D03*
Y8784D02*
D03*
X45435Y12913D02*
D03*
Y12688D02*
D03*
X44115Y12913D02*
D03*
Y12688D02*
D03*
X46615D02*
D03*
Y12913D02*
D03*
X28520Y16432D02*
D03*
Y16208D02*
D03*
X28300Y16432D02*
D03*
Y16208D02*
D03*
X25400Y11002D02*
D03*
Y10778D02*
D03*
X41157Y23791D02*
D03*
Y23567D02*
D03*
X43010Y16888D02*
D03*
Y17112D02*
D03*
X43230Y16888D02*
D03*
Y17112D02*
D03*
X36950Y1582D02*
D03*
X29090Y7982D02*
D03*
Y7758D02*
D03*
X40761Y6915D02*
D03*
Y7139D02*
D03*
X21890Y10598D02*
D03*
Y10822D02*
D03*
X21653Y10598D02*
D03*
Y10822D02*
D03*
X21417Y10598D02*
D03*
Y10822D02*
D03*
X21180Y10598D02*
D03*
Y10822D02*
D03*
X17730Y14658D02*
D03*
Y14882D02*
D03*
X17510Y14658D02*
D03*
Y14882D02*
D03*
X17290Y14658D02*
D03*
Y14882D02*
D03*
X17070Y14658D02*
D03*
Y14882D02*
D03*
X22520Y15442D02*
D03*
Y15218D02*
D03*
X40887Y23567D02*
D03*
Y23791D02*
D03*
X42254Y20572D02*
D03*
Y20347D02*
D03*
X45570Y21918D02*
D03*
Y22142D02*
D03*
X44867Y22222D02*
D03*
Y21997D02*
D03*
X47531Y15651D02*
D03*
Y15876D02*
D03*
X43731Y16053D02*
D03*
Y15828D02*
D03*
X47747Y15876D02*
D03*
Y15651D02*
D03*
X20200Y17428D02*
D03*
Y17652D02*
D03*
X14850Y10798D02*
D03*
Y11022D02*
D03*
X29310Y6612D02*
D03*
Y6388D02*
D03*
X30470Y4042D02*
D03*
Y3818D02*
D03*
X6740Y15342D02*
D03*
Y15118D02*
D03*
D130*
X5606Y14994D02*
D03*
Y15506D02*
D03*
Y15250D02*
D03*
X6294Y14994D02*
D03*
Y15250D02*
D03*
Y15506D02*
D03*
D131*
X5950Y15057D02*
D03*
Y15443D02*
D03*
D132*
X41112Y2767D02*
D03*
X39616D02*
D03*
D133*
X40560Y3673D02*
D03*
X40364D02*
D03*
X40167D02*
D03*
X39970D02*
D03*
X40757D02*
D03*
D134*
X1613Y9967D02*
D03*
X1239D02*
D03*
D135*
X43526Y20634D02*
D03*
D136*
Y21303D02*
D03*
X42719D02*
D03*
Y20555D02*
D03*
D137*
X41864Y20825D02*
D03*
Y20294D02*
D03*
X43338Y14858D02*
D03*
Y14326D02*
D03*
X43907Y7638D02*
D03*
Y8169D02*
D03*
X5380Y10418D02*
D03*
Y10949D02*
D03*
X7782D02*
D03*
Y10418D02*
D03*
X6886Y10949D02*
D03*
Y10418D02*
D03*
X7334Y10949D02*
D03*
Y10418D02*
D03*
X47028Y9400D02*
D03*
Y9931D02*
D03*
X15414Y14480D02*
D03*
Y13948D02*
D03*
X15857Y14480D02*
D03*
Y13948D02*
D03*
X44007Y16838D02*
D03*
Y17370D02*
D03*
X42875Y14484D02*
D03*
Y15015D02*
D03*
X43564Y17370D02*
D03*
Y16838D02*
D03*
D138*
X29000Y15018D02*
D03*
X29500D02*
D03*
X30000D02*
D03*
X30500D02*
D03*
X31000D02*
D03*
X29000Y13482D02*
D03*
X29500D02*
D03*
X30000D02*
D03*
X30500D02*
D03*
X31000D02*
D03*
X33500D02*
D03*
X33000D02*
D03*
X32500D02*
D03*
X32000D02*
D03*
X31500D02*
D03*
X33500Y15018D02*
D03*
X33000D02*
D03*
X32500D02*
D03*
X32000D02*
D03*
X31500D02*
D03*
X38970Y22502D02*
D03*
X38470D02*
D03*
X37970D02*
D03*
X37470D02*
D03*
X36970D02*
D03*
X38970Y24038D02*
D03*
X38470D02*
D03*
X37970D02*
D03*
X37470D02*
D03*
X36970D02*
D03*
D139*
X38375Y13000D02*
D03*
X36625D02*
D03*
X38375Y15000D02*
D03*
X36625D02*
D03*
Y21000D02*
D03*
X38375D02*
D03*
X36625Y20000D02*
D03*
X38375D02*
D03*
X36625Y19000D02*
D03*
X38375D02*
D03*
X36625Y18000D02*
D03*
X38375D02*
D03*
X36625Y17000D02*
D03*
X38375D02*
D03*
X36625Y16000D02*
D03*
X38375D02*
D03*
X36625Y14000D02*
D03*
X38375D02*
D03*
X36625Y12000D02*
D03*
X38375D02*
D03*
X26425Y12000D02*
D03*
X24675D02*
D03*
X26425Y13000D02*
D03*
X24675D02*
D03*
X26425Y14000D02*
D03*
X24675D02*
D03*
D140*
X31000Y21423D02*
D03*
Y22577D02*
D03*
X27000Y21423D02*
D03*
X30000D02*
D03*
X29000Y21423D02*
D03*
X34000Y21423D02*
D03*
X33000D02*
D03*
X27000Y22577D02*
D03*
X30000D02*
D03*
X29000D02*
D03*
X34000D02*
D03*
X33000D02*
D03*
X28000Y21423D02*
D03*
X32000D02*
D03*
X28000Y22577D02*
D03*
X32000D02*
D03*
X7400Y21423D02*
D03*
X13400D02*
D03*
X7400Y22577D02*
D03*
X13400D02*
D03*
X8400Y21423D02*
D03*
X9400Y21423D02*
D03*
X11400D02*
D03*
X12400D02*
D03*
X15400D02*
D03*
X16400D02*
D03*
X8400Y22577D02*
D03*
X9400D02*
D03*
X11400D02*
D03*
X12400D02*
D03*
X15400D02*
D03*
X16400D02*
D03*
X10400Y21423D02*
D03*
X14400Y21423D02*
D03*
X10400Y22577D02*
D03*
X14400D02*
D03*
X14000Y3577D02*
D03*
Y2423D02*
D03*
X18000Y3577D02*
D03*
X15000D02*
D03*
X16000Y3577D02*
D03*
X11000Y3577D02*
D03*
X12000D02*
D03*
X18000Y2423D02*
D03*
X15000D02*
D03*
X16000D02*
D03*
X11000D02*
D03*
X12000D02*
D03*
X17000Y3577D02*
D03*
X13000D02*
D03*
X17000Y2423D02*
D03*
X13000D02*
D03*
X23000Y3577D02*
D03*
X23000Y2423D02*
D03*
X25000Y3577D02*
D03*
X24000D02*
D03*
X21000D02*
D03*
X20000D02*
D03*
X25000Y2423D02*
D03*
X24000D02*
D03*
X21000D02*
D03*
X20000D02*
D03*
X22000Y3577D02*
D03*
Y2423D02*
D03*
X16400Y17423D02*
D03*
Y18577D02*
D03*
X15400D02*
D03*
Y17423D02*
D03*
X7400D02*
D03*
Y18577D02*
D03*
X11400D02*
D03*
Y17423D02*
D03*
X12400Y18577D02*
D03*
Y17423D02*
D03*
X10400Y18577D02*
D03*
Y17423D02*
D03*
X9400Y18577D02*
D03*
Y17423D02*
D03*
X8400D02*
D03*
Y18577D02*
D03*
X14400Y17423D02*
D03*
Y18577D02*
D03*
X13400Y17423D02*
D03*
Y18577D02*
D03*
X17400Y17423D02*
D03*
Y18577D02*
D03*
X18400Y17423D02*
D03*
Y18577D02*
D03*
X19400Y17423D02*
D03*
Y18577D02*
D03*
X22000Y21423D02*
D03*
Y22577D02*
D03*
X18000Y21423D02*
D03*
X21000D02*
D03*
X20000Y21423D02*
D03*
X25000Y21423D02*
D03*
X24000D02*
D03*
X18000Y22577D02*
D03*
X21000D02*
D03*
X20000D02*
D03*
X25000D02*
D03*
X24000D02*
D03*
X19000Y21423D02*
D03*
X23000D02*
D03*
X19000Y22577D02*
D03*
X23000D02*
D03*
D141*
X3870Y12226D02*
D03*
X3122D02*
D03*
Y13034D02*
D03*
D142*
X3791D02*
D03*
D143*
X2365Y13760D02*
D03*
Y11240D02*
D03*
D144*
X1400Y12028D02*
D03*
Y12972D02*
D03*
D145*
X2454Y11988D02*
D03*
Y12244D02*
D03*
Y13012D02*
D03*
Y12756D02*
D03*
Y12500D02*
D03*
D146*
X50768Y24104D02*
D03*
X5411Y1120D02*
D03*
D147*
X23250Y16000D02*
D03*
Y16500D02*
D03*
Y17000D02*
D03*
Y17500D02*
D03*
Y18000D02*
D03*
X23750D02*
D03*
Y17500D02*
D03*
Y17000D02*
D03*
Y16500D02*
D03*
Y16000D02*
D03*
D148*
X3660Y11440D02*
D03*
X4192D02*
D03*
X43229Y15468D02*
D03*
X43761D02*
D03*
X47137Y17112D02*
D03*
X46605D02*
D03*
X46703Y6112D02*
D03*
X47234D02*
D03*
X44606Y9705D02*
D03*
X43130Y9705D02*
D03*
X43661D02*
D03*
X6354Y7070D02*
D03*
X6886D02*
D03*
X7106Y3917D02*
D03*
X7638D02*
D03*
X44075Y9705D02*
D03*
X47994Y9152D02*
D03*
X47462D02*
D03*
X41094Y18140D02*
D03*
X41626D02*
D03*
X45513Y17466D02*
D03*
X44981D02*
D03*
D149*
X484Y4203D02*
D03*
Y5857D02*
D03*
D150*
X2010Y4833D02*
D03*
Y5227D02*
D03*
D151*
X49805Y21463D02*
D03*
X49255D02*
D03*
X49805Y22546D02*
D03*
X49255D02*
D03*
D152*
X14850Y10335D02*
D03*
Y9785D02*
D03*
D153*
X15118Y9439D02*
D03*
Y9261D02*
D03*
X46112Y5157D02*
D03*
Y4980D02*
D03*
X48406Y22632D02*
D03*
Y22455D02*
D03*
Y21550D02*
D03*
Y21372D02*
D03*
D154*
X14842Y9350D02*
D03*
X46388Y5069D02*
D03*
X48681Y22544D02*
D03*
Y21461D02*
D03*
D155*
X44440Y15980D02*
D03*
Y13460D02*
D03*
X46960D02*
D03*
Y15980D02*
D03*
X18809Y13090D02*
D03*
Y10570D02*
D03*
X16290D02*
D03*
Y13090D02*
D03*
D156*
X46566Y15980D02*
D03*
X46723Y13460D02*
D03*
X46566D02*
D03*
X46802Y13618D02*
D03*
Y15822D02*
D03*
X44440Y13696D02*
D03*
X46409Y13460D02*
D03*
X46251D02*
D03*
X46094D02*
D03*
X45936D02*
D03*
X45779D02*
D03*
X45621D02*
D03*
X45464D02*
D03*
X45306D02*
D03*
X45149D02*
D03*
X44991D02*
D03*
X44834D02*
D03*
X44676D02*
D03*
X46645Y13618D02*
D03*
X46487D02*
D03*
X46330D02*
D03*
X46172D02*
D03*
X46015D02*
D03*
X45857D02*
D03*
X45700D02*
D03*
X45542D02*
D03*
X45385D02*
D03*
X45227D02*
D03*
X45070D02*
D03*
X44912D02*
D03*
X44755D02*
D03*
X44597D02*
D03*
Y13775D02*
D03*
Y13933D02*
D03*
X44440Y13854D02*
D03*
Y14011D02*
D03*
X44597Y14090D02*
D03*
X46960Y14169D02*
D03*
X44440D02*
D03*
X44597Y14248D02*
D03*
X46960Y14326D02*
D03*
X44440D02*
D03*
X44597Y14405D02*
D03*
X46960Y14484D02*
D03*
X44440D02*
D03*
X44597Y14563D02*
D03*
X46960Y14641D02*
D03*
X44440D02*
D03*
X44597Y14720D02*
D03*
X46960Y14799D02*
D03*
X44440D02*
D03*
X44597Y14877D02*
D03*
X46960Y14956D02*
D03*
X44440D02*
D03*
X44597Y15035D02*
D03*
X46960Y15114D02*
D03*
X44440D02*
D03*
X44597Y15192D02*
D03*
X46960Y15271D02*
D03*
X44440D02*
D03*
X44597Y15350D02*
D03*
X46960Y15429D02*
D03*
X44440D02*
D03*
X44597Y15507D02*
D03*
X46960Y15586D02*
D03*
X44440D02*
D03*
X44597Y15665D02*
D03*
X46960Y15744D02*
D03*
X44440D02*
D03*
X46172Y15822D02*
D03*
X46015D02*
D03*
X45857D02*
D03*
X45700D02*
D03*
X45542D02*
D03*
X45385D02*
D03*
X45227D02*
D03*
X45070D02*
D03*
X44912D02*
D03*
X44755D02*
D03*
X44597D02*
D03*
X46409Y15980D02*
D03*
X46251D02*
D03*
X46094D02*
D03*
X45936D02*
D03*
X45779D02*
D03*
X45621D02*
D03*
X45464D02*
D03*
X44834D02*
D03*
X46330Y15822D02*
D03*
X46487D02*
D03*
X46645D02*
D03*
X46960Y14011D02*
D03*
Y13854D02*
D03*
Y13696D02*
D03*
X18809Y10806D02*
D03*
Y10964D02*
D03*
Y11121D02*
D03*
X18494Y12932D02*
D03*
X18337D02*
D03*
X18180D02*
D03*
X16683Y13090D02*
D03*
X17313D02*
D03*
X17471D02*
D03*
X17628D02*
D03*
X17786D02*
D03*
X17943D02*
D03*
X18101D02*
D03*
X18258D02*
D03*
X16447Y12932D02*
D03*
X16605D02*
D03*
X16762D02*
D03*
X16920D02*
D03*
X17077D02*
D03*
X17235D02*
D03*
X17392D02*
D03*
X17550D02*
D03*
X17707D02*
D03*
X17865D02*
D03*
X18022D02*
D03*
X16290Y12854D02*
D03*
X18809D02*
D03*
X16447Y12775D02*
D03*
X16290Y12696D02*
D03*
X18809D02*
D03*
X16447Y12617D02*
D03*
X16290Y12539D02*
D03*
X18809D02*
D03*
X16447Y12460D02*
D03*
X16290Y12381D02*
D03*
X18809D02*
D03*
X16447Y12302D02*
D03*
X16290Y12224D02*
D03*
X18809D02*
D03*
X16290Y12066D02*
D03*
X18809D02*
D03*
X16447Y11987D02*
D03*
X16290Y11909D02*
D03*
X18809D02*
D03*
X16447Y11830D02*
D03*
X16290Y11751D02*
D03*
X18809D02*
D03*
X16447Y11673D02*
D03*
X16290Y11594D02*
D03*
X18809D02*
D03*
X16447Y11515D02*
D03*
X16290Y11436D02*
D03*
X18809D02*
D03*
X16447Y11358D02*
D03*
X16290Y11279D02*
D03*
X18809D02*
D03*
X16447Y11200D02*
D03*
X16290Y11121D02*
D03*
Y10964D02*
D03*
X16447Y11043D02*
D03*
Y10728D02*
D03*
X16605D02*
D03*
X16762D02*
D03*
X16920D02*
D03*
X17077D02*
D03*
X17235D02*
D03*
X17392D02*
D03*
X17550D02*
D03*
X17707D02*
D03*
X17865D02*
D03*
X18022D02*
D03*
X18180D02*
D03*
X18337D02*
D03*
X18494D02*
D03*
X16526Y10570D02*
D03*
X16683D02*
D03*
X16841D02*
D03*
X16998D02*
D03*
X17156D02*
D03*
X17628D02*
D03*
X17786D02*
D03*
X18258D02*
D03*
X16290Y10806D02*
D03*
X18652Y12932D02*
D03*
Y10728D02*
D03*
X18416Y10570D02*
D03*
X18573D02*
D03*
X18416Y13090D02*
D03*
X16447Y10885D02*
D03*
Y12145D02*
D03*
X18101Y10570D02*
D03*
X17943D02*
D03*
X17313D02*
D03*
X17471D02*
D03*
D157*
X45779Y14720D02*
D03*
X17628Y11830D02*
D03*
D158*
X42836Y13746D02*
D03*
X43407D02*
D03*
D159*
X17451Y14115D02*
D03*
X17057D02*
D03*
X43594Y7061D02*
D03*
X43987D02*
D03*
X8113Y8842D02*
D03*
X8507D02*
D03*
X8957Y5463D02*
D03*
X9350D02*
D03*
X43987Y6726D02*
D03*
X43594D02*
D03*
X18741Y13808D02*
D03*
X19134D02*
D03*
X16920Y13771D02*
D03*
X17313D02*
D03*
X18357Y13808D02*
D03*
X17963D02*
D03*
X45405Y17064D02*
D03*
X45798D02*
D03*
X41164Y6644D02*
D03*
X40770D02*
D03*
X40364D02*
D03*
X39970D02*
D03*
X46891Y16718D02*
D03*
X47284D02*
D03*
X45188Y16730D02*
D03*
X45582D02*
D03*
D160*
X16428Y13926D02*
D03*
Y14320D02*
D03*
X45218Y9344D02*
D03*
Y9738D02*
D03*
X45552Y9738D02*
D03*
Y9344D02*
D03*
X44578Y16816D02*
D03*
Y17210D02*
D03*
X46202Y16836D02*
D03*
Y17230D02*
D03*
D161*
X20128Y13062D02*
D03*
X20581D02*
D03*
Y13633D02*
D03*
X20128D02*
D03*
X48279Y15952D02*
D03*
X48731D02*
D03*
Y16523D02*
D03*
X48279D02*
D03*
D162*
X49298Y7263D02*
D03*
X49495D02*
D03*
X49692D02*
D03*
X49298Y7617D02*
D03*
X49495D02*
D03*
X49692D02*
D03*
D163*
X46083Y10394D02*
D03*
X46083Y10059D02*
D03*
X46535D02*
D03*
X46535Y10394D02*
D03*
D164*
X44015Y8970D02*
D03*
X43161D02*
D03*
D165*
X42111Y17851D02*
D03*
Y18009D02*
D03*
X42269Y17851D02*
D03*
Y18009D02*
D03*
X11937Y6687D02*
D03*
X11779D02*
D03*
X11937Y6845D02*
D03*
X11779D02*
D03*
X10149Y7119D02*
D03*
X9991D02*
D03*
X10149Y6961D02*
D03*
X9991D02*
D03*
X46762Y5581D02*
D03*
X46919D02*
D03*
X46762Y5423D02*
D03*
X46919D02*
D03*
X9259Y7119D02*
D03*
X10899Y12029D02*
D03*
Y11871D02*
D03*
X10741Y12029D02*
D03*
Y11871D02*
D03*
X9259Y6961D02*
D03*
X9101Y7119D02*
D03*
Y6961D02*
D03*
D166*
X7776Y7960D02*
D03*
X8544D02*
D03*
Y7763D02*
D03*
Y8157D02*
D03*
X7776Y7763D02*
D03*
X8564Y4813D02*
D03*
Y4616D02*
D03*
X9331D02*
D03*
Y4813D02*
D03*
Y5010D02*
D03*
D167*
X8160Y7960D02*
D03*
X8947Y4813D02*
D03*
D168*
X7776Y8177D02*
D03*
X8564Y5030D02*
D03*
D169*
X6138Y10949D02*
D03*
D170*
X6335Y10566D02*
D03*
X6138D02*
D03*
X5941D02*
D03*
Y11333D02*
D03*
X6138D02*
D03*
D171*
X6355D02*
D03*
D172*
X8659Y9766D02*
D03*
X10981D02*
D03*
Y10022D02*
D03*
Y10278D02*
D03*
Y10534D02*
D03*
X8659D02*
D03*
Y10278D02*
D03*
Y10022D02*
D03*
D173*
X8800Y6450D02*
D03*
X27250Y15000D02*
D03*
X11300Y7000D02*
D03*
X12400Y14700D02*
D03*
X24600Y11000D02*
D03*
D174*
X3160Y732D02*
D03*
X2176D02*
D03*
X1192Y3488D02*
D03*
X2176D02*
D03*
X3160D02*
D03*
X1192Y732D02*
D03*
D175*
X9700Y8400D02*
D03*
D176*
X9641Y8991D02*
D03*
Y7809D02*
D03*
D177*
X14509Y6212D02*
D03*
X14331D02*
D03*
X13139Y6962D02*
D03*
X12961D02*
D03*
X12521Y7238D02*
D03*
X12699D02*
D03*
X19686Y10880D02*
D03*
X19863D02*
D03*
D178*
X14420Y6488D02*
D03*
X13050Y7238D02*
D03*
X12610Y6962D02*
D03*
X19775Y10605D02*
D03*
D179*
X4724Y20657D02*
D03*
Y19657D02*
D03*
Y17429D02*
D03*
Y16429D02*
D03*
Y8090D02*
D03*
Y7090D02*
D03*
D180*
X6227Y9571D02*
D03*
X5400D02*
D03*
D181*
X6850Y8413D02*
D03*
Y7547D02*
D03*
X7637Y5266D02*
D03*
Y4400D02*
D03*
D182*
X9620Y11884D02*
D03*
Y11553D02*
D03*
X10260Y11884D02*
D03*
X3002Y4811D02*
D03*
X9940Y11884D02*
D03*
X10260Y11553D02*
D03*
X9940D02*
D03*
X3002Y4480D02*
D03*
D183*
X9756Y5463D02*
D03*
X10087D02*
D03*
X8472Y9301D02*
D03*
X8142D02*
D03*
D184*
X52982Y22598D02*
D03*
X53494D02*
D03*
X52982Y21417D02*
D03*
X53494D02*
D03*
D185*
X37323Y9102D02*
D03*
D186*
X38073Y10193D02*
D03*
X37573D02*
D03*
X37073D02*
D03*
X36573D02*
D03*
X38073Y8012D02*
D03*
X37573D02*
D03*
X37073D02*
D03*
X36573D02*
D03*
D187*
X53150Y2933D02*
D03*
Y1673D02*
D03*
D188*
X48976Y10951D02*
D03*
Y11864D02*
D03*
X49498Y5557D02*
D03*
Y6470D02*
D03*
D189*
X48573Y11033D02*
D03*
X49380D02*
D03*
Y11782D02*
D03*
X48573D02*
D03*
X49094Y5640D02*
D03*
X49902D02*
D03*
Y6388D02*
D03*
X49094D02*
D03*
D190*
X45542Y8901D02*
D03*
X46645D02*
D03*
X46645Y6539D02*
D03*
X46487D02*
D03*
X46330D02*
D03*
X46015D02*
D03*
X45857D02*
D03*
X45700D02*
D03*
X45542D02*
D03*
X45385D02*
D03*
X45227D02*
D03*
X45070D02*
D03*
X44913D02*
D03*
Y8901D02*
D03*
X45070D02*
D03*
X45227D02*
D03*
X45385D02*
D03*
X45700D02*
D03*
X45857D02*
D03*
X46015D02*
D03*
X46172D02*
D03*
X46487D02*
D03*
X46330D02*
D03*
X46172Y6539D02*
D03*
D191*
X44598Y8586D02*
D03*
Y7641D02*
D03*
Y7169D02*
D03*
X46960Y6854D02*
D03*
X44598Y7326D02*
D03*
Y7799D02*
D03*
Y7956D02*
D03*
Y8114D02*
D03*
Y8271D02*
D03*
Y8429D02*
D03*
X46960Y8586D02*
D03*
Y8429D02*
D03*
Y8271D02*
D03*
Y7956D02*
D03*
Y7799D02*
D03*
Y7641D02*
D03*
Y7484D02*
D03*
Y7326D02*
D03*
Y7169D02*
D03*
Y7011D02*
D03*
X44598Y7484D02*
D03*
Y6854D02*
D03*
Y7011D02*
D03*
X46960Y8114D02*
D03*
D192*
X45779Y7720D02*
D03*
D193*
X28300Y16862D02*
D03*
Y16638D02*
D03*
X28520Y16862D02*
D03*
Y16638D02*
D03*
D194*
X43004Y22547D02*
D03*
X43259D02*
D03*
X43515D02*
D03*
X42748D02*
D03*
X42492D02*
D03*
D195*
X43476Y23600D02*
D03*
X42531D02*
D03*
D196*
X41744Y22635D02*
D03*
X44263D02*
D03*
D197*
X762Y22140D02*
D03*
Y22640D02*
D03*
Y23140D02*
D03*
Y23640D02*
D03*
Y24140D02*
D03*
X2298Y22140D02*
D03*
Y22640D02*
D03*
Y23140D02*
D03*
Y23640D02*
D03*
Y24140D02*
D03*
D198*
X40557Y23866D02*
D03*
Y23492D02*
D03*
X2900Y11190D02*
D03*
Y11564D02*
D03*
X41474Y20263D02*
D03*
Y20637D02*
D03*
X2860Y15227D02*
D03*
Y14853D02*
D03*
X45217Y21923D02*
D03*
Y22297D02*
D03*
D199*
X7400Y24500D02*
D03*
Y23500D02*
D03*
X8400D02*
D03*
Y24500D02*
D03*
X10400D02*
D03*
Y23500D02*
D03*
X11400D02*
D03*
Y24500D02*
D03*
X13400Y23500D02*
D03*
Y24500D02*
D03*
X16400Y23500D02*
D03*
X15400Y24500D02*
D03*
Y23500D02*
D03*
X14400Y24500D02*
D03*
Y23500D02*
D03*
X12400Y24500D02*
D03*
Y23500D02*
D03*
X9400D02*
D03*
Y24500D02*
D03*
X25000Y1500D02*
D03*
Y500D02*
D03*
X23000Y1500D02*
D03*
Y500D02*
D03*
X20000Y1500D02*
D03*
X21000Y500D02*
D03*
Y1500D02*
D03*
X22000Y500D02*
D03*
Y1500D02*
D03*
X24000Y500D02*
D03*
Y1500D02*
D03*
X18000Y500D02*
D03*
Y1500D02*
D03*
X15000D02*
D03*
Y500D02*
D03*
X13000Y1500D02*
D03*
Y500D02*
D03*
X12000Y1500D02*
D03*
Y500D02*
D03*
X11000Y1500D02*
D03*
X14000Y500D02*
D03*
Y1500D02*
D03*
X16000Y500D02*
D03*
Y1500D02*
D03*
X17000D02*
D03*
Y500D02*
D03*
X12000Y10000D02*
D03*
Y11000D02*
D03*
X49250Y24000D02*
D03*
X38580Y1270D02*
D03*
X27000Y24500D02*
D03*
Y23500D02*
D03*
X30000D02*
D03*
Y24500D02*
D03*
X32000Y23500D02*
D03*
Y24500D02*
D03*
X33000Y23500D02*
D03*
Y24500D02*
D03*
X34000Y23500D02*
D03*
X31000Y24500D02*
D03*
Y23500D02*
D03*
X29000Y24500D02*
D03*
Y23500D02*
D03*
X28000D02*
D03*
Y24500D02*
D03*
X18000D02*
D03*
Y23500D02*
D03*
X21000D02*
D03*
Y24500D02*
D03*
X23000Y23500D02*
D03*
Y24500D02*
D03*
X24000Y23500D02*
D03*
Y24500D02*
D03*
X25000Y23500D02*
D03*
X22000Y24500D02*
D03*
Y23500D02*
D03*
X20000Y24500D02*
D03*
Y23500D02*
D03*
X19000D02*
D03*
Y24500D02*
D03*
D200*
X16400D02*
D03*
X20000Y500D02*
D03*
X11000D02*
D03*
X34000Y24500D02*
D03*
X25000D02*
D03*
D201*
X1400Y13799D02*
D03*
Y11201D02*
D03*
D202*
X23900Y18500D02*
D03*
X23100D02*
D03*
X23500Y15500D02*
D03*
D203*
X12000Y9000D02*
D03*
D204*
X2954Y20157D02*
D03*
Y16929D02*
D03*
Y7590D02*
D03*
D205*
X41704Y23600D02*
D03*
X44303D02*
D03*
D206*
X50500Y18250D02*
D03*
X26000Y5000D02*
D03*
Y16000D02*
D03*
X5500Y3000D02*
D03*
X6000Y22000D02*
D03*
X38000Y3000D02*
D03*
X35500Y22000D02*
D03*
M02*
